<?xml version="1.0" encoding="UTF-8"?>
<svg width="66px" height="66px" viewBox="0 0 66 66" version="1.1" xmlns="http://www.w3.org/2000/svg" xmlns:xlink="http://www.w3.org/1999/xlink">
    <title>accessibility-icon</title>
    <g id="Homepage" stroke="none" stroke-width="1" fill="none" fill-rule="evenodd">
        <g id="Homepage-March-2024" transform="translate(-469, -1533)" fill-rule="nonzero" stroke="#000000" stroke-width="2">
            <g id="Yellow-Value-Props" transform="translate(-4, 1301)">
                <g id="Group-32" transform="translate(456, 218)">
                    <g id="Group-17" transform="translate(18, 15)">
                        <path d="M31.9895368,0 C47.2559735,-0.00433232347 60.3992602,10.7767268 63.3806997,25.7492974 C66.3621392,40.721868 58.3512515,55.7153408 44.247656,61.5594078 C30.1440604,67.4034749 13.8763132,62.4702714 5.39409403,49.7770433 C-3.08812513,37.0838153 -1.42209422,20.1662611 9.3732089,9.37149542 C15.3635967,3.36110568 23.5037283,-0.0118976422 31.9895368,0 Z" id="Path"></path>
                        <path d="M31.7918385,39.020748 L27.1486546,51.3781022 C26.9180493,52.0036453 26.4355917,52.5133685 25.8101725,52.7922272 C24.8590945,53.2217252 23.7329741,53.0563547 22.9579899,52.3733847 C22.1830057,51.6904147 21.9121637,50.6246849 22.2720145,49.6741565 L25.5092734,41.0394989 C25.7661763,40.3897584 25.9691421,39.7214061 26.1162595,39.0407356 C26.2470873,38.3496355 26.3405955,37.6524623 26.3964069,36.9520279 C26.5209168,35.6878101 26.6091114,34.3186573 26.6765543,33.0044704 C26.7439972,31.6902835 26.7906884,30.4160719 26.8270038,29.3617242 C26.8736951,28.0475374 26.5053531,27.9625899 25.410703,27.7127445 L25.1824348,27.6627754 L15.8441878,25.9688235 C15.1658881,25.853592 14.563018,25.4832551 14.1684913,24.9394604 C13.5750091,24.1052937 13.5621023,23.0088081 14.1357965,22.1618956 C14.7094907,21.314983 15.7566413,20.8846724 16.7883884,21.0718534 L26.8218159,22.8857311 C27.2212854,22.9207095 27.610379,22.9656816 28.0202243,23.0106538 C29.2549226,23.173608 30.4989897,23.2620592 31.7451472,23.2754899 C33.2963707,23.246314 34.8447327,23.1345458 36.3831432,22.9406971 C36.8500555,22.890728 37.2910283,22.835762 37.7320011,22.7957868 L47.1999459,21.0868441 C47.8716292,20.952683 48.571139,21.0802474 49.145414,21.4416246 C49.7203339,21.816316 50.1153461,22.3973244 50.2420951,23.0546916 C50.3688442,23.7120588 50.2167537,24.3909311 49.819843,24.9394604 C49.4306742,25.4866977 48.831551,25.862419 48.1545223,25.9838142 L39.1067986,27.6228002 C38.8058995,27.68776 38.5361279,27.7327321 38.2974838,27.7677105 C37.3532833,27.9226147 36.886371,28.0025652 36.943438,29.2967644 C36.9849413,30.2411801 37.1042634,31.3704814 37.2599008,32.5497517 C37.4414779,33.9338953 37.6801219,35.4029864 37.9291419,36.7471547 C38.0899672,37.6316075 38.2404168,38.3411684 38.4479334,39.020748 C38.65545,39.7003275 38.8577786,40.3948978 39.1690535,41.2293814 L42.3388696,49.6741565 C42.6987204,50.6246849 42.4278784,51.6904147 41.6528942,52.3733847 C40.8779099,53.0563547 39.7517895,53.2217252 38.8007116,52.7922272 C38.1752924,52.5133685 37.6928347,52.0036453 37.4622295,51.3781022 L32.8034819,39.0457325 L32.2846904,38.1312983 L31.7658989,39.020748 L31.7918385,39.020748 Z" id="Path"></path>
                        <path d="M31.9959247,10.0571429 C34.1768156,10.0552912 36.0552808,11.594345 36.4824369,13.7330097 C36.909593,15.8716743 35.7664589,18.014241 33.7521841,18.8502997 C31.7379092,19.6863585 29.4135546,18.9830314 28.2007132,17.1704787 C26.9878717,15.357926 27.2243711,12.9410205 28.7655667,11.3979599 C29.6207354,10.5385223 30.7835159,10.0558906 31.9959247,10.0571429 Z" id="Path"></path>
                        <path d="M50.7800055,13.2828468 C41.8498191,4.32289321 27.8334832,2.9200094 17.3046285,9.93232321 C6.77577391,16.944637 2.66764601,30.4185801 7.49313928,42.1122969 C12.3186325,53.8060137 24.7334074,60.4617386 37.1434893,58.0082415 C49.5535712,55.5547443 58.5016216,44.6755477 58.5142857,32.0253306 C58.5297303,24.9981953 55.7467148,18.2540568 50.7800055,13.2828468 L50.7800055,13.2828468 Z" id="Path"></path>
                    </g>
                </g>
            </g>
        </g>
    </g>
</svg>