<?xml version="1.0" encoding="UTF-8"?>
<svg width="92px" height="76px" viewBox="0 0 92 76" version="1.1" xmlns="http://www.w3.org/2000/svg" xmlns:xlink="http://www.w3.org/1999/xlink">
    <title>Lightweight</title>
    <g id="Homepage" stroke="none" stroke-width="1" fill="none" fill-rule="evenodd">
        <g id="Homepage-March-2024" transform="translate(-989, -1528)">
            <g id="Yellow-Value-Props" transform="translate(-4, 1301)">
                <g id="Group-24" transform="translate(991, 218)">
                    <g id="Lightweight" transform="translate(47.9787, 46.8321) rotate(-20) translate(-47.9787, -46.8321)translate(9.1164, 20.9888)">
                        <path d="M59.8923384,3.33513446 C60.3431873,3.8487044 60.7738354,4.52325716 61.1977067,5.33979462 C62.2143956,7.2983245 63.6367783,9.37278843 65.4697366,11.5600035 C66.7892497,13.590077 68.207877,15.4464411 69.7249658,17.129599 C70.6053353,18.1063389 71.7875883,19.0721798 73.2763832,20.0214431 L63.7727099,19.4427383 C64.9334608,22.6479743 66.2859681,25.0385057 67.7912511,26.6477052 L67.819,26.676 L67.6707089,26.6622107 C66.1927665,26.5158535 64.039959,26.0978707 61.1981254,25.4596617 L60.7666809,25.3622851 L64.954569,31.5193349 C51.8995922,43.1395971 39.9307537,49.4996025 29.0139181,50.5013034 C18.8036349,51.4381728 9.9088984,48.8103234 2.33671139,42.6093 C18.8220137,40.2418333 31.0430778,34.9627125 39.0443218,26.848335 C43.1173362,22.7177303 46.2626485,19.7826571 48.4840287,18.0475429 C49.509947,17.246201 50.3166047,16.7102387 50.9156056,16.4618038 L55.6224378,18.089088 C56.1437655,15.40661 56.2947807,13.1998582 56.1222135,11.4528959 L56.116,11.402 L56.3098718,11.6021627 C57.3109305,12.6445602 58.4132162,13.8258363 59.7969843,15.3258231 L60.1488949,15.7075636 Z" id="Path-26" stroke="#000000" stroke-width="2" fill="#FBF6ED"></path>
                        <path d="M72.3280148,3.1550308 C60.290953,21.5194889 50.03593,33.0631318 41.5629459,37.7859594 C33.0899618,42.508787 26.1243845,44.9902633 20.6662139,45.2303883" id="Path-23" stroke="#000000" stroke-width="2"></path>
                        <polygon id="Path-27" points="64.819046 10 70.8574327 -6.96482108e-13 72.819046 -6.96482108e-13 65.9450853 10"></polygon>
                    </g>
                </g>
            </g>
        </g>
    </g>
</svg>