<?xml version="1.0" encoding="UTF-8"?>
<svg width="144px" height="35px" viewBox="0 0 144 35" version="1.1" xmlns="http://www.w3.org/2000/svg" xmlns:xlink="http://www.w3.org/1999/xlink">
    <title>logo-judgeme-White</title>
    <g id="Homepage" stroke="none" stroke-width="1" fill="none" fill-rule="evenodd">
        <g id="Homepage-March-2024" transform="translate(-171, -4463)" fill-rule="nonzero">
            <g id="3-Up-Testimonials" transform="translate(133, 4135)">
                <g id="logo-judgeme-White" transform="translate(38, 328)">
                    <g id="Group">
                        <polygon id="Path" fill="#FFFFFF" points="35.7024793 0 0 0 0 34.8172096 35.7024793 34.8172096"></polygon>
                        <path d="M23.7325366,5.16432958 L23.7325366,21.7393301 C23.7325366,26.0934899 20.1327654,29.6522105 15.6665226,29.6522105 C11.2002797,29.6522105 7.60050858,26.0934899 7.60050858,21.7393301 L12.2576224,21.7393301 C12.2576224,23.5652249 13.7942022,25.063704 15.6665226,25.063704 C17.538843,25.063704 19.0754228,23.5652249 19.0754228,21.7393301 L19.0754228,9.70663631 L15.6665226,9.70663631 L15.6665226,5.16432958 L23.7325366,5.16432958 Z" id="Path" fill="#000000"></path>
                    </g>
                    <g id="Group" transform="translate(42.843, 7)" fill="#FFFFFF">
                        <path d="M9.85113816,11.4527753 C9.85355399,12.1557399 9.79040887,12.857443 9.66249498,13.5490812 C9.55108615,14.1925484 9.30502983,14.8064618 8.94072977,15.3505206 C8.55455805,15.8979379 8.02827092,16.3325133 7.41586408,16.6092445 C6.75766343,16.9242613 5.89441584,17.0821056 4.82680481,17.0821056 C3.70589757,17.1187459 2.60136859,16.8101633 1.66771506,16.1995212 C0.808568406,15.6124749 0.252207728,14.6929482 0,13.4409411 L1.56587508,13.0627866 C1.94059148,12.9779742 2.33083991,12.9855889 2.70183509,13.084952 C3.07351283,13.1847044 3.41455023,13.3726893 3.69494574,13.6323693 C3.97600576,13.8877562 4.34490517,14.0293109 4.72769879,14.0286591 C5.06621204,14.048314 5.39989843,13.9423634 5.6627128,13.7317775 C5.88729485,13.5296099 6.0559244,13.2746811 6.15277497,12.9909171 C6.25882128,12.6808758 6.32226301,12.3583066 6.34141815,12.0317615 L6.37559264,11.0726058 L6.37559264,1.05990731 L7.98452758,1.05990731 C8.47732371,1.05990731 8.95029863,1.25402214 9.29887842,1.59993612 C9.64819513,1.94725638 9.84395047,2.41599787 9.84361977,2.90433409 L9.85250514,11.4527753 L9.85113816,11.4527753 Z M21.7814522,16.6838007 L19.7391848,16.6838007 C19.5846163,16.6828975 19.4367864,16.6215 19.3284074,16.5131946 C19.2197325,16.4050545 19.1582185,16.2579571 19.1582185,16.1048146 L19.1582185,15.2262603 L19.1131081,15.2262603 C18.9844967,15.4478529 18.8323695,15.6554392 18.6592709,15.8455471 C18.4608974,16.0609684 18.231556,16.2467469 17.9785151,16.3969944 C17.6944707,16.5667372 17.3894167,16.6999235 17.0708407,16.7932842 C16.7102268,16.8997386 16.3353178,16.9520479 15.9588028,16.9484417 C15.2523618,16.9752956 14.5490523,16.8427171 13.9028656,16.5608837 C13.4007478,16.324423 12.9766929,15.95356 12.6794189,15.4909013 C12.3765978,14.9977369 12.1795907,14.44893 12.100503,13.8782033 C12.0010482,13.2139562 11.9526114,12.5432947 11.9556032,11.8719022 L11.9556032,6.5347517 C11.9556032,6.38093752 12.0171173,6.23384012 12.1264756,6.12570002 C12.2354138,6.01755825 12.3837746,5.95662825 12.53862,5.95643726 L14.7107505,5.95643726 C14.8653189,5.9573405 15.0131489,6.01873799 15.1215278,6.12704338 C15.2303918,6.2360781 15.2914825,6.38266935 15.2917168,6.53542338 L15.2917168,11.2102997 L15.3258913,12.1694554 C15.3443195,12.4830818 15.4116297,12.7920698 15.5254703,13.0856237 C15.6321647,13.3870366 15.8383444,13.6447401 16.111221,13.8177523 C16.3830393,13.9896813 16.7061597,14.0659279 17.0277808,14.0340325 C17.3900304,14.0521678 17.7502295,13.9742532 18.0714697,13.8090205 C18.3298288,13.6639381 18.5417107,13.4503446 18.6838765,13.1917487 C18.8287764,12.920391 18.923098,12.6248528 18.9606899,12.3205828 C19.0071672,11.9840723 19.0297224,11.6448751 19.0290389,11.3050063 L19.0290389,6.53542338 C19.0290389,6.3816092 19.090553,6.2345118 19.1999113,6.1263717 C19.3088495,6.01822993 19.4572103,5.95729993 19.6120557,5.95710894 L21.7814522,5.95710894 C21.9362976,5.95729993 22.0846583,6.01822993 22.1935966,6.1263717 C22.3029549,6.23518348 22.364469,6.38228088 22.364469,6.53542338 L22.364469,16.1034713 C22.364469,16.1794923 22.3493815,16.2547836 22.3200422,16.3251249 C22.2907915,16.3951273 22.2478292,16.4587994 22.1935966,16.512523 C22.1396858,16.5664304 22.0753028,16.6091436 22.0042699,16.6381267 C21.9331869,16.6670088 21.8573196,16.6824574 21.7807687,16.6824574 L21.7814522,16.6838007 Z M36.9720125,15.6232218 L36.502455,16.2337767 C36.3514038,16.4272199 36.1593432,16.5850641 35.939943,16.6965626 C35.7205427,16.8080611 35.4792708,16.8698555 35.232531,16.8779156 C34.9857912,16.8859757 34.7411019,16.8403016 34.5148668,16.7435801 C34.2878495,16.6468431 34.0854688,16.5018672 33.9222811,16.3190798 L32.994102,15.2806662 L32.9510422,15.2806662 C32.797257,15.493588 32.6216001,15.6897179 32.4268055,15.8663691 C32.1967012,16.0744249 31.9430622,16.2558451 31.6708658,16.4070696 C31.3685801,16.5741426 31.048037,16.7070839 30.7153471,16.8033594 C30.3651451,16.9071902 30.0012253,16.9594767 29.6354332,16.9585169 C28.8885998,16.9682849 28.1475277,16.8288931 27.4571513,16.5487935 C26.8215058,16.2888543 26.2494249,15.8986096 25.7778169,15.4029115 C25.301844,14.8954962 24.9352076,14.2987277 24.6999536,13.6484895 C24.4410701,12.933099 24.3126562,12.1784322 24.3206167,11.4191915 C24.3165914,10.6836106 24.4331376,9.95219292 24.6657791,9.25303108 C24.8811619,8.59502481 25.2121909,7.97918992 25.6438529,7.43345637 C26.0628322,6.90686111 26.5898028,6.47362904 27.1892233,6.16331397 C27.828963,5.8406705 28.5398695,5.67824353 29.2588304,5.69045291 C29.9210606,5.68425796 30.5792466,5.79247663 31.2033588,6.01017147 C31.7983752,6.21745823 32.314696,6.59853382 32.6831142,7.1023193 L32.728908,7.1023193 L32.728908,0.954453918 C32.7287784,0.701803498 32.8299507,0.459276717 33.0105058,0.279417896 C33.1901312,0.100768481 33.4350134,0 33.6905781,0 L35.168283,0 C35.4116295,0 35.6457709,0.0914330479 35.8230662,0.255237501 C36.001457,0.419126844 36.1101319,0.644138851 36.1279026,0.885271121 L37.172275,14.9683361 C37.1879953,15.2034232 37.1169123,15.4364954 36.9720125,15.6238934 L36.9720125,15.6232218 Z M32.994102,11.3224699 C33.026226,10.6017598 32.7747018,9.89649826 32.2928415,9.35646944 C31.8390043,8.85674128 31.1698678,8.6068772 30.3250744,8.6068772 C29.4802811,8.6068772 28.8254979,8.85674128 28.3579909,9.35646944 C27.9041536,9.91261852 27.6567303,10.6057898 27.6567303,11.3211265 C27.6567303,12.0364632 27.9041536,12.7303062 28.3579909,13.2857836 C28.8254979,13.7855118 29.4809646,14.0353758 30.3250744,14.0353758 C31.1691843,14.0353758 31.827385,13.7855118 32.2928415,13.2857836 C32.7747018,12.7464265 33.026226,12.0425083 32.994102,11.3217982 L32.994102,11.3224699 Z M50.0731446,15.783081 C50.0731446,17.8095325 49.5195178,19.3161054 48.5277742,20.4062382 C46.1793033,22.9895104 42.0940849,22.0887907 40.9779461,21.6602603 C39.2507674,20.9979862 36.874957,19.3859599 36.6480384,18.2602282 C36.570804,17.8753569 36.7997731,17.4159294 37.1018756,17.0102361 C37.3017344,16.7615561 37.5555566,16.5598506 37.844829,16.4198314 C38.1333551,16.2804354 38.4501423,16.2067398 38.7716411,16.2042229 C40.9389872,16.3278116 40.3607548,19.0662413 43.7645339,19.0662413 C44.8239431,19.0662413 45.5416073,18.821079 46.0227841,18.3273959 C46.5108929,17.8189617 46.7707061,17.139149 46.7438659,16.4406534 L46.7438659,15.4049265 L46.700806,15.4049265 C46.3399234,15.8992813 45.8416594,16.2787791 45.2668445,16.4970744 C44.7529631,16.6984218 44.2062513,16.8067392 43.6531251,16.8167929 C42.9065155,16.8262712 42.1656363,16.6876011 41.4748432,16.4090846 C40.8383642,16.1478637 40.2658635,15.7563059 39.7955088,15.2605158 C39.319687,14.752989 38.9530702,14.1562525 38.7176454,13.5060939 C38.4579193,12.7914289 38.3294232,12.0364632 38.3383086,11.2767958 C38.3383832,10.571615 38.4549536,9.87112302 38.6834709,9.20265526 C38.8976445,8.55379255 39.2289547,7.94812807 39.6615448,7.4146494 C40.0842312,6.89918787 40.6102439,6.47463043 41.2069152,6.16734403 C41.8466548,5.84470057 42.5575613,5.6822736 43.2765222,5.69448298 C43.7149671,5.69058188 44.1521054,5.74205065 44.5772033,5.84762548 C44.9428851,5.94094523 45.2966696,6.07456061 45.631828,6.24593032 C45.9212629,6.39212347 46.1906576,6.57380713 46.4335615,6.78663081 C46.6335113,6.96015658 46.8124034,7.15579089 46.9666835,7.369647 L47.0117939,7.369647 L47.0117939,6.28623098 C47.0116057,6.19920057 47.0465025,6.11563981 47.1088494,6.05383051 C47.1707022,5.99217939 47.2551874,5.95756543 47.3432864,5.95778061 C47.7030517,5.95779708 48.0592222,6.02811974 48.3910762,6.16465732 C48.723818,6.30163153 49.0257696,6.50181236 49.2796129,6.75371861 C49.5338711,7.00559772 49.7348171,7.30583762 49.8721986,7.63563134 C50.0098012,7.96558274 50.0803873,8.31880249 50.0799812,8.67538832 L50.0731446,15.7824094 L50.0731446,15.783081 Z M41.6764727,11.2593322 C41.6751057,11.6018878 41.7420877,11.941085 41.8740012,12.2581168 C42.005179,12.5742981 42.1989355,12.8617365 42.4440317,13.103759 C42.6894045,13.3462346 42.9757867,13.5430361 43.290192,13.6867751 C43.6202204,13.8389483 43.9809735,13.9158678 44.3455002,13.9117872 C44.7068901,13.9132114 45.0641628,13.8363871 45.3919231,13.6867751 C45.7101067,13.5442208 45.9997038,13.3467579 46.2469688,13.103759 C46.4917507,12.8613483 46.6856638,12.5740222 46.8176828,12.2581168 C47.0841265,11.6186992 47.0841265,10.9019802 46.8176828,10.2625626 C46.6856638,9.94665723 46.4917507,9.65933105 46.2469688,9.41692043 C45.9995455,9.17310145 45.7097458,8.97428487 45.3919231,8.83121753 C45.063809,8.68263956 44.7067722,8.60586603 44.3455002,8.60620009 C43.9813254,8.60545593 43.6213048,8.68221924 43.290192,8.83121753 C42.9757867,8.97562822 42.688721,9.17377312 42.4440317,9.41692043 C42.2011196,9.65719178 42.0081955,9.94169087 41.8760517,10.2545024 C41.7398895,10.570798 41.6690296,10.9105265 41.6675873,11.2539588 L41.6764727,11.2586605 L41.6764727,11.2593322 Z M61.9125545,14.3886783 C62.0719474,14.5069372 62.1714114,14.6872389 62.1852669,14.883033 C62.1921367,14.9800166 62.1779242,15.0773265 62.143574,15.168496 C62.1090015,15.2595501 62.0549246,15.3422415 61.9850044,15.4109716 C61.5477993,15.8193598 61.0438906,16.1526719 60.4943132,16.3969944 C59.7002949,16.7601989 58.835071,16.9484093 57.9592496,16.9484417 C57.1593001,16.9530209 56.3648617,16.818165 55.6128292,16.5501369 C54.9067843,16.3043029 54.257469,15.9214466 53.7017918,15.4244052 C53.1552571,14.9251967 52.7196433,14.3203429 52.4222989,13.6478178 C51.7980108,12.163868 51.7980108,10.4971921 52.4222989,9.01324217 C52.7196433,8.34071707 53.1552571,7.7358633 53.7017918,7.23665483 C54.2567855,6.73558331 54.9061008,6.348697 55.6128292,6.09950459 C56.3648767,5.83174842 57.1593874,5.69756253 57.9592496,5.70321479 C58.6800342,5.6926531 59.3953595,5.82753056 60.0609807,6.09950459 C60.6760566,6.35390395 61.2239854,6.74281683 61.6630807,7.23665483 C62.1163593,7.75749369 62.4603722,8.36126736 62.6753291,9.01324217 C62.9208139,9.76165343 63.0410766,10.5442556 63.0314272,11.33053 L63.0314272,11.4071013 C63.0308078,11.6612489 62.9284232,11.9049451 62.746412,12.0854957 C62.5655784,12.2649985 62.3192704,12.3660749 62.0622387,12.3662569 L55.290222,12.3662569 C55.4023144,12.9506165 55.7098848,13.4798984 56.1644055,13.8681281 C56.6241715,14.2487514 57.210736,14.4491855 57.8116158,14.430994 C58.3007465,14.4465789 58.783739,14.3204428 59.200467,14.068288 C59.3279605,13.9849433 59.4507166,13.8948037 59.5681845,13.7982736 C59.9727846,13.4448829 60.5728426,13.4150076 61.011715,13.7264041 L61.9125545,14.3886783 L61.9125545,14.3886783 Z M59.6953136,10.1100917 C59.706933,9.84612244 59.6631896,9.58215313 59.5681845,9.33564743 C59.4725542,9.08938919 59.3267211,8.86493447 59.1396365,8.67606 C58.9475295,8.47877988 58.7153614,8.32339599 58.4581971,8.21999088 C58.201205,8.11722421 57.9250751,8.06886342 57.6482618,8.07893858 C57.3140353,8.0722218 56.9811757,8.13200111 56.6701879,8.25491812 C56.4047689,8.36394268 56.160041,8.51632651 55.9463722,8.70561381 C55.7536871,8.88806056 55.599471,9.10602924 55.492535,9.34706595 C55.381601,9.58695531 55.3169412,9.84499614 55.3018414,10.1080767 L59.6953136,10.1100917 L59.6953136,10.1100917 Z M100.037614,14.3886783 C100.116502,14.4469431 100.181761,14.521152 100.228991,14.6063018 C100.275469,14.6916049 100.303492,14.7863114 100.310327,14.883033 C100.317408,14.9800241 100.30319,15.0773779 100.268634,15.168496 C100.233872,15.2594568 100.179819,15.3421109 100.110064,15.4109716 C99.6726307,15.8200233 99.1682153,16.1531754 98.619373,16.3969944 C97.8253547,16.7601989 96.9601308,16.9484093 96.0843094,16.9484417 C95.2843599,16.9530209 94.4899215,16.818165 93.737889,16.5501369 C93.0311119,16.303784 92.3815949,15.9210372 91.827535,15.4244052 C91.2806048,14.9253895 90.8447313,14.3204984 90.5473587,13.6478178 C89.9230706,12.163868 89.9230706,10.4971921 90.5473587,9.01324217 C90.8447313,8.34056165 91.2806048,7.73567053 91.827535,7.23665483 C92.3806851,6.73607772 93.0302405,6.34942578 93.737889,6.09950459 C94.4899365,5.83174842 95.2844472,5.69756253 96.0843094,5.70321479 C96.805094,5.6926531 97.5204193,5.82753056 98.1860404,6.09950459 C98.8011164,6.35390395 99.3490451,6.74281683 99.7881405,7.23665483 C100.241419,7.75749369 100.585432,8.36126736 100.800389,9.01324217 C101.045874,9.76165343 101.166136,10.5442556 101.156487,11.33053 L101.156487,11.4071013 C101.15605,11.6611535 101.053916,11.9048364 100.872155,12.0854957 C100.691155,12.2651639 100.444567,12.3662541 100.187299,12.3662569 L93.4159653,12.3662569 C93.5266976,12.9492712 93.8344843,13.4784709 94.2894652,13.8681281 C94.7494085,14.2489081 95.3362462,14.4493524 95.9373591,14.430994 C96.4262591,14.4464463 96.9089946,14.3203152 97.3255268,14.068288 C97.4530203,13.9849433 97.5757763,13.8948037 97.6932443,13.7982736 C98.0978444,13.4448829 98.6979023,13.4150076 99.1367747,13.7264041 L100.037614,14.3886783 L100.037614,14.3886783 Z M97.8203734,10.1100917 C97.8320705,9.8461315 97.7888109,9.58260313 97.6932443,9.33564743 C97.5976139,9.08938919 97.4517809,8.86493447 97.2646962,8.67606 C97.0727221,8.47862573 96.8405184,8.32321801 96.5832569,8.21999088 C96.3262648,8.11722421 96.0501349,8.06886342 95.7733215,8.07893858 C95.439095,8.0722218 95.1062355,8.13200111 94.7952477,8.25491812 C94.5307371,8.3637299 94.2860478,8.51620072 94.071432,8.70561381 C93.8787469,8.88806056 93.7245307,9.10602924 93.6175948,9.34706595 C93.5066607,9.58695531 93.442001,9.84499614 93.4269011,10.1080767 L97.8203734,10.1100917 L97.8203734,10.1100917 Z M65.1215323,14.7849681 C65.1208555,14.5129386 65.1728007,14.2429242 65.2760077,13.9903734 C65.3742425,13.746531 65.521906,13.5248646 65.7100237,13.3388461 C65.8969696,13.1530335 66.1207686,13.0069461 66.3675409,12.9096441 C66.8772611,12.7086251 67.4462508,12.7086251 67.9559711,12.9096441 C68.2006604,13.0083807 68.4234781,13.1548065 68.6114378,13.3395178 C68.7990847,13.5255185 68.9464874,13.7469139 69.0447703,13.9903734 C69.2539182,14.5001768 69.2539182,15.0704311 69.0447703,15.5802344 C68.9500113,15.8233675 68.8066149,16.045365 68.6230571,16.2331051 C68.4357809,16.4191598 68.2115963,16.5642421 67.9648565,16.6609637 C67.4556566,16.8651537 66.8856261,16.8651537 66.3764262,16.6609637 C66.1293506,16.5635442 65.9053077,16.4172208 65.7182256,16.23109 C65.5321404,16.0438523 65.3849549,15.8227829 65.284893,15.5802344 C65.1785827,15.3280328 65.1231051,15.0579478 65.1215323,14.7849681 L65.1215323,14.7849681 Z M71.7295182,5.95778061 L72.9256253,5.95778061 C73.1176395,5.95777793 73.307721,5.99545694 73.4847199,6.06860742 C73.6620196,6.1419148 73.8229491,6.24871626 73.9583783,6.38295256 C74.0939593,6.51809492 74.2012428,6.67806475 74.2741506,6.85379858 C74.3479675,7.02977812 74.3848759,7.21851953 74.3848759,7.4086043 L74.4299863,7.4086043 C74.5512187,7.18304662 74.7039796,6.97527389 74.8838235,6.79133256 C75.084086,6.57706739 75.3137385,6.39168436 75.5652628,6.23988522 C75.8492378,6.0695079 76.1542872,5.9356464 76.4729372,5.84158038 C76.8340025,5.73737206 77.20867,5.68577533 77.5849751,5.68843788 C78.2846189,5.67464685 78.9766348,5.8332882 79.5978525,6.14988042 C80.1938556,6.47094233 80.6613626,6.98544739 80.9231391,7.6067492 C81.2336558,6.99112051 81.7201055,6.47783137 82.3229262,6.12973009 C82.9484034,5.8144473 83.6447467,5.65942658 84.3474229,5.67903439 C84.979003,5.65900385 85.6067079,5.78315691 86.181226,6.04174032 C86.6548844,6.26540897 87.0615608,6.60796456 87.3609294,7.03515154 C87.6616649,7.48450387 87.8721797,7.98691874 87.9829051,8.51485737 C88.1114011,9.11265046 88.1742822,9.72320543 88.1709969,10.3344321 L88.1709969,16.1263083 C88.1709969,16.2698814 88.1136471,16.4077399 88.0109281,16.5098362 C87.9086335,16.611321 87.7694297,16.6686022 87.6240729,16.6690238 L85.3842769,16.6690238 C85.3122525,16.6692559 85.2409086,16.6553251 85.1744456,16.6280515 C85.0398384,16.5725556 84.9329813,16.4670624 84.8771275,16.3345284 C84.8497879,16.268704 84.8354346,16.1975061 84.8354346,16.1263083 L84.8354346,10.4405571 C84.8477374,9.98851809 84.7363286,9.54185247 84.5128275,9.14824937 C84.2982117,8.78823016 83.9202418,8.60754888 83.3782344,8.60754888 C83.0458845,8.59747342 82.7155115,8.66130399 82.4117799,8.79427526 C82.1620027,8.91150398 81.9476311,9.0906865 81.7898042,9.31415375 C81.6275864,9.54733919 81.5142041,9.8099135 81.4562612,10.086583 C81.3879081,10.3904732 81.3544359,10.7009357 81.3564717,11.0121548 L81.3564717,16.1236216 C81.3557882,16.272734 81.2956411,16.4151297 81.1897002,16.5199114 C81.0835625,16.6245351 80.9395068,16.6834807 80.7891751,16.6838021 L78.5856041,16.6838021 C78.5112406,16.6839608 78.4375881,16.6695762 78.3689378,16.6414851 C78.3003586,16.6131552 78.238119,16.5718467 78.1857626,16.5199114 C78.1333197,16.4676357 78.0917615,16.4058054 78.0634179,16.3378868 C78.0348296,16.2699536 78.0201956,16.1971347 78.0203581,16.1236216 L78.0203581,11.0121548 L77.9978029,10.307565 C77.9848595,10.0366727 77.9321414,9.76904099 77.8412837,9.51297033 C77.7550224,9.26683634 77.6057992,9.04663859 77.4079512,8.87353322 C77.1591855,8.68034237 76.8459371,8.58547654 76.5296669,8.60754888 C76.1674173,8.58941358 75.8072182,8.66732819 75.4852945,8.83256089 C75.2269353,8.97764325 75.0150535,9.19123674 74.8728876,9.44983263 C74.7273043,9.72186207 74.6336662,10.0180719 74.5960743,10.3236852 C74.5497217,10.6596045 74.526885,10.9982541 74.5277253,11.3372468 L74.5277253,16.1363835 C74.5279966,16.2799566 74.4705077,16.417815 74.3677887,16.5199114 C74.2652652,16.6220064 74.1258333,16.679099 73.9809335,16.679099 L71.739087,16.679099 C71.5935037,16.679099 71.4547553,16.6220064 71.3522318,16.5199114 C71.2497083,16.4178164 71.1916117,16.2801225 71.1916117,16.1363835 L71.1916117,6.50049614 C71.1916117,6.35810048 71.2483413,6.22174992 71.3488143,6.11965492 C71.448722,6.01803608 71.5857468,5.95977348 71.7295182,5.95778061 Z" id="Shape"></path>
                    </g>
                </g>
            </g>
        </g>
    </g>
</svg>