<?xml version="1.0" encoding="UTF-8"?>
<svg width="51px" height="72px" viewBox="0 0 51 72" version="1.1" xmlns="http://www.w3.org/2000/svg" xmlns:xlink="http://www.w3.org/1999/xlink">
    <title>Puzzle</title>
    <g id="Homepage" stroke="none" stroke-width="1" fill="none" fill-rule="evenodd">
        <g id="Homepage-March-2024" transform="translate(-736, -1532)" stroke="#000000" stroke-width="2">
            <g id="Yellow-Value-Props" transform="translate(-4, 1301)">
                <g id="Group-28" transform="translate(722, 218)">
                    <g id="Puzzle" transform="translate(19, 14)">
                        <g id="298852_puzzle_icon" transform="translate(10, 0)" fill-rule="nonzero">
                            <path d="M28.7832373,21.9046063 C28.2519286,21.5252623 27.6970063,21.2727473 27.1276111,21.1459184 C26.7909252,21.0815518 26.4397664,21.0571763 26.0775625,21.0769814 C25.7351636,21.0960248 25.4087611,21.1409671 25.0991167,21.2110467 C24.8667882,21.2754133 24.633698,21.3592042 24.4002269,21.4620384 C23.7078118,21.767494 23.1094707,22.1521701 22.6181531,22.6172092 C22.1527344,23.1085281 21.7680593,23.7072516 21.4626045,24.3992877 C21.3597706,24.6323785 21.2759799,24.8654694 21.2116135,25.0977985 C21.1415341,25.4078245 21.096211,25.733847 21.0775486,26.0762468 C21.0577435,26.4384517 21.082119,26.7896114 21.1464854,27.1262982 C21.2733139,27.6956949 21.5258283,28.2506187 21.9051712,28.7819287 C22.0533282,28.9891206 22.2129113,29.1780308 22.3835394,29.3486594 C23.1475574,30.1115368 24.12905,30.5179223 25.2560337,30.6477981 C25.5957665,30.6866465 25.9461636,30.7117838 26.2664722,30.8184267 C26.4614758,30.8831741 26.6153458,30.9738205 26.7265588,31.0857956 C26.9798349,31.337168 27.0171598,31.6989921 26.8217754,32.1232783 C26.7018025,32.3837916 26.5285083,32.635545 26.3281725,32.8408325 L26.2219108,32.9497606 C26.0722303,33.0990606 25.9777755,33.1935157 25.9534,33.2178912 C25.8341888,33.3382453 25.7210715,33.4521247 25.6083351,33.5663849 L25.4955986,33.6775981 C25.0949272,34.0805558 24.6923514,34.4819901 24.2897756,34.8830434 C23.4229238,35.7521828 22.5541675,36.619037 21.6854113,37.4866529 C21.3997615,37.7723035 21.1141117,38.057954 20.8284619,38.3432237 C20.6966822,38.4746229 20.5591894,38.5862171 20.417888,38.6780061 C20.349332,38.7244719 20.2849656,38.7633204 20.2205992,38.7983602 C19.4741011,39.1750381 18.6426698,39.0238337 17.9643467,38.3458897 C17.7586789,38.1402214 17.5598666,37.9414086 17.3606735,37.7425958 C16.2085527,36.5904719 15.0571936,35.4375864 13.9035493,34.286986 C13.5763851,33.9605826 13.2511252,33.6364645 12.9254845,33.3123463 C12.6923942,33.0803981 12.4429268,32.8610185 12.1805098,32.6625866 C11.9626543,32.497671 11.7390857,32.3746508 11.5155171,32.2920026 C10.7096039,32.0132077 9.93834942,32.2154482 9.4333206,32.7970327 C9.2882105,32.9798491 9.16671413,33.1958009 9.07568706,33.4422221 C8.94504989,33.7949053 8.90048853,34.1837709 8.8509759,34.5604488 C8.66435137,35.9898441 7.86834062,37.1667243 6.71888588,37.7083177 C6.43399782,37.8473343 6.12892385,37.9478833 5.80861522,38.0046326 C5.50582644,38.0583349 5.20113333,38.0697609 4.90024889,38.0442428 C3.88676344,37.9928257 3.01572202,37.5456874 2.29093329,36.8037577 C2.22694774,36.7401528 2.21095135,36.7241564 2.19533583,36.70816 C1.45340811,35.9837502 1.00627098,35.1123256 0.954854016,34.0992183 C0.928955102,33.7983331 0.94076196,33.4936392 0.99446412,33.1908496 C1.05121321,32.8705401 1.15176194,32.5650845 1.29077817,32.2805766 C1.83237017,31.1311188 3.00962816,30.3354868 4.43863883,30.1488618 C4.81531569,30.0997299 5.20418027,30.0547875 5.55686254,29.92415 C5.82118381,29.826648 6.05046537,29.6937253 6.24127943,29.5345227 C6.79505915,29.0336821 6.98739668,28.2917524 6.73031187,27.5410628 C6.62443101,27.2611252 6.50179204,27.0375561 6.33687689,26.8196999 C6.13844551,26.5576632 5.91906647,26.308195 5.68711884,26.0751042 C5.36300155,25.7494626 5.03850339,25.4242018 4.71400523,25.0989411 C3.68871292,24.0713608 2.66342062,23.0468276 1.63850918,22.0222943 L1.25650019,21.6402843 C1.05768794,21.4414715 0.858494821,21.2422779 0.67529809,21.0586998 C-0.0251151903,20.3579038 -0.175938278,19.5268512 0.200738576,18.7803511 C0.235778283,18.7159845 0.274626654,18.6519988 0.318045422,18.588013 C0.412881152,18.44176 0.524475002,18.3042668 0.655873905,18.1724867 C0.941142827,17.8868362 1.22679261,17.6011856 1.5124424,17.3155351 C2.37967516,16.4467766 3.24690792,15.5780181 4.11604501,14.7111639 C4.51709731,14.308587 4.91814961,13.9060102 5.32148711,13.5053377 L5.4327001,13.392601 C5.54657915,13.2794834 5.66083906,13.1667466 5.77471811,13.053629 C5.80518742,13.0227787 5.89964228,12.9283236 6.04894191,12.7786427 L6.15786969,12.6723807 C6.36315667,12.4720445 6.61490935,12.2991307 6.87542196,12.1787766 C7.29970711,11.9833916 7.66114931,12.0207166 7.91290199,12.2739934 C8.02487671,12.3852067 8.11552291,12.5390772 8.18027019,12.7340813 C8.28653191,13.0543907 8.3116691,13.4047887 8.35089833,13.7445224 C8.48077377,14.871509 8.8871582,15.8526234 9.65003357,16.6166434 C9.82104258,16.787272 10.0095714,16.9468555 10.2167627,17.0950129 C10.7480714,17.4743568 11.3029937,17.7268719 11.8723889,17.8537007 C12.2090748,17.9180673 12.5602336,17.9424428 12.9224375,17.9226377 C13.2648364,17.9035943 13.5912389,17.858652 13.9008833,17.7885724 C14.1332118,17.7242058 14.366302,17.640415 14.5997731,17.5375808 C15.2921882,17.2321251 15.8905293,16.8474491 16.3818469,16.38241 C16.8472656,15.891091 17.2319407,15.2923675 17.5373955,14.6003315 C17.6402294,14.3672406 17.7240201,14.1341498 17.7883865,13.9018207 C17.8584659,13.5917946 17.903789,13.2657721 17.9224514,12.9233723 C17.9422565,12.5611675 17.917881,12.2100077 17.8535146,11.873321 C17.7266861,11.3039242 17.4741717,10.7490004 17.0948288,10.2176904 C16.9466718,10.0104986 16.7870887,9.82158833 16.6164606,9.65095974 C15.8524426,8.88808235 14.87095,8.48169685 13.7439663,8.35182107 C13.4042335,8.3129726 13.0538364,8.28783535 12.7335278,8.18119248 C12.5385242,8.11644502 12.3846542,8.02579858 12.2734412,7.91382357 C12.0201651,7.66245109 11.9828402,7.30062707 12.1782246,6.8763408 C12.2981975,6.61582751 12.4714917,6.36407416 12.6718275,6.15878664 L12.7780892,6.04985857 C12.9277697,5.90055855 13.0222245,5.80610344 13.0466,5.78172792 C13.1658112,5.66137383 13.2789285,5.54749448 13.3916649,5.43323426 L13.5044014,5.32202098 C13.9050728,4.91906329 14.3076486,4.51762906 14.7102244,4.1165757 C15.5770762,3.24743631 16.4458325,2.38058213 17.3145887,1.51334709 C17.6002385,1.22769654 17.8858883,0.942046003 18.1715381,0.656776328 C18.3033178,0.525377078 18.4408106,0.413782933 18.582112,0.321993892 C18.650668,0.275528071 18.7150344,0.236679597 18.7794008,0.201639797 C19.5258989,-0.175038051 20.3573302,-0.0238336977 21.0356533,0.654110256 C21.2413211,0.859778646 21.4401334,1.05859142 21.6393265,1.2574042 C22.7914473,2.40952806 23.9428064,3.56241364 25.0964507,4.71301403 C25.4236149,5.03941738 25.7488748,5.36353553 26.0745155,5.68765368 C26.3076058,5.91960192 26.5570732,6.13898154 26.8194902,6.33741345 C27.0373457,6.50232903 27.2609143,6.62534919 27.4844829,6.70799742 C28.2903961,6.98679234 29.0616506,6.78455176 29.5666794,6.20296726 C29.7117895,6.02015091 29.8332859,5.8041991 29.9243129,5.5577779 C30.0549501,5.2050947 30.0995115,4.81622909 30.1490241,4.43955124 C30.3356486,3.01015593 31.1316594,1.83327569 32.2811141,1.29168227 C32.5660022,1.15266567 32.8710762,1.05249755 33.1913848,0.995367437 C33.4941736,0.941665135 33.7988667,0.930239114 34.0997511,0.955757229 C35.1132366,1.00717433 35.984278,1.45431264 36.7090667,2.19624232 C36.7730523,2.25984717 36.7890486,2.2758436 36.8046642,2.29184003 C37.5465919,3.01624981 37.993729,3.88767439 38.045146,4.90078165 C38.0710449,5.20166689 38.059238,5.5063608 38.0055359,5.80915038 C37.9487868,6.12945985 37.8482381,6.4349155 37.7092218,6.71942344 C37.1676298,7.86888122 35.9903718,8.6645132 34.5613612,8.85113822 C34.1846843,8.90027011 33.7958197,8.94521246 33.4431375,9.07584998 C33.1788162,9.17335203 32.9495346,9.30627475 32.7587206,9.46547732 C32.2049408,9.96631793 32.0126033,10.7082476 32.2696881,11.4589372 C32.375569,11.7388748 32.498208,11.9624439 32.6631231,12.1803001 C32.8615545,12.4423368 33.0809335,12.691805 33.3128812,12.9248958 C33.6369985,13.2505374 33.9614966,13.5757982 34.2859948,13.9010589 C35.4384964,15.0562297 36.5917599,16.2075918 37.7434998,17.3597157 C37.9423121,17.5585285 38.1415052,17.7577221 38.3247019,17.9413002 C39.0251152,18.6420962 39.1759383,19.4731488 38.7992614,20.2196489 C38.7642217,20.2840155 38.7253733,20.3480012 38.6819546,20.411987 C38.5871188,20.55824 38.475525,20.6957332 38.3441261,20.8275133 C38.0588572,21.1131638 37.7732074,21.3988144 37.4875576,21.6844649 C36.6203248,22.5532234 35.7530921,23.4219819 34.883955,24.2888361 C34.4829027,24.691413 34.0818504,25.0939898 33.6785129,25.4946623 L33.5672999,25.607399 C33.4534209,25.7205166 33.3391609,25.8332534 33.2252819,25.946371 C33.1948126,25.9772213 33.1003577,26.0716764 32.9510581,26.2213573 L32.8421303,26.3276193 C32.6368433,26.5279555 32.3850906,26.7008693 32.124578,26.8212234 C31.7002929,27.0166084 31.3388507,26.9792834 31.087098,26.7260066 C30.9751233,26.6147933 30.8844771,26.4609228 30.8197298,26.2659187 C30.7134681,25.9456093 30.6883309,25.5952113 30.6491017,25.2554776 C30.5192262,24.128491 30.1128418,23.1473766 29.3499664,22.3833566 C29.1793383,22.2123471 28.9904286,22.0523828 28.7832373,21.9046063 Z" id="Path"></path>
                        </g>
                        <polygon id="Path-88" fill="#FBF6ED" stroke-linejoin="round" points="0 33.2272727 7.23322289 69.2272727 36.0425318 69.2272727 43.1818182 33.2272727"></polygon>
                    </g>
                </g>
            </g>
        </g>
    </g>
</svg>