<?xml version="1.0" encoding="UTF-8"?>
<svg width="358px" height="295px" viewBox="0 0 358 295" version="1.1" xmlns="http://www.w3.org/2000/svg" xmlns:xlink="http://www.w3.org/1999/xlink">
    <title>Group 19</title>
    <g id="Wordpress-PAge" stroke="none" stroke-width="1" fill="none" fill-rule="evenodd">
        <g id="Medium-Copy-7" transform="translate(-218.000000, -1619.000000)">
            <g id="Group-19" transform="translate(219.000000, 1619.000000)">
                <circle id="Oval" fill="#FBFBED" cx="198" cy="178" r="117"></circle>
                <circle id="Oval" stroke="#000000" cx="258" cy="85" r="42.5"></circle>
                <circle id="Oval" stroke="#000000" cx="177.5" cy="269.5" r="17"></circle>
                <circle id="Oval" stroke="#000000" cx="63" cy="156" r="9.5"></circle>
                <path d="M182,268 C246.617316,268 299,215.617316 299,151 C299,86.3826843 246.617316,34 182,34 C117.382684,34 65,86.3826843 65,151 C65,215.617316 117.382684,268 182,268 Z" id="Oval" stroke="#000000" stroke-dasharray="4"></path>
                <g id="Group-4" transform="translate(23.000000, 0.000000)">
                    <path d="M127.779,16.925 L127.852071,16.9928648 C129.40916,18.3701727 131.371495,19.0761251 133.75394,19.0761251 C137.802739,19.0761251 141.204751,20.7899749 143.97789,24.1798252 C145.470765,32.6363959 147.921261,38.6935342 151.251672,42.3966603 C152.892243,44.2208314 154.710582,45.8426739 156.707015,47.2617332 L141.065838,43.2802091 C144.008807,50.9766079 147.466665,56.3382238 151.376271,59.4190236 C151.499599,59.6881181 151.289674,59.6943753 151.055668,59.6943753 C148.436519,59.6943753 143.267167,58.8291052 135.545989,57.1281213 L143.601239,68.9971011 C114.505997,95.1249249 87.8346817,109.355978 63.5519978,111.589009 C40.2334315,113.733379 20.0100946,107.473982 2.8902397,92.8037601 C42.9109817,95.5750298 71.7315799,87.8635536 89.4468209,69.8582047 C106.82826,52.1921243 116.492132,40.6115408 118.585999,35.171974 L126.461067,35.171974 C125.910995,31.5128542 124.618419,27.9033027 122.575875,24.3461577 L122.503,24.223 L122.560587,24.2652913 C124.320498,25.5603306 126.947803,27.7512276 130.449091,30.8276178 L130.827574,31.1606189 L127.779,16.925 Z" id="Path-26" stroke="#000000" stroke-width="2" fill="#FCDD56"></path>
                    <path d="M160,6 C123.37777,55.2575329 94.3682263,84.0013774 72.9713676,92.2315334 C51.5745088,100.461689 36.584053,103.491275 28,101.320289" id="Path-23" stroke="#000000" stroke-width="2"></path>
                    <polygon id="Path-27" points="143 21 155.831572 0 160 0 145.392833 21"></polygon>
                    <line x1="133" y1="42" x2="138" y2="52" id="Path-28" stroke="#000000"></line>
                    <line x1="125" y1="50" x2="131" y2="62" id="Path-29" stroke="#000000"></line>
                    <line x1="119" y1="57" x2="124" y2="72" id="Path-30" stroke="#000000"></line>
                    <line x1="112" y1="64" x2="115" y2="81" id="Path-31" stroke="#000000"></line>
                    <line x1="102" y1="73" x2="104" y2="86" id="Path-32" stroke="#000000"></line>
                    <line x1="91.5" y1="82" x2="91.5" y2="91" id="Path-33" stroke="#000000"></line>
                    <line x1="96" y1="80" x2="89" y2="77" id="Path-34" stroke="#000000"></line>
                    <line x1="104" y1="70" x2="98" y2="68" id="Path-35" stroke="#000000"></line>
                    <line x1="109" y1="66" x2="102" y2="63" id="Path-36" stroke="#000000"></line>
                    <line x1="116" y1="58" x2="109" y2="57" id="Path-37" stroke="#000000"></line>
                    <line x1="124" y1="52" x2="115" y2="50" id="Path-38" stroke="#000000"></line>
                    <line x1="129" y1="44" x2="123" y2="42" id="Path-39" stroke="#000000"></line>
                </g>
                <g id="Group-5" transform="translate(141.000000, 177.000000)">
                    <path d="M0,19.3585848 C6.81144165,6.45286161 18.4983719,0 35.0607907,0 C51.6232095,0 63.2696126,6.45286161 70,19.3585848 C61.1060201,29.7861949 49.4393535,35 35,35 C20.5606465,35 8.89397987,29.7861949 0,19.3585848 Z" id="Path-41" stroke="#000000" stroke-width="2"></path>
                    <circle id="Oval" fill="#000000" cx="35" cy="18" r="18"></circle>
                    <circle id="Oval" fill="#FFFFFF" cx="39.5" cy="10.5" r="5.5"></circle>
                    <circle id="Oval" fill="#FFFFFF" cx="33.5" cy="18.5" r="2.5"></circle>
                </g>
                <g id="Group-3" transform="translate(236.000000, 75.000000)">
                    <path d="M59.5,0 C92.3609426,0 119,26.6390574 119,59.5 C119,92.3609426 92.3609426,119 59.5,119 C26.6390574,119 0,92.3609426 0,59.5 C0,26.6390574 26.6390574,0 59.5,0 Z M60,10 C32.3857625,10 10,32.3857625 10,60 C10,87.6142375 32.3857625,110 60,110 C87.6142375,110 110,87.6142375 110,60 C110,32.3857625 87.6142375,10 60,10 Z" id="Combined-Shape" fill="#FCDD56"></path>
                    <path d="M32.5782471,38 C45.5609265,40.9022698 54.8768885,42.3534046 60.5261331,42.3534046 C66.1753777,42.3534046 76,40.9022698 90,38 C93.3333333,38.0792282 95,39.5303631 95,42.3534046 C95,46.5879669 90.214035,48.2960281 87.028183,48.2960281 C83.8423309,48.2960281 67.8082949,49.5523365 69,51.7859802 C70.1917051,54.019624 72.9891261,69.7778201 72.9891261,72.8598421 C72.9891261,74.9145234 75.4006959,81.7948497 80.2238356,93.500821 C80.706163,96.6301158 79.905482,98.7965088 77.8217926,100 C75.7381032,101.203491 73.7082876,100.657455 71.7323456,98.3618927 L61.5293462,71.1365333 L51,98.3618927 C48.2817891,100.546036 46.2112935,101.092072 44.7885132,100 C43.3657328,98.9079285 42.7402374,96.7415355 42.9120269,93.500821 L51,71.1365333 C52.501316,58.7930945 52.501316,52.3429101 51,51.7859802 C49.498684,51.2290503 42.8187796,49.824303 30.9602868,47.5717384 C28.3200956,46.995119 27,45.2556744 27,42.3534046 C27,39.4511349 28.8594157,38 32.5782471,38 Z" id="Path-40" fill="#FCDD56"></path>
                    <circle id="Oval" fill="#FCDD56" cx="60.5" cy="30.5" r="9.5"></circle>
                    <g id="accessibility-icon" transform="translate(1.000000, 1.000000)" fill-rule="nonzero" stroke="#000000" stroke-width="2">
                        <path d="M59.480545,0 C87.8665758,-0.00805541395 112.304874,20.0379763 117.848488,47.8775998 C123.392103,75.7172232 108.496858,103.595712 82.2729853,114.462024 C56.0491123,125.328336 25.8012698,116.155661 10.0296436,92.5541899 C-5.74198266,68.952719 -2.64420645,37.4966417 17.4283103,17.4251243 C28.5666876,6.24955587 43.7022447,-0.0221221785 59.480545,0 Z" id="Path"></path>
                        <path d="M59.6129496,71.8598421 L50.9795296,95.8022158 C50.550748,97.0142056 49.6536783,98.0017944 48.4907895,98.5420831 C46.7223789,99.3742355 44.6284988,99.05383 43.1875125,97.7305757 C41.7465262,96.4073214 41.2429293,94.3424699 41.9120269,92.500821 L47.9313053,75.771172 C48.4089842,74.5122998 48.7863736,73.2173672 49.05992,71.8985681 C49.303178,70.5595617 49.4770448,69.2087886 49.5808191,67.851697 C49.8123298,65.402275 49.9763165,62.7495413 50.1017181,60.2033042 C50.2271198,57.6570672 50.3139363,55.1882822 50.3814602,53.1454836 C50.4682768,50.5992465 49.7833909,50.4346608 47.748026,49.9505853 L47.3235897,49.8537702 L29.9602868,46.5717384 C28.6990732,46.3484774 27.5781116,45.6309497 26.8445385,44.5773474 C25.7410325,42.9611494 25.717034,40.8367085 26.7837466,39.1958155 C27.8504592,37.5549225 29.797505,36.7211957 31.7159096,37.0838588 L50.371814,40.5982469 C51.1145775,40.6660174 51.8380484,40.753151 52.6001045,40.8402846 C54.8958717,41.1560083 57.209059,41.3273825 59.5261331,41.3534046 C62.4104393,41.2968762 65.2894249,41.0803253 68.1499069,40.7047435 C69.018072,40.6079284 69.8380058,40.5014318 70.6579395,40.4239797 L88.2623994,37.1129033 C89.5113105,36.8529661 90.8119616,37.1001222 91.8797542,37.8002905 C92.9487459,38.5262551 93.6832216,39.651959 93.9188956,40.9256078 C94.1545697,42.1992567 93.8717765,43.5145719 93.1337705,44.5773474 C92.4101598,45.6376196 91.2961651,46.3655797 90.0373148,46.6007829 L73.2142036,49.7763182 C72.6547194,49.9021778 72.1531128,49.9893114 71.709384,50.057082 C69.9537611,50.3572088 69.085596,50.5121129 69.1917051,53.019624 C69.2688753,54.8494293 69.4907397,57.0374505 69.7801281,59.3222868 C70.1177479,62.0040651 70.5614767,64.8504289 71.0244981,67.4547551 C71.3235328,69.1683823 71.6032749,70.5431567 71.9891261,71.8598421 C72.3749773,73.1765274 72.7511822,74.5222573 73.3299589,76.1390694 L79.2238356,92.500821 C79.8929333,94.3424699 79.3893364,96.4073214 77.9483501,97.7305757 C76.5073638,99.05383 74.4134837,99.3742355 72.6450731,98.5420831 C71.4821843,98.0017944 70.5851146,97.0142056 70.156333,95.8022158 L61.4939741,71.9082496 L60.5293462,70.1365333 L59.5647182,71.8598421 L59.6129496,71.8598421 Z" id="Path"></path>
                        <path d="M58.9919768,20 C63.2856056,19.9963546 66.983834,23.0263667 67.8247976,27.2368628 C68.6657612,31.4473588 66.415216,35.665537 62.4496124,37.3115276 C58.4840087,38.9575183 53.9079357,37.5728432 51.520154,34.00438 C49.1323723,30.4359168 49.5979806,25.6776341 52.6322094,22.6397335 C54.3158228,20.9477157 56.6050469,19.9975346 58.9919768,20 Z" id="Path"></path>
                        <path d="M93.7065833,24.4095714 C77.2030602,7.85103648 51.3000255,5.25842255 31.8420668,18.2176016 C12.384108,31.1767807 4.79203977,56.0774405 13.7098425,77.6881349 C22.6276453,99.2988292 45.5708984,111.59901 68.5054787,107.0648 C91.4400589,102.530589 107.976596,82.425177 108,59.0468124 C108.028543,46.0602424 102.885362,33.5966676 93.7065833,24.4095714 L93.7065833,24.4095714 Z" id="Path"></path>
                    </g>
                </g>
                <rect id="Rectangle" stroke="#000000" stroke-width="2" fill="#FCDD56" x="51.2592593" y="191" width="40.3703704" height="18.3703704" rx="5"></rect>
                <rect id="Rectangle" stroke="#000000" stroke-width="2" fill="#FCDD56" x="96.0740741" y="191" width="40.3703704" height="18.3703704" rx="5"></rect>
                <rect id="Rectangle" stroke="#000000" stroke-width="2" fill="#FCDD56" x="74.8888889" y="213.814815" width="40.3703704" height="18.3703704" rx="5"></rect>
                <rect id="Rectangle" stroke="#000000" stroke-width="2" fill="#FCDD56" x="120.518519" y="213.814815" width="40.3703704" height="18.3703704" rx="5"></rect>
                <rect id="Rectangle" stroke="#000000" stroke-width="2" fill="#FCDD56" x="29.2592593" y="213.814815" width="40.3703704" height="18.3703704" rx="5"></rect>
                <rect id="Rectangle" stroke="#000000" stroke-width="2" fill="#FCDD56" x="51.2592593" y="236.62963" width="40.3703704" height="18.3703704" rx="5"></rect>
                <rect id="Rectangle" stroke="#000000" stroke-width="2" fill="#FCDD56" x="99.3333333" y="236.62963" width="40.3703704" height="18.3703704" rx="5"></rect>
                <rect id="Rectangle" stroke="#000000" stroke-width="2" fill="#FCDD56" x="4" y="191" width="40.3703704" height="18.3703704" rx="5"></rect>
                <rect id="Rectangle" stroke="#000000" stroke-width="2" fill="#FCDD56" x="69.2592593" y="168" width="40.3703704" height="18.3703704" rx="5"></rect>
                <rect id="Rectangle" stroke="#000000" stroke-width="2" fill="#FCDD56" x="114.074074" y="168" width="40.3703704" height="18.3703704" rx="5"></rect>
                <rect id="Rectangle" stroke="#000000" stroke-width="2" fill="#FCDD56" x="22" y="168" width="40.3703704" height="18.3703704" rx="5"></rect>
                <line x1="208.068848" y1="190" x2="218.073914" y2="182" id="Path-42" stroke="#000000" stroke-width="2"></line>
                <line x1="204.610199" y1="187.37037" x2="211" y2="182" id="Path-43" stroke="#000000" stroke-width="2"></line>
                <line x1="19" y1="82.9875412" x2="9.74578857" y2="72.2802277" id="Path-44" stroke="#000000" stroke-width="2"></line>
                <line x1="13.3728943" y1="85.594265" x2="0" y2="80.676506" id="Path-45" stroke="#000000" stroke-width="2"></line>
                <line x1="13.7457886" y1="91" x2="5" y2="91" id="Path-46" stroke="#000000" stroke-width="2"></line>
                <circle id="Oval" fill="#000000" cx="251" cy="228" r="5"></circle>
                <circle id="Oval" fill="#000000" cx="76" cy="67" r="5"></circle>
                <circle id="Oval" fill="#000000" cx="233.5" cy="31.5" r="2.5"></circle>
                <circle id="Oval" fill="#000000" cx="80.5" cy="267.5" r="2.5"></circle>
            </g>
        </g>
    </g>
</svg>