<?xml version="1.0" encoding="UTF-8"?>
<svg width="342px" height="264px" viewBox="0 0 342 264" version="1.1" xmlns="http://www.w3.org/2000/svg" xmlns:xlink="http://www.w3.org/1999/xlink">
    <title>Group 18</title>
    <g id="Wordpress-PAge" stroke="none" stroke-width="1" fill="none" fill-rule="evenodd">
        <g id="Medium-Copy-7" transform="translate(-815.000000, -1977.000000)">
            <g id="Group-18" transform="translate(817.000000, 1978.000000)">
                <path d="M187,262 C259.349302,262 318,203.349302 318,131 C318,58.6506978 259.349302,0 187,0 C114.650698,0 56,58.6506978 56,131 C56,203.349302 114.650698,262 187,262 Z" id="Oval" stroke="#000000" stroke-dasharray="4"></path>
                <rect id="Rectangle" stroke="#000000" stroke-width="2" fill="#000000" x="169" y="218" width="169" height="26" rx="4"></rect>
                <rect id="Rectangle" stroke="#000000" stroke-width="2" fill="#FBFBED" x="167" y="216" width="169" height="26" rx="4"></rect>
                <g id="Group-7" transform="translate(0.000000, 44.000000)">
                    <rect id="Rectangle" stroke="#000000" stroke-width="2" fill="#FBFBED" x="5" y="5" width="149" height="106" rx="7.01117318"></rect>
                    <rect id="Rectangle" stroke="#000000" stroke-width="2" fill="#FFFFFF" x="0" y="0" width="149" height="106" rx="7.01117318"></rect>
                    <path d="M6.60893855,1 L142.391061,1 C145.488793,1 148,3.51120732 148,6.60893855 L148,16 L148,16 L1,16 L1,6.60893855 C1,3.51120732 3.51120732,1 6.60893855,1 Z" id="Rectangle" fill="#FBFBED"></path>
                    <line x1="0" y1="15" x2="149" y2="15" id="Path-43" stroke="#000000" stroke-width="2"></line>
                    <path d="M0,16 L31,16 L31,105 L4.20670391,105 C1.88340549,105 2.84521997e-16,103.116595 0,100.793296 L0,16 L0,16 Z" id="Rectangle" stroke="#000000" stroke-width="2.80446927" fill="#000000"></path>
                    <circle id="Oval" fill="#000000" cx="9" cy="7" r="3"></circle>
                    <circle id="Oval" fill="#000000" cx="19" cy="7" r="3"></circle>
                    <circle id="Oval" fill="#000000" cx="28" cy="7" r="3"></circle>
                    <line x1="6" y1="25" x2="21" y2="25" id="Path-44" stroke="#FFFFFF" stroke-width="2.80446927"></line>
                    <line x1="6" y1="31" x2="21" y2="31" id="Path-44" stroke="#FFFFFF" stroke-width="2.80446927"></line>
                    <line x1="6" y1="37" x2="21" y2="37" id="Path-44" stroke="#FFFFFF" stroke-width="2.80446927"></line>
                    <line x1="6" y1="97" x2="21" y2="97" id="Path-44" stroke="#FFFFFF" stroke-width="2.80446927"></line>
                    <circle id="Oval" stroke="#FFFFFF" stroke-width="2.80446927" cx="12.5" cy="85.5" r="4.5"></circle>
                </g>
                <path d="M119.37577,117.584433 C113.073672,109.853534 110.972973,103.678519 113.073672,99.0593857 C115.174372,94.4402527 118.083216,90.0871241 121.800206,86 C123.416496,91.8573804 123.416496,98.5857976 121.800206,106.185252 C120.183915,113.784706 119.37577,117.584433 119.37577,117.584433 Z" id="Path-54" stroke="#000000" stroke-width="3"></path>
                <circle id="Oval" stroke="#000000" cx="251" cy="28" r="17.5"></circle>
                <circle id="Oval" stroke="#000000" cx="117.5" cy="221.5" r="9"></circle>
                <rect id="Rectangle" stroke="#000000" stroke-width="2" fill="#000000" x="169" y="70" width="169" height="26" rx="4"></rect>
                <rect id="Rectangle" stroke="#000000" stroke-width="2" fill="#000000" x="169" y="105" width="169" height="26" rx="4"></rect>
                <rect id="Rectangle" stroke="#000000" stroke-width="2" fill="#000000" x="169" y="143" width="169" height="26" rx="4"></rect>
                <rect id="Rectangle" stroke="#000000" stroke-width="2" fill="#000000" x="169" y="180" width="169" height="26" rx="4"></rect>
                <rect id="Rectangle" stroke="#000000" stroke-width="2" fill="#FBFBED" x="167" y="68" width="169" height="26" rx="4"></rect>
                <rect id="Rectangle" stroke="#000000" stroke-width="2" fill="#FBFBED" x="167" y="104" width="169" height="26" rx="4"></rect>
                <rect id="Rectangle" stroke="#000000" stroke-width="2" fill="#FBFBED" x="167" y="141" width="169" height="26" rx="4"></rect>
                <rect id="Rectangle" stroke="#000000" stroke-width="2" fill="#FBFBED" x="167" y="178" width="169" height="26" rx="4"></rect>
                <circle id="Oval" fill="#000000" cx="108.5" cy="12.5" r="2.5"></circle>
                <line x1="181.5" y1="81" x2="272.371582" y2="81" id="Path-57" stroke="#000000" stroke-width="2"></line>
                <line x1="318" y1="81" x2="292.371582" y2="81" id="Path-57" stroke="#000000" stroke-width="2"></line>
                <line x1="181.5" y1="117" x2="272.371582" y2="117" id="Path-57" stroke="#000000" stroke-width="2"></line>
                <line x1="318" y1="117" x2="292.371582" y2="117" id="Path-57" stroke="#000000" stroke-width="2"></line>
                <line x1="181.5" y1="154" x2="272.371582" y2="154" id="Path-57" stroke="#000000" stroke-width="2"></line>
                <line x1="318" y1="154" x2="292.371582" y2="154" id="Path-57" stroke="#000000" stroke-width="2"></line>
                <line x1="181.5" y1="192" x2="272.371582" y2="192" id="Path-57" stroke="#000000" stroke-width="2"></line>
                <line x1="318" y1="192" x2="292.371582" y2="192" id="Path-57" stroke="#000000" stroke-width="2"></line>
                <line x1="181.5" y1="229" x2="272.371582" y2="229" id="Path-57" stroke="#000000" stroke-width="2"></line>
                <line x1="318" y1="229" x2="292.371582" y2="229" id="Path-57" stroke="#000000" stroke-width="2"></line>
                <g id="Group-6" transform="translate(49.000000, 117.000000)" stroke="#000000">
                    <path d="M79.6760253,1.5 L96.0644866,20.1678917 C96.7292981,20.9358775 97.6949577,21.3771625 98.7107216,21.3771625 L185,21.3771625 L185.5,75 L10,75.5 L9.5,21.8771625 L76.4316232,21.3771625 C77.3981215,21.3771625 78.2731215,20.9854117 78.9064969,20.3520363 C79.5398723,19.7186609 79.9316232,18.8436609 79.9316232,17.8771625 C79.9316232,17.3539915 79.8143379,16.8374754 79.5883948,16.3656093 L72.8131236,2.21593617 L79.6760253,1.5 Z" id="Path-47" stroke-width="3" fill="#FCDD56"></path>
                    <ellipse id="Oval" stroke-width="3" fill="#FFFFFF" cx="7.5" cy="48.5" rx="6" ry="27"></ellipse>
                    <path d="M71.9730224,54 C50.8441559,52.6255484 44.9531453,50.7786846 54.2999907,48.4594086 C68.3202587,44.9804944 103.03242,48.4594086 125.412376,51.2297043 C140.332347,53.0765681 154.194888,54 167,54" id="Path-48"></path>
                    <path d="M44.3903516,61 C18.4218344,46.5831719 16.0982261,39.3747579 37.4195265,39.3747579 C69.4014772,39.3747579 162.883122,51.6812446 167.286196,43.9127787 C170.221579,38.7338014 169.386195,33.7628752 164.780043,29" id="Path-49"></path>
                    <path d="M18.7884977,33.4676975 C15.4624647,27 22.6588109,25.3830756 40.3775363,28.6169244 C58.0962617,31.8507731 93.6370829,35.3117983 147,39" id="Path-50"></path>
                    <path d="M22,61 C44.1906435,70 63.3206554,72.25 79.3900355,67.75 C95.4594156,63.25 119.99607,62.5 153,65.5" id="Path-51"></path>
                    <path d="M119,24 C126.250621,28 133.550859,30 140.900715,30 C148.25057,30 153.283665,29 156,27" id="Path-52"></path>
                    <path d="M187,67.5797898 C184.555587,64.3977544 179.702923,63.337076 172.442007,64.3977544 C165.181091,65.4584329 155.033755,67.9925147 142,72" id="Path-53"></path>
                    <ellipse id="Oval" cx="8" cy="50" rx="1.5" ry="14.5"></ellipse>
                </g>
                <circle id="Oval" fill="#000000" cx="301" cy="31" r="9"></circle>
                <circle id="Oval" fill="#000000" cx="62.5" cy="224.5" r="6.5"></circle>
            </g>
        </g>
    </g>
</svg>