<?xml version="1.0" encoding="UTF-8"?>
<svg width="373px" height="241px" viewBox="0 0 373 241" version="1.1" xmlns="http://www.w3.org/2000/svg" xmlns:xlink="http://www.w3.org/1999/xlink">
    <title>Group 21</title>
    <g id="Wordpress-PAge" stroke="none" stroke-width="1" fill="none" fill-rule="evenodd">
        <g id="Medium-Copy-7" transform="translate(-251.000000, -869.000000)">
            <g id="Group-21" transform="translate(252.219114, 869.654866)">
                <path d="M78.1523456,132.345134 C120.592165,56.359853 206.569704,2.25436592 194.232607,38.7690845 C181.89551,75.2838032 211.530157,63.431506 241.934732,47.359853 C272.339307,31.2882 341.6644,11.2678181 324.780886,69.6207996 C307.897371,127.973781 370.619875,68.8059498 370.619875,88.3451344 C370.619875,107.884319 272.511354,254.620125 253.344362,203.98263 C234.17737,153.345134 203.825319,165.707639 167.342775,184.845134 C130.860231,203.98263 35.7125263,208.330416 78.1523456,132.345134 Z" id="Path-2" stroke="#000000" fill="#000000" stroke-linejoin="round"></path>
                <path d="M217.980531,112.609955 L216.509209,115.845134 L217.980531,119.080313 L214.745352,117.608991 L211.510173,119.080313 L212.981495,115.845134 L211.510173,112.609955 L214.745352,114.081278 L217.980531,112.609955 Z" id="Star" stroke="#FFFFFF" fill="#FFFFFF" transform="translate(214.745352, 115.845134) rotate(45.000000) translate(-214.745352, -115.845134) "></path>
                <path d="M99.9805308,147.609955 L98.5092086,150.845134 L99.9805308,154.080313 L96.7453518,152.608991 L93.5101727,154.080313 L94.9814949,150.845134 L93.5101727,147.609955 L96.7453518,149.081278 L99.9805308,147.609955 Z" id="Star" stroke="#FFFFFF" fill="#FFFFFF" transform="translate(96.745352, 150.845134) rotate(45.000000) translate(-96.745352, -150.845134) "></path>
                <path d="M291.980531,147.609955 L290.509209,150.845134 L291.980531,154.080313 L288.745352,152.608991 L285.510173,154.080313 L286.981495,150.845134 L285.510173,147.609955 L288.745352,149.081278 L291.980531,147.609955 Z" id="Star" stroke="#FFFFFF" fill="#FFFFFF" transform="translate(288.745352, 150.845134) rotate(45.000000) translate(-288.745352, -150.845134) "></path>
                <path d="M262.980531,52.6099553 L261.509209,55.8451344 L262.980531,59.0803134 L259.745352,57.6089912 L256.510173,59.0803134 L257.981495,55.8451344 L256.510173,52.6099553 L259.745352,54.0812775 L262.980531,52.6099553 Z" id="Star" stroke="#FFFFFF" fill="#FFFFFF" transform="translate(259.745352, 55.845134) rotate(45.000000) translate(-259.745352, -55.845134) "></path>
                <path d="M178.011754,66.5995476 L173.806967,75.8451344 L178.011754,85.0907211 L168.766167,80.8859346 L159.52058,85.0907211 L163.725367,75.8451344 L159.52058,66.5995476 L168.766167,70.8043341 L178.011754,66.5995476 Z" id="Star" stroke="#FFFFFF" fill="#FFFFFF" transform="translate(168.766167, 75.845134) rotate(45.000000) translate(-168.766167, -75.845134) "></path>
                <path d="M269.011754,160.599548 L264.806967,169.845134 L269.011754,179.090721 L259.766167,174.885935 L250.52058,179.090721 L254.725367,169.845134 L250.52058,160.599548 L259.766167,164.804334 L269.011754,160.599548 Z" id="Star" stroke="#FFFFFF" fill="#FFFFFF" transform="translate(259.766167, 169.845134) rotate(45.000000) translate(-259.766167, -169.845134) "></path>
                <circle id="Oval" fill="#FFFFFF" cx="112.780886" cy="119.345134" r="4"></circle>
                <circle id="Oval" fill="#FFFFFF" cx="272.280886" cy="94.8451344" r="21.5"></circle>
                <circle id="Oval" fill="#FFFFFF" cx="166.780886" cy="157.345134" r="2"></circle>
                <circle id="Oval" fill="#FFFFFF" cx="199.780886" cy="102.345134" r="2"></circle>
                <circle id="Oval" fill="#FFFFFF" cx="146.780886" cy="178.345134" r="1"></circle>
                <circle id="Oval" fill="#FFFFFF" cx="122.780886" cy="188.345134" r="1"></circle>
                <circle id="Oval" fill="#FFFFFF" cx="76.7808857" cy="179.345134" r="1"></circle>
                <circle id="Oval" fill="#FFFFFF" cx="106.780886" cy="138.345134" r="1"></circle>
                <circle id="Oval" fill="#FFFFFF" cx="96.7808857" cy="128.345134" r="1"></circle>
                <circle id="Oval" fill="#FFFFFF" cx="146.780886" cy="68.3451344" r="1"></circle>
                <circle id="Oval" fill="#FFFFFF" cx="158.780886" cy="48.3451344" r="1"></circle>
                <circle id="Oval" fill="#FFFFFF" cx="178.780886" cy="56.3451344" r="1"></circle>
                <circle id="Oval" fill="#FFFFFF" cx="215.780886" cy="75.3451344" r="1"></circle>
                <circle id="Oval" fill="#FFFFFF" cx="241.780886" cy="80.3451344" r="1"></circle>
                <circle id="Oval" fill="#FFFFFF" cx="310.780886" cy="44.3451344" r="1"></circle>
                <circle id="Oval" fill="#FFFFFF" cx="291.780886" cy="67.3451344" r="1"></circle>
                <circle id="Oval" fill="#FFFFFF" cx="351.780886" cy="99.3451344" r="1"></circle>
                <circle id="Oval" fill="#FFFFFF" cx="337.780886" cy="102.345134" r="1"></circle>
                <circle id="Oval" fill="#FFFFFF" cx="324.780886" cy="148.345134" r="1"></circle>
                <circle id="Oval" fill="#FFFFFF" cx="297.780886" cy="118.345134" r="1"></circle>
                <circle id="Oval" fill="#FFFFFF" cx="241.780886" cy="137.345134" r="1"></circle>
                <circle id="Oval" fill="#FFFFFF" cx="236.780886" cy="152.345134" r="1"></circle>
                <circle id="Oval" fill="#FFFFFF" cx="260.780886" cy="201.345134" r="1"></circle>
                <circle id="Oval" fill="#FFFFFF" cx="196.780886" cy="158.345134" r="1"></circle>
                <circle id="Oval" fill="#FFFFFF" cx="176.780886" cy="128.345134" r="1"></circle>
                <circle id="Oval" fill="#FFFFFF" cx="279.780886" cy="43.3451344" r="2"></circle>
                <circle id="Oval" fill="#FFFFFF" cx="290.780886" cy="190.345134" r="2"></circle>
                <circle id="Oval" fill="#FFFFFF" cx="335.780886" cy="134.345134" r="2"></circle>
                <circle id="Oval" fill="#FFFFFF" cx="324.780886" cy="113.345134" r="2"></circle>
                <ellipse id="Oval" stroke="#FFFFFF" stroke-width="2" cx="272.339307" cy="95.711801" rx="30.6333333" ry="6.36666667"></ellipse>
                <ellipse id="Oval" stroke="#FFFFFF" stroke-width="2" cx="271.934732" cy="97.8451344" rx="39" ry="8.5"></ellipse>
                <path d="M106.780886,50.3451344 C148.525441,-0.00327059326 170.455657,-12.5879187 172.571535,12.59119 C175.745352,50.359853 156.201196,79.2013187 184.230633,67.3390377 C212.26007,55.4767567 325.784761,-17.5794643 316.780886,32.5999943" id="Path-3" stroke="#000000" stroke-dasharray="4"></path>
                <path d="M356.895449,151.345134 C332.96631,186.359853 300.301701,217.739788 261.780886,225.200451 C223.26007,232.661113 232.801292,172.197399 179.515963,196.022075 C126.230633,219.846752 38.164218,208.527355 7.89709661,192.345134 C-22.3700247,176.162914 44.1229725,155.679882 44.1229725,179.345134 C44.1229725,195.121969 34.3905201,210.407075 14.9256153,225.200451" id="Path-4" stroke="#000000" stroke-dasharray="4"></path>
                <rect id="Rectangle" stroke="#000000" stroke-width="3" fill="#FCDD56" x="100.280886" y="176.845134" width="11" height="62"></rect>
                <path d="M109.280886,69.8451344 C124.192574,69.8451344 137.692574,75.8892902 147.464652,85.6613682 C157.23673,95.4334461 163.280886,108.933446 163.280886,123.845134 C163.280886,138.756823 157.23673,152.256823 147.464652,162.028901 C137.692574,171.800978 124.192574,177.845134 109.280886,177.845134 C94.3691974,177.845134 80.8691974,171.800978 71.0971195,162.028901 C61.3250415,152.256823 55.2808857,138.756823 55.2808857,123.845134 C55.2808857,108.933446 61.3250415,95.4334461 71.0971195,85.6613682 C80.8691974,75.8892902 94.3691974,69.8451344 109.280886,69.8451344 Z M109.780886,80.8451344 C97.7686924,80.8451344 86.8936924,85.7140377 79.0217407,93.5859894 C71.149789,101.457941 66.2808857,112.332941 66.2808857,124.345134 C66.2808857,136.357328 71.149789,147.232328 79.0217407,155.104279 C86.8936924,162.976231 97.7686924,167.845134 109.780886,167.845134 C121.793079,167.845134 132.668079,162.976231 140.540031,155.104279 C148.411982,147.232328 153.280886,136.357328 153.280886,124.345134 C153.280886,112.332941 148.411982,101.457941 140.540031,93.5859894 C132.668079,85.7140377 121.793079,80.8451344 109.780886,80.8451344 Z" id="Combined-Shape" stroke="#000000" stroke-width="3" fill="#FCDD56"></path>
                <path d="M126.040536,94.8451344 C131.621784,95.8451344 147.048856,112.878572 144.26007,127.619213 C141.471285,142.359853 126.040536,155.345134 119.874483,150.845134 C113.70843,146.345134 143.545799,133.839038 137.71509,115.845134 C131.884381,97.851231 120.459289,93.8451344 126.040536,94.8451344 Z" id="Path-5" stroke="#FFFFFF" stroke-width="2" fill="#FFFFFF"></path>
                <circle id="Oval" fill-opacity="0.2" fill="#FFFFFF" cx="109.780886" cy="124.345134" r="42"></circle>
                <path d="M92.1249714,91.3451344 C97.0858196,91.3451344 106.232027,86.4251344 116.780886,89.4251344 C127.329744,92.4251344 87.1641231,91.3451344 92.1249714,91.3451344 Z" id="Path-6" fill="#FFFFFF"></path>
                <line x1="52.7808857" y1="90.4556174" x2="43.5926532" y2="75.9094908" id="Path-7" stroke="#000000" stroke-width="2"></line>
                <line x1="49.1867695" y1="95.8451344" x2="21.9339313" y2="84.8451344" id="Path-8" stroke="#000000" stroke-width="2"></line>
                <line x1="48.1867695" y1="104.359853" x2="28.1307239" y2="102.351231" id="Path-9" stroke="#000000" stroke-width="2"></line>
            </g>
        </g>
    </g>
</svg>