<?xml version="1.0" encoding="UTF-8"?>
<svg width="362px" height="244px" viewBox="0 0 362 244" version="1.1" xmlns="http://www.w3.org/2000/svg" xmlns:xlink="http://www.w3.org/1999/xlink">
    <title>Group 20</title>
    <g id="Wordpress-PAge" stroke="none" stroke-width="1" fill="none" fill-rule="evenodd">
        <g id="Medium-Copy-7" transform="translate(-805.000000, -1197.000000)">
            <g id="Group-20" transform="translate(805.000000, 1197.765729)">
                <g id="Group-2" transform="translate(0.000000, 65.234271)" stroke="#000000">
                    <circle id="Oval" stroke-width="0.558558559" fill="#000000" cx="32" cy="32" r="29.7207207"></circle>
                    <circle id="Oval" stroke-width="0.558558559" fill="#FBFBED" cx="30" cy="30" r="29.7207207"></circle>
                    <circle id="Oval" stroke-width="1.67567568" cx="30" cy="29" r="25"></circle>
                    <path d="M11,13 C15.9452283,15.6666667 22.3128217,17 30.1027803,17 C37.892739,17 44.1918122,15.6666667 49,13" id="Path-17" stroke-width="1.67567568"></path>
                    <path d="M11,42 C15.9452283,44.6666667 22.3128217,46 30.1027803,46 C37.892739,46 44.1918122,44.6666667 49,42" id="Path-17" stroke-width="1.67567568" transform="translate(30.000000, 44.000000) scale(1, -1) translate(-30.000000, -44.000000) "></path>
                    <ellipse id="Oval" stroke-width="1.67567568" cx="29.5" cy="29" rx="10.5" ry="25"></ellipse>
                    <line x1="5" y1="29.5" x2="55" y2="29.5" id="Path-18" stroke-width="1.67567568"></line>
                </g>
                <g id="Group-2" transform="translate(318.000000, 64.234271)" stroke="#000000">
                    <circle id="Oval" stroke-width="0.558558559" fill="#000000" cx="22.5" cy="22.5" r="21.2207207"></circle>
                    <circle id="Oval" stroke-width="0.558558559" fill="#FBFBED" cx="21.5" cy="21.5" r="21.2207207"></circle>
                    <circle id="Oval" stroke-width="1.67567568" cx="21.5" cy="20.5" r="17.5"></circle>
                    <path d="M8,9 C11.5137148,11 16.0380575,12 21.5730281,12 C27.1079987,12 31.583656,11 35,9" id="Path-17" stroke-width="1.67567568"></path>
                    <path d="M8,30 C11.5137148,32 16.0380575,33 21.5730281,33 C27.1079987,33 31.583656,32 35,30" id="Path-17" stroke-width="1.67567568" transform="translate(21.500000, 31.500000) scale(1, -1) translate(-21.500000, -31.500000) "></path>
                    <ellipse id="Oval" stroke-width="1.67567568" cx="20.5" cy="20.5" rx="7.5" ry="17.5"></ellipse>
                    <line x1="4" y1="20.5" x2="39" y2="20.5" id="Path-18" stroke-width="1.67567568"></line>
                </g>
                <g id="Group-2" transform="translate(255.000000, 154.234271)" stroke="#000000">
                    <circle id="Oval" stroke-width="0.558558559" fill="#000000" cx="41.5" cy="41.5" r="38.2207207"></circle>
                    <circle id="Oval" stroke-width="0.558558559" fill="#FBFBED" cx="38.5" cy="38.5" r="38.2207207"></circle>
                    <circle id="Oval" stroke-width="1.67567568" cx="38.5" cy="37.5" r="32.5"></circle>
                    <path d="M14,17 C20.3767417,20.3333333 28.5875859,22 38.6325326,22 C48.6774792,22 56.7999684,20.3333333 63,17" id="Path-17" stroke-width="1.67567568"></path>
                    <path d="M14,54 C20.3767417,57.3333333 28.5875859,59 38.6325326,59 C48.6774792,59 56.7999684,57.3333333 63,54" id="Path-17" stroke-width="1.67567568" transform="translate(38.500000, 56.500000) scale(1, -1) translate(-38.500000, -56.500000) "></path>
                    <ellipse id="Oval" stroke-width="1.67567568" cx="38.5" cy="37.5" rx="13.5" ry="32.5"></ellipse>
                    <line x1="6" y1="38.5" x2="71" y2="38.5" id="Path-18" stroke-width="1.67567568"></line>
                </g>
                <g id="Group-2" transform="translate(226.000000, 6.234271)" stroke="#000000">
                    <circle id="Oval" stroke-width="0.558558559" fill="#000000" cx="36" cy="36" r="32.7207207"></circle>
                    <circle id="Oval" stroke-width="0.558558559" fill="#FBFBED" cx="33" cy="33" r="32.7207207"></circle>
                    <circle id="Oval" stroke-width="1.67567568" cx="33" cy="32" r="28"></circle>
                    <path d="M12,15 C17.4657786,17.6666667 24.5036451,19 33.1135993,19 C41.7235536,19 48.6856872,17.6666667 54,15" id="Path-17" stroke-width="1.67567568"></path>
                    <path d="M12,47 C17.4657786,49.6666667 24.5036451,51 33.1135993,51 C41.7235536,51 48.6856872,49.6666667 54,47" id="Path-17" stroke-width="1.67567568" transform="translate(33.000000, 49.000000) scale(1, -1) translate(-33.000000, -49.000000) "></path>
                    <ellipse id="Oval" stroke-width="1.67567568" cx="33.5" cy="32" rx="11.5" ry="28"></ellipse>
                    <line x1="5" y1="33.5" x2="61" y2="33.5" id="Path-18" stroke-width="1.67567568"></line>
                </g>
                <circle id="Oval" fill="#FBFBED" cx="123.5" cy="74.7342705" r="49.5"></circle>
                <g id="Group-2" transform="translate(92.000000, 140.234271)" stroke="#000000">
                    <circle id="Oval" stroke-width="0.558558559" fill="#000000" cx="29.5" cy="29.5" r="27.2207207"></circle>
                    <circle id="Oval" stroke-width="0.558558559" fill="#FBFBED" cx="27.5" cy="27.5" r="27.2207207"></circle>
                    <circle id="Oval" stroke-width="1.67567568" cx="27" cy="26" r="23"></circle>
                    <path d="M10,13 C14.5548155,15 20.4197042,16 27.5946661,16 C34.769628,16 40.571406,15 45,13" id="Path-17" stroke-width="1.67567568"></path>
                    <path d="M10,39 C14.5548155,41 20.4197042,42 27.5946661,42 C34.769628,42 40.571406,41 45,39" id="Path-17" stroke-width="1.67567568" transform="translate(27.500000, 40.500000) scale(1, -1) translate(-27.500000, -40.500000) "></path>
                    <ellipse id="Oval" stroke-width="1.67567568" cx="27.5" cy="26" rx="9.5" ry="23"></ellipse>
                    <line x1="4" y1="27.5" x2="50" y2="27.5" id="Path-18" stroke-width="1.67567568"></line>
                </g>
                <g id="Group" transform="translate(197.500000, 137.234271) rotate(-45.000000) translate(-197.500000, -137.234271) translate(163.000000, 35.234271)">
                    <path d="M45.7757601,104.446066 L44.3013083,194.671832 L36.6388675,201.940916 L28.5595938,193.84089 L25.1299416,193.84089 L25.1299416,189.307958 L26.5603181,186.149639 L25.1299416,181.122401 L25.1299416,173.321481 C26.0150111,171.161822 26.4687644,168.661961 26.4687644,165.816748 C26.4687644,163.329142 25.6732853,162.091666 24.8682824,160.940703 C24.2312486,160.019427 23.7911187,159.34976 23.7911187,158.118626 C23.7911187,157.097253 24.1259629,156.733989 24.4969928,156.322095 L24.6502972,156.152254 C25.5017949,155.206368 26.4687644,154.017538 26.4687644,150.165799 C26.4687644,146.305722 25.4738401,144.313291 24.6411287,142.654366 C24.2081016,141.79169 23.7911187,141.060211 23.7911187,140.029146 C23.7911187,138.032152 24.7392803,134.946509 26.5315789,130.759425 L23.7911187,117.520048 L23.7911187,104.446066 L45.7757601,104.446066 Z" id="Path-10" stroke="#000000" stroke-width="2.94851651" fill="#FCDD56"></path>
                    <path d="M58.6801922,42.7117695 C61.1228233,42.7117695 63.3342107,43.7018413 64.9349403,45.302571 C66.5356699,46.9033006 67.5257417,49.114688 67.5257417,51.557319 L67.5257417,80.9799042 C67.5257417,86.6793767 65.2155741,91.8392806 61.4805383,95.5743164 C57.7455025,99.3093522 52.5855986,101.61952 46.8861262,101.61952 L22.1138738,101.61952 C16.4144014,101.61952 11.2544975,99.3093522 7.5194617,95.5743164 C3.78442592,91.8392806 1.47425826,86.6793767 1.47425826,80.9799042 L1.47425826,51.557319 C1.47425826,49.114688 2.46433011,46.9033006 4.06505973,45.302571 C5.66578935,43.7018413 7.87717673,42.7117695 10.3198078,42.7117695 L58.6801922,42.7117695 Z M34.5,45.654326 C31.0518553,45.654326 27.9299326,47.0560615 25.6701863,49.3230164 C23.4121365,51.5882692 22.0151034,54.7175765 22.0151034,58.1743462 C22.0151034,61.6311159 23.4121365,64.7604232 25.6701863,67.025676 C27.9299326,69.2926309 31.0518553,70.6943664 34.5,70.6943664 C37.9481447,70.6943664 41.0700674,69.2926309 43.3298137,67.025676 C45.5878635,64.7604232 46.9848966,61.6311159 46.9848966,58.1743462 C46.9848966,54.7175765 45.5878635,51.5882692 43.3298137,49.3230164 C41.0700674,47.0560615 37.9481447,45.654326 34.5,45.654326 Z" id="Combined-Shape" stroke="#000000" stroke-width="2.94851651" fill="#FCDD56"></path>
                    <path d="M54.2759369,43.4474086 C56.9221205,43.4474086 59.3177902,44.5199865 61.051914,46.2541102 C62.7860377,47.988234 63.8586156,50.3839036 63.8586156,53.0300873 L63.8586156,76.5615995 C63.8586156,82.4646245 61.4659419,87.8088107 57.597512,91.6772406 C53.7290821,95.5456705 48.3848959,97.9383442 42.4818708,97.9383442 L23.5819589,97.9383442 C17.6789339,97.9383442 12.3347477,95.5456705 8.4663178,91.6772406 C4.59788788,87.8088107 2.20521423,82.4646245 2.20521423,76.5615995 L2.20521423,53.0300873 C2.20521423,50.3839036 3.27779208,47.988234 5.01191583,46.2541102 C6.74603959,44.5199865 9.14170925,43.4474086 11.7878929,43.4474086 L54.2759369,43.4474086 Z M32.2978723,46.3914551 C29.2562483,46.3914551 26.5024679,47.6280698 24.5091634,49.6277328 C22.5167073,51.6265448 21.2841475,54.3878226 21.2841475,57.4379621 C21.2841475,60.4881015 22.5167073,63.2493794 24.5091634,65.2481913 C26.5024679,67.2478544 29.2562483,68.484469 32.2978723,68.484469 C35.3394963,68.484469 38.0932768,67.2478544 40.0865813,65.2481913 C42.0790373,63.2493794 43.3115972,60.4881015 43.3115972,57.4379621 C43.3115972,54.3878226 42.0790373,51.6265448 40.0865813,49.6277328 C38.0932768,47.6280698 35.3394963,46.3914551 32.2978723,46.3914551 Z" id="Combined-Shape" stroke="#000000" stroke-width="1.47425826" fill="#FCDD56"></path>
                    <path d="M57.6110647,42.7228161 C61.06948,38.2407624 63.1276596,32.6164191 63.1276596,26.5098286 C63.1276596,11.8688546 51.2965459,0 36.7021277,0 C22.1077094,0 10.2765957,11.8688546 10.2765957,26.5098286 C10.2765957,41.1508027 22.1077094,53.0196573 36.7021277,53.0196573 C38.5017328,53.0196573 40.2593225,52.8391937 41.9578957,52.4953216" id="Path" stroke="#000000" stroke-width="1.47425826"></path>
                    <line x1="30.0957447" y1="100.884626" x2="30.0484904" y2="196.470108" id="Path-11" stroke="#000000" stroke-width="1.47425826"></line>
                    <line x1="37.4361702" y1="102.357394" x2="37.0330172" y2="202.527232" id="Path-12" stroke="#000000" stroke-width="1.47425826"></line>
                    <path d="M16.2428868,47.1285843 C12.3425838,47.1285843 9.59623394,48.1104298 8.0038371,50.0741208 C5.61524184,53.0196573 5.73107845,66.4848034 8.0038371,77.1310576 C10.2765957,87.7773118 18.2638336,93.9943283 18.2638336,89.7579397 C18.2638336,85.5215511 10.2765957,77.4781815 10.2765957,65.2489194 C10.2765957,57.096078 12.2653594,51.0559663 16.2428868,47.1285843 Z" id="Path-14" fill="#FFFFFF"></path>
                    <polygon id="Path-15" fill="#FFFFFF" points="33.0319149 192.291272 33.0319149 142.195443 34.7955838 142.195443 34.7955838 196.470108"></polygon>
                    <polygon id="Path-15" fill="#FFFFFF" points="38.9042553 190.350884 38.9042553 169.96028 40.6679243 169.96028 40.6679243 192.051803"></polygon>
                </g>
                <circle id="Oval" stroke="#000000" cx="63" cy="212.234271" r="24.5"></circle>
                <circle id="Oval" stroke="#000000" cx="278.5" cy="106.734271" r="18"></circle>
                <circle id="Oval" fill="#000000" cx="173.5" cy="193.734271" r="9.5"></circle>
                <circle id="Oval" fill="#000000" cx="199.5" cy="27.7342705" r="4.5"></circle>
                <circle id="Oval" stroke="#000000" cx="325.5" cy="27.7342705" r="4"></circle>
                <circle id="Oval" stroke="#000000" cx="160.5" cy="238.734271" r="4"></circle>
                <circle id="Oval" fill="#000000" cx="37.5" cy="149.734271" r="4.5"></circle>
                <circle id="Oval" fill="#000000" cx="322" cy="134.234271" r="3"></circle>
                <path d="M22,59.2342705 C37,15.4712904 66.3333333,-4.04223399 110,0.693697409 C153.666667,5.42962881 179.385102,28.9431532 187.155307,71.2342705" id="Path-19" stroke="#000000" stroke-dasharray="4"></path>
                <path d="M178.312319,158.240566 C173.000917,165.236369 168.374391,169.567604 164.432741,171.234271 C160.491092,172.900937 155.984962,173.734271 150.914353,173.734271" id="Path-20" stroke="#000000" stroke-dasharray="4"></path>
                <path d="M204,88.2342705 C203.412153,80.4199348 205.336877,74.2996842 209.77417,69.8735187 C214.211463,65.4473533 219.620073,62.9009372 226,62.2342705" id="Path-21" stroke="#000000" stroke-dasharray="4"></path>
                <path d="M227.374897,139.559861 C245.791632,136.676134 260.333333,136.900937 271,140.234271 C281.666667,143.567604 287,146.734271 287,149.734271" id="Path-22" stroke="#000000" stroke-dasharray="4"></path>
                <path d="M129,116.138196 C103.482137,113.848784 86.1026713,120.98721 76.8616028,137.553475 C67.6205343,154.11974 64.5756632,169.013338 67.7269897,182.234271" id="Path-24" stroke="#000000" stroke-dasharray="4"></path>
                <path d="M216.43011,105.234271 C255.208215,112.234271 283.346775,114.234271 300.845788,111.234271 C318.344802,108.234271 329.872909,104.567604 335.43011,100.234271" id="Path-25" stroke="#000000" stroke-dasharray="4"></path>
            </g>
        </g>
    </g>
</svg>