<?xml version="1.0" encoding="UTF-8"?>
<svg width="218px" height="256px" viewBox="0 0 218 256" version="1.1" xmlns="http://www.w3.org/2000/svg" xmlns:xlink="http://www.w3.org/1999/xlink">
    <title>Group 7</title>
    <g id="About-Page" stroke="none" stroke-width="1" fill="none" fill-rule="evenodd">
        <g id="Old-About-Page-Copy" transform="translate(-135.000000, -767.000000)">
            <g id="Group-7" transform="translate(135.673991, 767.170052)">
                <circle id="Oval" stroke="#060606" fill="#F1F1E5" cx="36.3260091" cy="164.829948" r="27.5"></circle>
                <circle id="Oval" stroke="#060606" fill="#F1F1E5" cx="106.326009" cy="28.8299484" r="27.5"></circle>
                <circle id="Oval" fill="#000000" cx="180.326009" cy="56.8299484" r="28"></circle>
                <circle id="Oval" fill="#000000" cx="119.326009" cy="227.829948" r="12"></circle>
                <circle id="Oval" stroke="#060606" fill="#F1F1E5" cx="190.826009" cy="130.329948" r="13"></circle>
                <circle id="Oval" fill="#FCDD56" cx="149.326009" cy="105.829948" r="42"></circle>
                <path d="M62.1392721,74.7658005 C60.3551698,56.5208074 61.0720568,45.4550902 64.2899329,41.568649 C67.0629781,38.2194595 75.090044,38.8299484 84.8220418,38.8299484 C95.5488763,38.8299484 103.812093,38.8327484 106.268706,43.231666 C107.906448,46.1642777 108.053321,56.6756558 106.709325,74.7658005" id="Path-8" stroke="#000000" stroke-width="3" fill="#FFFFFF"></path>
                <polyline id="Path-7" stroke="#000000" stroke-width="3" fill="#FFFFFF" points="46.068807 105.829948 62.1392721 74.7658005 106.709325 74.7658005 123.575277 105.974144"></polyline>
                <polygon id="Path-13" stroke="#000000" stroke-width="2" points="105.175008 168.986338 201.323903 168.986338 157.516649 212.187795 157.516649 234.464799 170.912828 247.116814 135.92797 247.116814 148.037693 234.464799 148.037693 212.187795"></polygon>
                <polygon id="Path-14" stroke="#000000" stroke-width="2" points="128.079711 186.450461 151.881754 210.289287 176.874564 186.450461"></polygon>
                <line x1="191.133072" y1="150.116814" x2="139.600905" y2="190.514822" id="Path-15" stroke="#000000" stroke-width="2"></line>
                <circle id="Oval" stroke="#000000" stroke-width="2" fill="#FFFFFF" cx="152.03336" cy="181.166342" r="8.1454015"></circle>
                <polygon id="Path-6" stroke="#000000" stroke-width="3" fill="#FFFFFF" points="46.068807 105.974144 57.018575 208.492058 110.039907 208.492058 123.575277 105.974144"></polygon>
                <polygon id="Path-9" stroke="#000000" stroke-width="3" points="92.688619 115.195869 105.532659 115.195869 99.1106389 189.789787 92.688619 189.789787"></polygon>
                <polyline id="Path-10" stroke="#000000" stroke-width="3" points="84.0775808 115.195869 84.0775808 189.789787 80.5835899 189.789787"></polyline>
                <polygon id="Path-11" stroke="#000000" stroke-width="3" points="92.688619 65.6423721 92.688619 45.7450409 99.1106389 45.7450409 99.1106389 65.6423721"></polygon>
                <line x1="86.5835899" y1="45.7450409" x2="86.8220418" y2="65.6423721" id="Path-12" stroke="#000000" stroke-width="3"></line>
                <circle id="Oval" fill="#FCDD56" cx="36.3260091" cy="45.8299484" r="22"></circle>
                <line x1="40.3260091" y1="101.575127" x2="23.8260091" y2="98.3299484" id="Path-16" stroke="#000000"></line>
                <line x1="41.5405629" y1="94.9633865" x2="32.8250631" y2="90.3699722" id="Path-17" stroke="#000000"></line>
                <line x1="46.068807" y1="92.471489" x2="36.3260091" y2="79.7658005" id="Path-18" stroke="#000000"></line>
                <line x1="125.326009" y1="92.6666794" x2="147.326009" y2="45.8299484" id="Path-19" stroke="#000000"></line>
                <line x1="133.888814" y1="98.3299484" x2="149.326009" y2="79.7658005" id="Path-20" stroke="#000000"></line>
                <line x1="134.326009" y1="105.974144" x2="158.404165" y2="99.9525375" id="Path-21" stroke="#000000"></line>
                <line x1="133.888814" y1="115.195869" x2="171.326009" y2="121.555687" id="Path-22" stroke="#000000"></line>
                <g id="Group-5" transform="translate(158.326009, 0.000000)" stroke="#000000">
                    <line x1="19.0510406" y1="13.2744751" x2="28.5" y2="13.3299484" id="Path-25"></line>
                    <line x1="7.91833496" y1="13.2744751" x2="0.5" y2="13.3299484" id="Path-26"></line>
                    <line x1="14.0830612" y1="9.42034149" x2="14.0830612" y2="0" id="Path-27"></line>
                    <line x1="14.0830612" y1="27.4203415" x2="14.0830612" y2="18" id="Path-27"></line>
                </g>
                <g id="Group-5" transform="translate(7.326009, 210.829948)" stroke="#000000" stroke-width="2">
                    <line x1="32" y1="21.75" x2="47.118335" y2="21.83321" id="Path-25"></line>
                    <line x1="12.8672943" y1="21.75" x2="0.8125" y2="21.83321" id="Path-26"></line>
                    <line x1="23" y1="15" x2="23" y2="0" id="Path-27"></line>
                    <line x1="23" y1="45" x2="23" y2="30" id="Path-27"></line>
                </g>
                <path d="M14.3260091,59.8020859 C3.55271368e-15,80.0035019 -3.58150228,95.3461227 3.58150228,105.829948 C10.7445068,116.313774 22.9926758,120.495717 40.3260091,118.375778" id="Path-23" stroke="#000000" stroke-dasharray="4"></path>
                <path d="M131.326009,13.7101707 C137.992676,21.9150734 139.659342,32.621666 136.326009,45.8299484 C132.992676,59.0382309 125.20636,68.6835149 112.967061,74.7658005" id="Path-24" stroke="#000000" stroke-dasharray="4"></path>
                <path d="M204.326009,74.7658005 C212.519653,84.3197556 216.616475,93.7189356 216.616475,102.963341 C216.616475,112.207746 212.519653,121.329948 204.326009,130.329948" id="Path-28" stroke="#000000" stroke-dasharray="4"></path>
                <path d="M182.101529,141.329948 C173.481943,151.93205 161.890103,157.233101 147.326009,157.233101 C132.761915,157.233101 123.428582,152.765383 119.326009,143.829948" id="Path-29" stroke="#000000" stroke-dasharray="4"></path>
                <path d="M31.3260091,192.829948 C32.4978027,208.087273 39.0513916,216.587273 50.9867757,218.329948 C62.9221598,220.072624 72.0352376,216.793327 78.3260091,208.492058" id="Path-30" stroke="#000000" stroke-dasharray="4"></path>
                <path d="M86.8220418,210.829948 C86.4517466,220.537916 88.4072723,227.204582 92.688619,230.829948 C96.9699656,234.455315 102.818273,235.288648 110.233541,233.329948" id="Path-32" stroke="#000000" stroke-dasharray="4"></path>
            </g>
        </g>
    </g>
</svg>