<?xml version="1.0" encoding="UTF-8"?>
<svg width="45px" height="96px" viewBox="0 0 45 96" version="1.1" xmlns="http://www.w3.org/2000/svg" xmlns:xlink="http://www.w3.org/1999/xlink">
    <title>Group 7</title>
    <g id="About-Page" stroke="none" stroke-width="1" fill="none" fill-rule="evenodd">
        <g id="Old-About-Page-Copy" transform="translate(-704.000000, -4265.000000)">
            <g id="Group-7" transform="translate(706.000000, 4267.000000)">
                <polygon id="Path-2" fill="#FCDD56" points="2.30357143 26.8007089 18.1777353 6.16393443 43 26.8007089 39.9647892 76.5745717 20.5512973 94 2.30357143 74.3487897"></polygon>
                <polygon id="Path-2" stroke="#000000" stroke-width="2.31147541" points="0 20.6367744 15.8741639 0 40.6964286 20.6367744 37.6612178 70.4106373 18.2477259 87.8360656 0 68.1848553"></polygon>
                <polygon id="Path-3" stroke="#000000" stroke-width="2.31147541" points="17.4989302 16.1803279 9.98214286 27.9272686 9.98214286 60.9205411 17.4989302 69.3442623 28.4107143 60.9205411 28.4107143 27.9272686"></polygon>
                <line x1="15.3571429" y1="0" x2="17.5" y2="17.5" id="Path-4" stroke="#000000" stroke-width="2.31147541"></line>
                <line x1="28.4107143" y1="27.7377049" x2="41.4642857" y2="20.8032787" id="Path-5" stroke="#000000" stroke-width="2.31147541"></line>
                <line x1="28.4107143" y1="60.8688525" x2="37.5" y2="69.5" id="Path-6" stroke="#000000" stroke-width="2.31147541"></line>
                <line x1="17.5" y1="69.5" x2="18.4285714" y2="87.8360656" id="Path-7" stroke="#000000" stroke-width="2.31147541"></line>
                <line x1="9.98214286" y1="60.8688525" x2="0" y2="69.3442623" id="Path-8" stroke="#000000" stroke-width="2.31147541"></line>
                <line x1="9.98214286" y1="27.7377049" x2="0" y2="20.8032787" id="Path-9" stroke="#000000" stroke-width="2.31147541"></line>
            </g>
        </g>
    </g>
</svg>