<?xml version="1.0" encoding="UTF-8"?>
<svg width="113px" height="109px" viewBox="0 0 113 109" version="1.1" xmlns="http://www.w3.org/2000/svg" xmlns:xlink="http://www.w3.org/1999/xlink">
    <title>Group 17</title>
    <g id="About-Page" stroke="none" stroke-width="1" fill="none" fill-rule="evenodd">
        <g id="Old-About-Page-Copy" transform="translate(-1077.000000, -1883.000000)" stroke="#000000" stroke-width="2">
            <g id="Group-17" transform="translate(1077.000000, 1883.000000)">
                <rect id="Rectangle" fill="#FCDD56" x="5.44554455" y="5.08583886" width="105.821782" height="102.914161" rx="5"></rect>
                <rect id="Rectangle" fill="#FFFFFF" x="1" y="1" width="105.821782" height="102.914161" rx="5"></rect>
                <g id="Group-12" transform="translate(49.500000, 54.500000) scale(-1, 1) translate(-49.500000, -54.500000) translate(16.000000, 23.000000)">
                    <polyline id="Path-51" stroke-linecap="round" stroke-linejoin="round" points="67 0 55.4581734 0 41.7393975 53 11 53"></polyline>
                    <polyline id="Path-52" stroke-linecap="round" stroke-linejoin="round" points="52 9 0 9 10.3792212 35 45.4452429 35"></polyline>
                    <line x1="13" y1="9" x2="18" y2="35" id="Path-53" stroke-linecap="round" stroke-linejoin="round"></line>
                    <line x1="26.5" y1="9" x2="26.5" y2="35" id="Path-54" stroke-linecap="round" stroke-linejoin="round"></line>
                    <line x1="38.5" y1="9" x2="38.5" y2="35" id="Path-55" stroke-linecap="round" stroke-linejoin="round"></line>
                    <line x1="5" y1="17.5" x2="50" y2="17.5" id="Path-56" stroke-linecap="round" stroke-linejoin="round"></line>
                    <line x1="9" y1="26.5" x2="48" y2="26.5" id="Path-57" stroke-linecap="round" stroke-linejoin="round"></line>
                    <circle id="Oval" cx="12.5" cy="57.5" r="4.5"></circle>
                    <circle id="Oval" cx="38.5" cy="57.5" r="4.5"></circle>
                </g>
                <circle id="Oval" fill="#FCDD56" cx="75.1485149" cy="26.1386139" r="15.3366337"></circle>
                <line x1="75.1485149" y1="21.1162257" x2="75.1485149" y2="31.9602098" id="Path-58" stroke-linecap="round" stroke-linejoin="round"></line>
            </g>
        </g>
    </g>
</svg>