<?xml version="1.0" encoding="UTF-8"?>
<svg width="103px" height="127px" viewBox="0 0 103 127" version="1.1" xmlns="http://www.w3.org/2000/svg" xmlns:xlink="http://www.w3.org/1999/xlink">
    <title>Group 16</title>
    <g id="About-Page" stroke="none" stroke-width="1" fill="none" fill-rule="evenodd">
        <g id="Old-About-Page-Copy" transform="translate(-819.000000, -1867.000000)" stroke="#000000">
            <g id="Group-10" transform="translate(819.000000, 1867.000000)">
                <rect id="Rectangle" stroke-width="2" fill="#FCDD56" x="5" y="23" width="97" height="103" rx="5"></rect>
                <rect id="Rectangle" stroke-width="2" fill="#FFFFFF" x="1" y="19" width="97" height="103" rx="5"></rect>
                <rect id="Rectangle" stroke-width="2" fill="#FCDD56" x="26" y="97" width="50" height="13" rx="6.5"></rect>
                <g id="Group" transform="translate(10.000000, 4.000000)">
                    <circle id="Oval" stroke-width="2" fill="#FFFFFF" cx="28" cy="28" r="27"></circle>
                    <circle id="Oval" fill="#000000" cx="27.5555556" cy="25.7777778" r="10.1666667"></circle>
                    <path d="M8.88164605,47.1111111 C12.256845,40 18.6296296,36.4444444 28,36.4444444 C37.3703704,36.4444444 43.2728226,40 45.7073568,47.1111111 C40.1246745,53.037037 34.3703704,56 28.4444444,56 C22.5185185,56 15.9975857,53.037037 8.88164605,47.1111111 Z" id="Path-44" fill="#000000"></path>
                </g>
                <g id="Group-9" transform="translate(54.000000, 0.000000)" stroke-width="2">
                    <circle id="Oval" fill="#FCDD56" cx="14" cy="14" r="13"></circle>
                    <line x1="14" y1="9.14274597" x2="14" y2="20.0474548" id="Path-45"></line>
                    <line x1="8.28165817" y1="14.5951004" x2="20.5625" y2="14.4375" id="Path-46"></line>
                </g>
                <line x1="12" y1="76.5" x2="56.2414587" y2="76.813324" id="Path-47" stroke-width="2"></line>
                <line x1="61" y1="76.5" x2="87.2262878" y2="76.813324" id="Path-47" stroke-width="2"></line>
                <line x1="12" y1="86.5" x2="88" y2="86.5" id="Path-47" stroke-width="2"></line>
                <line x1="12" y1="66.5" x2="88" y2="66.5" id="Path-47" stroke-width="2"></line>
                <line x1="12" y1="56.5" x2="88" y2="56.5" id="Path-47" stroke-width="2"></line>
            </g>
        </g>
    </g>
</svg>