<?xml version="1.0" encoding="UTF-8"?>
<svg width="133px" height="105px" viewBox="0 0 133 105" version="1.1" xmlns="http://www.w3.org/2000/svg" xmlns:xlink="http://www.w3.org/1999/xlink">
    <title>Group 15</title>
    <g id="About-Page" stroke="none" stroke-width="1" fill="none" fill-rule="evenodd">
        <g id="Old-About-Page-Copy" transform="translate(-524.000000, -1891.000000)" stroke="#000000" stroke-width="2">
            <g id="Group-15" transform="translate(524.000000, 1891.000000)">
                <path d="M128.22079,5.11305203 C129.049217,5.11305203 129.799217,5.44883847 130.342111,5.99173168 C130.885004,6.5346249 131.22079,7.2846249 131.22079,8.11305203 L131.22079,80.9472082 C131.22079,81.7756353 130.885004,82.5256353 130.342111,83.0685286 C129.799217,83.6114218 129.049217,83.9472082 128.22079,83.9472082 L68.9251948,83.9472082 C68.2988773,83.9472082 67.6781353,84.0648813 67.0952712,84.2941039 L20.9224818,102.45245 C20.665498,102.553514 20.3918785,102.540847 20.1572391,102.438668 C19.9225996,102.336489 19.7269402,102.144798 19.6258763,101.887814 C19.5370011,101.661824 19.5333965,101.411215 19.6157353,101.182761 L25.8277509,83.9472082 L8.11305203,83.9472082 C7.2846249,83.9472082 6.5346249,83.6114218 5.99173168,83.0685286 C5.44883847,82.5256353 5.11305203,81.7756353 5.11305203,80.9472082 L5.11305203,8.11305203 C5.11305203,7.2846249 5.44883847,6.5346249 5.99173168,5.99173168 C6.5346249,5.44883847 7.2846249,5.11305203 8.11305203,5.11305203 Z" id="Path-59" fill="#FCDD56"></path>
                <path d="M124.107738,1 C124.936165,1 125.686165,1.33578644 126.229059,1.87867966 C126.771952,2.42157288 127.107738,3.17157288 127.107738,4 L127.107738,76.8341562 C127.107738,77.6625833 126.771952,78.4125833 126.229059,78.9554765 C125.686165,79.4983698 124.936165,79.8341562 124.107738,79.8341562 L64.8121428,79.8341562 C64.1858253,79.8341562 63.5650833,79.9518293 62.9822192,80.1810519 L16.8094298,98.3393984 C16.552446,98.4404623 16.2788265,98.4277952 16.0441871,98.3256161 C15.8095476,98.2234371 15.6138881,98.0317461 15.5128242,97.7747623 C15.4239491,97.5487717 15.4203445,97.2981626 15.5026833,97.0697094 L21.7146989,79.8341562 L4,79.8341562 C3.17157288,79.8341562 2.42157288,79.4983698 1.87867966,78.9554765 C1.33578644,78.4125833 1,77.6625833 1,76.8341562 L1,4 C1,3.17157288 1.33578644,2.42157288 1.87867966,1.87867966 C2.42157288,1.33578644 3.17157288,1 4,1 Z" id="Path-59" fill="#FFFFFF"></path>
                <line x1="14.3956821" y1="53.9838079" x2="115.165457" y2="54.4979394" id="Path-47"></line>
                <line x1="14.3956821" y1="64.2664379" x2="89.9730131" y2="64.7805694" id="Path-47"></line>
                <line x1="14.3956821" y1="43.7011778" x2="115.165457" y2="43.7011778" id="Path-47"></line>
                <path d="M23.6500492,11.3007918 L26.7800602,16.8892896 C27.0659381,17.3997121 27.560969,17.7593731 28.1347507,17.8735299 L34.4169546,19.1234065 L30.0692039,23.8271647 C29.6721045,24.2567799 29.4830195,24.8387237 29.5517582,25.4196989 L30.3043627,31.780663 L24.487294,29.0992476 C23.9559951,28.8543419 23.3441032,28.8543419 22.8128044,29.0992476 L16.9957356,31.780663 L17.7483401,25.4196989 C17.8170789,24.8387237 17.6279939,24.2567799 17.2308944,23.8271647 L12.8831437,19.1234065 L19.1653476,17.8735299 C19.7391293,17.7593731 20.2341603,17.3997121 20.5200381,16.8892896 L23.6500492,11.3007918 Z" id="Star" fill="#FCDD56"></path>
                <path d="M50.3848873,11.3007918 L53.5148984,16.8892896 C53.8007763,17.3997121 54.2958072,17.7593731 54.8695889,17.8735299 L61.1517928,19.1234065 L56.8040421,23.8271647 C56.4069426,24.2567799 56.2178576,24.8387237 56.2865964,25.4196989 L57.0392009,31.780663 L51.2221321,29.0992476 C50.6908333,28.8543419 50.0789414,28.8543419 49.5476426,29.0992476 L43.7305738,31.780663 L44.4831783,25.4196989 C44.551917,24.8387237 44.362832,24.2567799 43.9657326,23.8271647 L39.6179819,19.1234065 L45.9001858,17.8735299 C46.4739675,17.7593731 46.9689984,17.3997121 47.2548763,16.8892896 L50.3848873,11.3007918 Z" id="Star" fill="#FCDD56"></path>
                <path d="M77.1197255,11.3007918 L80.2497366,16.8892896 C80.5356144,17.3997121 81.0306454,17.7593731 81.6044271,17.8735299 L87.886631,19.1234065 L83.5388803,23.8271647 C83.1417808,24.2567799 82.9526958,24.8387237 83.0214346,25.4196989 L83.7740391,31.780663 L77.9569703,29.0992476 C77.4256715,28.8543419 76.8137796,28.8543419 76.2824807,29.0992476 L70.465412,31.780663 L71.2180165,25.4196989 C71.2867552,24.8387237 71.0976702,24.2567799 70.7005708,23.8271647 L66.3528201,19.1234065 L72.635024,17.8735299 C73.2088057,17.7593731 73.7038366,17.3997121 73.9897145,16.8892896 L77.1197255,11.3007918 Z" id="Star" fill="#FCDD56"></path>
                <path d="M102.899748,11.3007918 L106.029759,16.8892896 C106.315637,17.3997121 106.810668,17.7593731 107.38445,17.8735299 L113.666654,19.1234065 L109.318903,23.8271647 C108.921803,24.2567799 108.732718,24.8387237 108.801457,25.4196989 L109.554062,31.780663 L103.736993,29.0992476 C103.205694,28.8543419 102.593802,28.8543419 102.062503,29.0992476 L96.2454345,31.780663 L96.998039,25.4196989 C97.0667778,24.8387237 96.8776928,24.2567799 96.4805933,23.8271647 L92.1328426,19.1234065 L98.4150465,17.8735299 C98.9888282,17.7593731 99.4838592,17.3997121 99.769737,16.8892896 L102.899748,11.3007918 Z" id="Star" fill="#FCDD56"></path>
            </g>
        </g>
    </g>
</svg>