<?xml version="1.0" encoding="UTF-8"?>
<svg width="182px" height="50px" viewBox="0 0 182 50" version="1.1" xmlns="http://www.w3.org/2000/svg" xmlns:xlink="http://www.w3.org/1999/xlink">
    <title>zapier-logo_black</title>
    <g id="About-Page" stroke="none" stroke-width="1" fill="none" fill-rule="evenodd">
        <g id="Old-About-Page-Copy" transform="translate(-842.000000, -2197.000000)" fill-rule="nonzero">
            <g id="zapier-logo_black" transform="translate(842.000000, 2197.000000)">
                <polygon id="Path" fill="#201515" points="43.0213924 33.9039143 42.9965936 33.8231486 58.7463432 19.095941 58.7463432 12 33.4784052 12 33.4784052 19.095941 48.5710208 19.095941 48.5958196 19.1639332 33 33.9039143 33 41 59 41 59 33.9039143"></polygon>
                <path d="M74.8174185,11 C71.9093658,11 69.5393045,11.4598102 67.7072348,12.3794307 C66.0010029,13.1808746 64.5634131,14.5013467 63.5814549,16.1695669 C62.6422673,17.8487562 62.0523147,19.7172726 61.850833,21.6524185 L69.5004221,22.7794872 C69.7771944,21.0708001 70.3307389,19.8596478 71.1607021,19.1459932 C72.1044849,18.3995798 73.2674232,18.022445 74.4480354,18.0798842 C76.000505,18.0798842 77.1266817,18.5150512 77.8269191,19.385311 C78.5200869,20.2556078 78.8728566,21.4609791 78.8728566,23.0492662 L78.8728566,23.8412234 L71.5177136,23.8412234 C67.7736885,23.8412234 65.0840843,24.7115202 63.4489011,26.4521139 C61.8133645,28.1927076 60.9971868,30.4903135 61.0000073,33.3448945 C61.0000073,36.2690697 61.8161923,38.4449044 63.4489011,39.8719911 C65.0812565,41.2994484 67.1346026,42.0087301 69.608586,41.9999189 C72.6771171,41.9999189 75.0376345,40.8932975 76.6894311,38.6798493 C77.6650267,37.3194662 78.3617293,35.7624928 78.7357076,34.1063904 L79.0138938,34.1063904 L80.0683148,41.3731929 L86.9999927,41.3731929 L86.9999927,22.9709636 C86.9999927,19.167746 86.0438383,16.2218181 84.1318828,14.1331057 C82.2195739,12.0443933 79.1149881,11 74.8174185,11 Z M77.2415617,33.6843047 C76.1415422,34.6459485 74.7014782,35.124621 72.9082909,35.124621 C71.4304048,35.124621 70.4039085,34.8533967 69.8284485,34.310911 C69.5481415,34.0542504 69.3247442,33.736 69.1748701,33.3787651 C69.024996,33.0215673 68.9518263,32.6340934 68.9610167,32.2439514 C68.9444033,31.8760069 68.9998991,31.5083959 69.1232625,31.1635382 C69.2466258,30.8186805 69.4357359,30.5037654 69.6789278,30.2379144 C69.9419145,29.9792897 70.252267,29.779253 70.5912512,29.649885 C70.9302353,29.52048 71.2904281,29.4644119 71.6506208,29.48509 L78.8852283,29.48509 L78.8852283,29.9855154 C78.9000743,30.6928701 78.7593906,31.3942956 78.4744884,32.0356138 C78.1892327,32.676932 77.767535,33.2410222 77.2415617,33.6843047 Z" id="Shape" fill="#201515"></path>
                <polygon id="Path" fill="#201515" points="131 12 122 12 122 41 131 41"></polygon>
                <path d="M180.5732,12 C178.171095,12 176.277382,12.8356276 174.892428,14.5069551 C173.898036,15.7080182 173.14224,17.4827271 172.625038,19.8310096 L172.375064,19.8310096 L171.263209,12 L164,12 L164,41 L172.504639,41 L172.504639,26.1281235 C172.504639,24.2528917 172.949895,22.8152852 173.840773,21.8153401 C174.731285,20.815395 176.375023,20.3154224 178.771621,20.3154224 L182,20.3154224 L182,12 L180.5732,12 Z" id="Path" fill="#201515"></path>
                <path d="M154.188774,12.7650522 C152.2501,11.5855049 149.804984,10.9971611 146.853068,11.0000103 C142.206917,11.0000103 138.570426,12.3532335 135.94431,15.0596225 C133.317835,17.7660115 132.004956,21.4969796 132.004956,26.2525635 C131.937932,29.1276688 132.551541,31.976671 133.793454,34.5568345 C134.93035,36.8560241 136.700926,38.7642555 138.88619,40.0455751 C141.085791,41.3459587 143.70223,41.9974337 146.735149,42 C149.358756,42 151.550113,41.5868248 153.30922,40.7604745 C154.963311,40.018079 156.403428,38.8544428 157.492655,37.3810169 C158.529912,35.9343539 159.300148,34.3061798 159.765372,32.5765632 L152.610667,30.5273684 C152.309597,31.6521067 151.729679,32.6782256 150.927185,33.506409 C150.118957,34.3329793 148.765218,34.7462645 146.865612,34.7462645 C144.607231,34.7462645 142.92375,34.0847443 141.815168,32.7616672 C141.011599,31.8059751 140.50659,30.4412872 140.283297,28.6719296 L159.875048,28.6719296 C159.954975,27.8453959 159.996909,27.1522735 159.996909,26.5926356 L159.996909,24.7630065 C160.04422,22.3051092 159.547814,19.8680356 158.544965,17.6339934 C157.606273,15.5988399 156.087663,13.9016322 154.188774,12.7650522 Z M146.613287,18.0041921 C149.98025,18.0041921 151.889533,19.6989161 152.341138,23.0883823 L140.430606,23.0883823 C140.61985,21.9574481 141.077906,20.8914782 141.76499,19.9845092 C142.856368,18.6614321 144.472467,18.0013417 146.613287,18.0041921 Z" id="Shape" fill="#201515"></path>
                <path d="M126.032662,0.00286569827 C125.368461,-0.0197261947 124.706547,0.0914463372 124.086169,0.329784076 C123.465791,0.568122195 122.899905,0.928748426 122.421666,1.39024694 C121.950285,1.85616667 121.580649,2.41505005 121.336385,3.03139396 C121.092121,3.64774169 120.978563,4.30809193 121.003332,4.9706261 C120.979325,5.63742902 121.093264,6.30198323 121.337528,6.92282077 C121.582174,7.54369643 121.951809,8.10751556 122.423571,8.57909902 C122.895714,9.05068247 123.459694,9.41993007 124.080453,9.66382101 C124.701593,9.90771194 125.366175,10.0209865 126.032662,9.99659359 C126.694958,10.0216344 127.355729,9.908398 127.971915,9.66412592 C128.588102,9.41989196 129.146747,9.0499202 129.612412,8.57784126 C130.074265,8.10088374 130.434755,7.53546382 130.672161,6.91554101 C130.909947,6.2956182 131.019694,5.634075 130.994925,4.9706261 C131.02541,4.31110293 130.91833,3.65245638 130.679782,3.03674897 C130.441615,2.42104537 130.077695,1.86181515 129.611268,1.39475582 C129.144461,0.927696482 128.585815,0.563075913 127.970391,0.324184379 C127.354967,0.0852939892 126.696482,-0.022608102 126.037235,0.00734554673 L126.032662,0.00286569827 Z" id="Path" fill="#201515"></path>
                <path d="M108.345549,11 C105.472856,11 103.164143,11.9169565 101.419774,13.7509065 C100.128336,15.1097238 99.1809667,17.1378276 98.5765725,19.8351438 L98.3071438,19.8351438 L97.2043063,11.8256902 L90,11.8256902 L90,50 L98.4353045,50 L98.4353045,34.2765425 L98.7433271,34.2765425 C99.0007407,35.324921 99.3615568,36.3441358 99.820678,37.3185686 C100.5343,38.9059219 101.704495,40.2364266 103.176886,41.134286 C104.703528,41.9810718 106.423139,42.4026142 108.161682,42.3556117 C111.693384,42.3556117 114.382574,40.957749 116.229617,38.1616534 C118.076296,35.3658909 119,31.4647547 119,26.4583188 C119,21.6227945 118.106516,17.8375362 116.319184,15.1025069 C114.532216,12.3675146 111.874338,11 108.345549,11 Z M109.200804,32.4947024 C108.217389,33.9433426 106.678368,34.6676628 104.583377,34.6676628 C103.719749,34.7081886 102.858669,34.5389424 102.072228,34.1739141 C101.285424,33.8088858 100.595832,33.2585861 100.060251,32.5686111 C98.9683365,31.1750415 98.4240176,29.2671828 98.4269187,26.8450719 L98.4269187,26.2801163 C98.4269187,23.8203294 98.9712492,21.9371193 100.060251,20.6304489 C101.148889,19.3238155 102.656598,18.6776972 104.583377,18.6922051 C106.715505,18.6922051 108.264357,19.3802925 109.230659,20.7564675 C110.196962,22.1326794 110.680164,24.0521222 110.680164,26.5147589 C110.685938,29.0614449 110.195505,31.0547594 109.209178,32.4947024 L109.200804,32.4947024 Z" id="Shape" fill="#201515"></path>
                <polygon id="Path" fill="#FF4F00" points="29 34 0 34 0 41 29 41"></polygon>
            </g>
        </g>
    </g>
</svg>