<?xml version="1.0" encoding="UTF-8"?>
<svg width="198px" height="41px" viewBox="0 0 198 41" version="1.1" xmlns="http://www.w3.org/2000/svg" xmlns:xlink="http://www.w3.org/1999/xlink">
    <title>Make-Logo-RGB</title>
    <defs>
        <path d="M1.08233117,0 L8.91766883,0 C9.51433858,0 10,0.468645392 10,1.04440973 L10,28.9555903 C10,29.5313546 9.51433858,30 8.91766883,30 L1.08233117,30 C0.485661425,30 0,29.5313546 0,28.9555903 L0,1.04440973 C0,0.468645392 0.485661425,0 1.08233117,0 Z" id="path-1"></path>
        <linearGradient x1="-28.078204%" y1="48.5881352%" x2="83.8303859%" y2="48.5881352%" id="linearGradient-3">
            <stop stop-color="#B02DE9" offset="0%"></stop>
            <stop stop-color="#B02DE9" offset="2%"></stop>
            <stop stop-color="#6D00CC" offset="80%"></stop>
            <stop stop-color="#6D00CC" offset="100%"></stop>
        </linearGradient>
        <path d="M13.0130817,0.586711053 L0.114659908,25.9994863 C-0.151760485,26.5247974 0.0618351747,27.1638121 0.592379232,27.4276047 L7.54457344,30.886471 C8.0751175,31.1502636 8.72049793,30.9387747 8.98691833,30.4134637 L21.8853401,5.0006884 C22.1517605,4.47537734 21.9381648,3.83636259 21.4076208,3.57257002 L14.4554266,0.113703693 C14.2992491,0.0363851816 14.1361814,0 13.9731138,0 C13.5803734,0 13.2014133,0.213762942 13.0130817,0.586711053" id="path-4"></path>
        <linearGradient x1="35.9771444%" y1="49.2690528%" x2="110.592154%" y2="49.2690528%" id="linearGradient-6">
            <stop stop-color="#FF00FF" offset="0%"></stop>
            <stop stop-color="#FF00FF" offset="0%"></stop>
            <stop stop-color="#E90CF9" offset="17%"></stop>
            <stop stop-color="#C023ED" offset="54%"></stop>
            <stop stop-color="#B02DE9" offset="73%"></stop>
            <stop stop-color="#B02DE9" offset="100%"></stop>
        </linearGradient>
        <path d="M5.43159944,0.847728598 L0.0202041858,28.2381319 C-0.0923924696,28.807032 0.27692456,29.3579432 0.846663636,29.4726226 L8.32533348,30.979196 C8.89732449,31.0938755 9.4558039,30.7228537 9.56840056,30.151705 L14.9797958,2.76130164 C15.0923925,2.19240155 14.7230754,1.64149039 14.1533364,1.52681092 L6.67466652,0.0202375527 C6.60485659,0.00674585091 6.53504666,0 6.46523674,0 C5.97206339,0 5.5306845,0.346287013 5.43159944,0.847728598" id="path-7"></path>
        <linearGradient x1="-52.096353%" y1="50.6258166%" x2="141.239982%" y2="50.6258166%" id="linearGradient-9">
            <stop stop-color="#FF00FF" offset="0%"></stop>
            <stop stop-color="#FF00FF" offset="2%"></stop>
            <stop stop-color="#E90CF9" offset="9%"></stop>
            <stop stop-color="#C023ED" offset="23%"></stop>
            <stop stop-color="#B02DE9" offset="30%"></stop>
            <stop stop-color="#A42BE3" offset="42%"></stop>
            <stop stop-color="#8626D5" offset="63%"></stop>
            <stop stop-color="#6021C3" offset="85%"></stop>
            <stop stop-color="#6021C3" offset="100%"></stop>
        </linearGradient>
    </defs>
    <g id="About-Page" stroke="none" stroke-width="1" fill="none" fill-rule="evenodd">
        <g id="Old-About-Page-Copy" transform="translate(-404.000000, -2353.000000)">
            <g id="Make-Logo-RGB" transform="translate(404.000000, 2353.000000)">
                <path d="M67.8436708,21.0712939 L67.8436708,38.9455323 C67.8436708,39.525602 67.3707422,39.9977517 66.7897157,39.9977517 L59.0539551,39.9977517 C58.4706766,39.9977517 58,39.525602 58,38.9455323 L58,10.7199739 C58,10.1399043 58.4729286,9.66775457 59.0539551,9.66775457 L66.7897157,9.66775457 C67.3707422,9.66775457 67.8436708,10.1399043 67.8436708,10.7199739 L67.8436708,12.9435741 C69.7871821,10.517624 72.5211598,9 76.3496294,9 C79.9348785,9 83.0336868,10.4569191 84.916393,13.186394 C87.2247349,10.4569191 90.5059585,9 94.5168434,9 C101.322511,9 106,13.0042791 106,20.6463592 L106,38.9455323 C106,39.525602 105.527071,39.9977517 104.946045,39.9977517 L97.2102843,39.9977517 C96.6270057,39.9977517 96.1563292,39.525602 96.1563292,38.9455323 L96.1563292,22.7103278 C96.1563292,19.3738033 94.273623,17.7370177 91.7198086,17.7370177 C89.593882,17.7370177 87.891339,19.0725268 86.9184574,21.0735422 L86.9184574,38.9477807 C86.9184574,39.5278503 86.4455288,40 85.8645022,40 L78.1287417,40 C77.5454631,40 77.0747865,39.5278503 77.0747865,38.9477807 L77.0747865,22.7125762 C77.0747865,19.3760516 75.1920803,17.739266 72.6382659,17.739266 C70.4515342,17.739266 68.8097964,19.0747752 67.8369147,21.0757905" id="Path" fill="#000000" fill-rule="nonzero"></path>
                <path d="M119.48568,41 C113.789089,41 109,37.2208104 109,31.3701821 C109,26.0074827 112.515443,23.5068474 119.061131,21.8013554 L127.426314,19.6079345 C127.183714,17.5974869 125.606819,16.6216293 123.061773,16.6216293 C120.806498,16.6216293 119.184677,17.4890583 118.436663,19.2239164 C118.227758,19.7073274 117.726835,19.9919526 117.214681,19.8699704 L110.58588,18.2842016 C109.97489,18.1373712 109.61773,17.4822815 109.83562,16.8904419 C111.738227,11.7129747 117.025993,9 123.423426,9 C132.028961,9 137,13.0841451 137,20.2743188 L137,39.3306509 C137,39.9157137 136.528279,40.38783 135.948736,40.38783 L128.632571,40.38783 C128.062014,40.38783 127.594785,39.9292673 127.581308,39.3554991 L127.545367,37.7674714 L127.484717,37.8284625 C125.000321,39.9608923 122.576574,40.9977411 119.483434,40.9977411 M121.96783,33.3783707 C123.241476,33.3783707 124.209627,33.0124241 125.665223,32.1585486 L127.361171,31.1216998 L127.421821,26.1836792 L123.05728,27.4035013 C120.087686,28.2573768 118.753389,28.9892701 118.753389,30.6947621 C118.753389,32.5832274 120.388688,33.3761118 121.965584,33.3761118" id="Shape" fill="#000000" fill-rule="nonzero"></path>
                <path d="M152.792247,25.7847734 L149.778821,28.4951998 L149.778821,38.9551239 C149.778821,39.533378 149.300137,40 148.71204,40 L141.06678,40 C140.476404,40 140,39.5311453 140,38.9551239 L140,1.04487609 C140,0.468854655 140.478684,0 141.06678,0 L148.71204,0 C149.300137,0 149.778821,0.468854655 149.778821,1.04487609 L149.778821,18.1937933 L158.69829,10.1562849 C158.894323,9.97990623 159.154179,9.87943737 159.420874,9.87943737 L168.860058,9.87943737 C169.83566,9.87943737 170.298388,11.0538067 169.580362,11.6968073 L160.421551,19.8794374 L170.86597,38.450547 C171.258034,39.1471311 170.74288,40 169.931397,40 L161.007368,40 C160.610745,40 160.243754,39.7834338 160.061399,39.4373744 L152.794527,25.7825407 L152.792247,25.7847734 Z" id="Path" fill="#000000" fill-rule="nonzero"></path>
                <path d="M183.933415,41 C175.608167,41 168,35.6979174 168,24.9695023 C168,14.8510413 175.308458,9 183.333997,9 C191.359537,9 197.711146,14.9120367 197.948693,24.2375574 C197.975334,25.2225203 197.990875,25.9092834 197.999879,26.3972467 C198.008635,26.9891281 197.540201,27.4680551 196.960764,27.4680551 L177.584026,27.4680551 C177.883735,31.1255206 180.758721,33.4410872 184.41295,33.4410872 C187.012647,33.4410872 189.143911,32.3409107 190.638015,30.3529121 C190.968805,29.9123897 191.579323,29.8107307 192.032217,30.1202259 L196.871961,33.4184963 C197.355936,33.7483233 197.475819,34.4170138 197.14947,34.9072361 C194.556432,38.7906107 190.280585,41 183.935635,41 M177.766071,21.4950229 L188.249224,21.4950229 C188.189282,18.0205436 185.673947,16.4979174 183.038729,16.4979174 C180.583335,16.4979174 178.068,17.9618073 177.768291,21.4950229" id="Shape" fill="#000000" fill-rule="nonzero"></path>
                <g id="Clipped" transform="translate(34.000000, 10.000000)">
                    <mask id="mask-2" fill="white">
                        <use xlink:href="#path-1"></use>
                    </mask>
                    <g id="Path"></g>
                    <polygon id="Rectangle" fill="url(#linearGradient-3)" fill-rule="nonzero" mask="url(#mask-2)" transform="translate(5.002541, 14.998931) rotate(-20.240000) translate(-5.002541, -14.998931) " points="-5.2101567 -0.927135568 14.8441551 -0.69810455 15.215239 30.9249973 -4.8390728 30.6959663"></polygon>
                </g>
                <g id="Clipped" transform="translate(0.000000, 10.000000)">
                    <mask id="mask-5" fill="white">
                        <use xlink:href="#path-4"></use>
                    </mask>
                    <g id="Path"></g>
                    <polygon id="Rectangle" fill="url(#linearGradient-6)" fill-rule="nonzero" mask="url(#mask-5)" transform="translate(10.999187, 15.578628) rotate(-23.380000) translate(-10.999187, -15.578628) " points="-5.5231615 -3.18912509 27.3859806 -3.07070792 27.5215361 34.3463812 -5.38760597 34.2279641"></polygon>
                </g>
                <g id="Clipped" transform="translate(18.000000, 10.000000)">
                    <mask id="mask-8" fill="white">
                        <use xlink:href="#path-7"></use>
                    </mask>
                    <g id="Path"></g>
                    <polygon id="Rectangle" fill="url(#linearGradient-9)" fill-rule="nonzero" mask="url(#mask-8)" transform="translate(7.499990, 15.549649) rotate(-20.210000) translate(-7.499990, -15.549649) " points="-5.00990015 -1.67026357 19.9934221 -1.65832495 20.0098792 32.7695619 -4.99344301 32.7576233"></polygon>
                </g>
            </g>
        </g>
    </g>
</svg>