<?xml version="1.0" encoding="UTF-8"?>
<svg width="240px" height="49px" viewBox="0 0 240 49" version="1.1" xmlns="http://www.w3.org/2000/svg" xmlns:xlink="http://www.w3.org/1999/xlink">
    <title>WordPress-logotype-standard</title>
    <g id="About-Page" stroke="none" stroke-width="1" fill="none" fill-rule="evenodd">
        <g id="Old-About-Page-Copy" transform="translate(-375.000000, -2201.000000)" fill="#000000">
            <g id="WordPress-logotype-standard" transform="translate(375.000000, 2201.000000)">
                <path d="M137.073998,35.3246993 L136.695272,35.3246993 C134.748099,35.3246993 134.477698,34.8381629 134.477698,32.3515582 L134.477698,20.6215828 L137.073998,20.6215828 C142.699075,20.6215828 143.726927,24.7293603 143.726927,27.9188081 C143.726927,31.2163067 142.699075,35.3246993 137.073998,35.3246993 L137.073998,35.3246993 Z M114.248304,27.8103472 L114.248304,20.6215828 L116.465673,20.6215828 C118.899692,20.6215828 119.981911,22.2968835 119.981911,24.2428239 C119.981911,26.1350465 118.899692,27.8103472 116.465673,27.8103472 L114.248304,27.8103472 Z M136.911716,19 L127.229599,19 L127.229599,20.0265856 C130.258377,20.0265856 130.745016,20.6753007 130.745016,24.5134636 L130.745016,31.4328185 C130.745016,35.2705714 130.258377,35.9734144 127.229599,35.9734144 C124.90411,35.6490569 123.335251,34.4053445 121.171429,32.0272007 L118.683863,29.3246993 C122.036999,28.729702 123.821891,26.6215828 123.821891,24.2428239 C123.821891,21.270298 121.279958,19 116.520041,19 L107,19 L107,20.0265856 C110.028777,20.0265856 110.515622,20.6753007 110.515622,24.5134636 L110.515622,31.4328185 C110.515622,35.2705714 110.028777,35.9734144 107,35.9734144 L107,37 L117.763926,37 L117.763926,35.9734144 C114.735148,35.9734144 114.248304,35.2705714 114.248304,31.4328185 L114.248304,29.4868781 L115.167626,29.4868781 L121.171429,37 L136.911716,37 C144.646865,37 148,32.8922225 148,27.972526 C148,23.0540596 144.646865,19 136.911716,19 L136.911716,19 Z" id="Fill-1"></path>
                <path d="M75.8386346,29.6670881 L79.6135276,18.3329709 C80.7081657,15.0557297 80.2157342,14.1115185 76.7141375,14.1115185 L76.7141375,13 L87,13 L87,14.1115185 C83.5531871,14.1115185 82.7326754,14.9446833 81.364741,19.0003034 L75.1272755,38 L74.4163314,38 L68.8354411,20.6112151 L63.1460209,38 L62.4344543,38 L56.3617551,19.0003034 C55.048812,14.9446833 54.173309,14.1115185 51,14.1115185 L51,13 L63.1460209,13 L63.1460209,14.1115185 C59.9177206,14.1115185 59.0422176,14.8890547 60.1916395,18.3329709 L63.8567575,29.6670881 L69.3826564,13 L70.4225107,13 L75.8386346,29.6670881 Z" id="Fill-3"></path>
                <path d="M95,19.7278029 C89.9403755,19.7278029 88.1801252,24.3512657 88.1801252,27.9721084 C88.1801252,31.6493682 89.9403755,36.2174703 95,36.2174703 C100.115532,36.2174703 101.875156,31.6493682 101.875156,27.9721084 C101.875156,24.3512657 100.115532,19.7278029 95,19.7278029 M95,38 C88.9505215,38 84,33.4876812 84,27.9721084 C84,22.5129527 88.9505215,18 95,18 C101.050313,18 106,22.5129527 106,27.9721084 C106,33.4876812 101.050313,38 95,38" id="Fill-5"></path>
                <path d="M160.280074,14.9953048 L157.174039,14.9953048 L157.174039,24.6398739 L160.280074,24.6398739 C163.332162,24.6398739 164.748656,22.4784863 164.748656,19.8735109 C164.748656,17.2132446 163.332162,14.9953048 160.280074,14.9953048 M161.479124,35.8916608 L161.479124,37 L149,37 L149,35.8916608 C152.651302,35.8916608 153.305085,34.9496146 153.305085,29.4064471 L153.305085,20.5386826 C153.305085,14.9953048 152.651302,14.1089699 149,14.1089699 L149,13 L160.280074,13 C165.893138,13 169,15.9379818 169,19.8735109 C169,23.6980378 165.893138,26.69089 160.280074,26.69089 L157.174039,26.69089 L157.174039,29.4064471 C157.174039,34.9496146 157.827821,35.8916608 161.479124,35.8916608" id="Fill-7"></path>
                <path d="M177.30236,27.8103472 L177.30236,20.6215828 L179.536266,20.6215828 C181.988437,20.6215828 183.078727,22.2968835 183.078727,24.2428239 C183.078727,26.1350465 181.988437,27.8103472 179.536266,27.8103472 L177.30236,27.8103472 Z M206.182748,31.9193548 L205.910537,32.8922225 C205.420061,34.6759841 204.820247,35.3246993 200.951629,35.3246993 L200.188323,35.3246993 C197.355015,35.3246993 196.864746,34.6759841 196.864746,30.8378212 L196.864746,28.3516266 C201.114914,28.3516266 201.441898,28.729702 201.441898,31.5406643 L202.477622,31.5406643 L202.477622,23.486263 L201.441898,23.486263 C201.441898,26.2972253 201.114914,26.6750957 196.864746,26.6750957 L196.864746,20.6215828 L199.861339,20.6215828 C203.730577,20.6215828 204.329771,21.270298 204.820247,23.0540596 L205.093078,24.0806452 L205.964483,24.0806452 L205.583553,19 L189.562387,19 L189.562387,20.0265856 C192.613752,20.0265856 193.104021,20.6750957 193.104021,24.5134636 L193.104021,31.4328185 C193.104021,34.9435484 192.687334,35.8280481 190.281668,35.9539366 C187.99485,35.6078458 186.424832,34.3704893 184.277116,32.0272007 L181.770172,29.3246993 C185.149141,28.729702 186.947344,26.6215828 186.947344,24.2428239 C186.947344,21.270298 184.386455,19 179.591039,19 L170,19 L170,20.0265856 C173.051365,20.0265856 173.541841,20.6750957 173.541841,24.5134636 L173.541841,31.4328185 C173.541841,35.2703663 173.051365,35.9734144 170,35.9734144 L170,37 L180.843994,37 L180.843994,35.9734144 C177.792835,35.9734144 177.30236,35.2703663 177.30236,31.4328185 L177.30236,29.4868781 L178.228538,29.4868781 L184.277116,37 L206.673223,37 L207,31.9193548 L206.182748,31.9193548 Z" id="Fill-9"></path>
                <path d="M217.579254,38 C215.473741,38 213.631342,36.83003 212.841999,36.1056924 C212.578885,36.3846089 212.105359,37.2203017 212.000154,38 L211,38 L211,30.3124709 L212.052457,30.3124709 C212.473879,33.9890969 214.89461,36.161687 218.000077,36.161687 C219.684168,36.161687 221.053041,35.1588556 221.053041,33.4876812 C221.053041,32.0394286 219.842076,30.9248193 217.68426,29.8668385 L214.684398,28.3628027 C212.578885,27.3035541 211,25.4652411 211,23.0143684 C211,20.3403626 213.368428,18.0566285 216.632002,18.0566285 C218.368796,18.0566285 219.842076,18.7251828 220.737224,19.5046697 C221.000138,19.2817479 221.263053,18.6685543 221.42156,18 L222.421115,18 L222.421115,24.5743989 L221.315955,24.5743989 C220.947236,21.9557537 219.579162,19.7831636 216.789911,19.7831636 C215.316032,19.7831636 213.947159,20.6746397 213.947159,22.0675316 C213.947159,23.5155728 215.052518,24.2954824 217.579254,25.5212357 L220.47351,27.0252715 C223.000445,28.3061742 224,30.3682542 224,32.0394286 C224,35.5491273 221.105144,38 217.579254,38" id="Fill-11"></path>
                <path d="M233.579254,38 C231.473741,38 229.631342,36.83003 228.841999,36.1056924 C228.578885,36.3846089 228.10516,37.2203017 228.000154,38 L227,38 L227,30.3124709 L228.052457,30.3124709 C228.473879,33.9890969 230.89441,36.161687 234.000077,36.161687 C235.684168,36.161687 237.052841,35.1588556 237.052841,33.4876812 C237.052841,32.0394286 235.841877,30.9248193 233.68426,29.8668385 L230.684398,28.3628027 C228.578885,27.3035541 227,25.4652411 227,23.0143684 C227,20.3403626 229.368428,18.0566285 232.632002,18.0566285 C234.368796,18.0566285 235.841877,18.7251828 236.737024,19.5046697 C237.000138,19.2817479 237.263053,18.6685543 237.420961,18 L238.421115,18 L238.421115,24.5743989 L237.315756,24.5743989 C236.947236,21.9557537 235.578962,19.7831636 232.789711,19.7831636 C231.316032,19.7831636 229.947159,20.6746397 229.947159,22.0675316 C229.947159,23.5155728 231.052319,24.2954824 233.579254,25.5212357 L236.47351,27.0252715 C239.000445,28.3061742 240,30.3682542 240,32.0394286 C240,35.5491273 237.105144,38 233.579254,38" id="Fill-13"></path>
                <path d="M24.5,0 C10.9690798,0 0,10.9690798 0,24.5 C0,38.0309202 10.9690798,49 24.5,49 C38.0309202,49 49,38.0309202 49,24.5 C49,10.9690798 38.0309202,0 24.5,0 M24.5,1.47007434 C27.6096853,1.47007434 30.6256195,2.07863019 33.4639636,3.27922187 C34.8281034,3.8561832 36.1441287,4.57046711 37.3752824,5.40224959 C38.5950786,6.22639156 39.7421867,7.1727816 40.7845993,8.21540069 C41.8272184,9.25781329 42.7736084,10.4049214 43.5977504,11.6247176 C44.4295329,12.8558713 45.1438168,14.1718966 45.7207781,15.5360364 C46.9213698,18.3743805 47.5299257,21.3903147 47.5299257,24.5 C47.5299257,27.6096853 46.9213698,30.6256195 45.7207781,33.4639636 C45.1438168,34.8281034 44.4295329,36.1441287 43.5977504,37.3752824 C42.7736084,38.5950786 41.8272184,39.7421867 40.7845993,40.7845993 C39.7421867,41.8272184 38.5950786,42.7736084 37.3752824,43.5977504 C36.1441287,44.4295329 34.8281034,45.1438168 33.4639636,45.7207781 C30.6256195,46.9213698 27.6096853,47.5299257 24.5,47.5299257 C21.3903147,47.5299257 18.3743805,46.9213698 15.5362429,45.7207781 C14.1718966,45.1438168 12.8558713,44.4295329 11.6247176,43.5977504 C10.4049214,42.7736084 9.25781329,41.8272184 8.21540069,40.7845993 C7.1727816,39.7421867 6.22639156,38.5950786 5.40224959,37.3752824 C4.57067361,36.1441287 3.8561832,34.8281034 3.27922187,33.4639636 C2.07863019,30.6256195 1.47007434,27.6096853 1.47007434,24.5 C1.47007434,21.3903147 2.07863019,18.3743805 3.27922187,15.5360364 C3.8561832,14.1718966 4.57067361,12.8558713 5.40224959,11.6247176 C6.22639156,10.4049214 7.1727816,9.25781329 8.21540069,8.21540069 C9.25781329,7.1727816 10.4049214,6.22639156 11.6247176,5.40224959 C12.8558713,4.57046711 14.1718966,3.8561832 15.5362429,3.27922187 C18.3743805,2.07863019 21.3903147,1.47007434 24.5,1.47007434" id="Fill-15"></path>
                <path d="M42.4894913,14.6648933 C42.5774047,15.3178163 42.6273743,16.0182209 42.6273743,16.772742 C42.6273743,18.8521847 42.2377769,21.1905988 41.0679478,24.1149641 L34.806812,42.2180793 C40.9014514,38.6648427 45,32.0620057 45,24.499378 C45,20.9351522 44.0893497,17.5844897 42.4894913,14.6648933 L42.4894913,14.6648933 Z M24.8601547,26.29248 L18.708496,44.1648225 C20.5457621,44.7051583 22.4879438,45 24.5,45 C26.887347,45 29.1774502,44.5880095 31.3081066,43.8378426 C31.2531607,43.7501365 31.202569,43.6570395 31.1608931,43.5552341 L24.8601547,26.29248 Z M38.3393143,23.4653586 C38.3393143,20.9310054 37.4288712,19.1770911 36.6492617,17.811945 C35.6100587,16.1225144 34.6355467,14.6932993 34.6355467,13.0038687 C34.6355467,11.1197431 36.0643471,9.36562152 38.0780621,9.36562152 C38.1690857,9.36562152 38.255133,9.3766107 38.3434611,9.38220896 C34.6962982,6.04046222 29.8370082,4 24.5,4 C17.3377516,4 11.0374279,7.6749469 7.37160413,13.2396177 C7.85305452,13.2547537 8.3065136,13.2644988 8.69113482,13.2644988 C10.8348538,13.2644988 14.1548296,13.0038687 14.1548296,13.0038687 C15.2593456,12.9391777 15.3899717,14.5626732 14.2858703,14.6932993 C14.2858703,14.6932993 13.1749267,14.8233033 11.9397846,14.8879943 L19.4047537,37.093183 L23.8916557,23.6386973 L20.6979519,14.8879943 C19.5934358,14.8233033 18.5478052,14.6932993 18.5478052,14.6932993 C17.4426671,14.6279862 17.5722565,12.9391777 18.6778092,13.0038687 C18.6778092,13.0038687 22.062476,13.2644988 24.076813,13.2644988 C26.220532,13.2644988 29.5411298,13.0038687 29.5411298,13.0038687 C30.6460605,12.9391777 30.7760645,14.5626732 29.6715485,14.6932993 C29.6715485,14.6932993 28.5595681,14.8233033 27.3256701,14.8879943 L34.7340346,36.9241984 L36.8489329,30.2228735 C37.788404,27.2943613 38.3393143,25.2194801 38.3393143,23.4653586 L38.3393143,23.4653586 Z M4,24.499378 C4,32.6133306 8.71518661,39.6258774 15.5541873,42.9483413 L5.77506321,16.1565187 C4.63757965,18.7058005 4,21.5271164 4,24.499378 L4,24.499378 Z" id="Fill-17"></path>
            </g>
        </g>
    </g>
</svg>