<?xml version="1.0" encoding="UTF-8"?>
<svg width="200px" height="46px" viewBox="0 0 200 46" version="1.1" xmlns="http://www.w3.org/2000/svg" xmlns:xlink="http://www.w3.org/1999/xlink">
    <title>Logo-no-clearspace</title>
    <defs>
        <rect id="path-1" x="0" y="0" width="200" height="46"></rect>
        <rect id="path-3" x="0" y="0" width="200" height="46"></rect>
        <rect id="path-5" x="0" y="0" width="200" height="46"></rect>
        <rect id="path-7" x="0" y="0" width="200" height="46"></rect>
        <rect id="path-9" x="0" y="0" width="200" height="46"></rect>
        <rect id="path-11" x="0" y="0" width="200" height="46"></rect>
        <rect id="path-13" x="0" y="0" width="200" height="46"></rect>
    </defs>
    <g id="About-Page" stroke="none" stroke-width="1" fill="none" fill-rule="evenodd">
        <g id="Old-About-Page-Copy" transform="translate(-829.000000, -2351.000000)">
            <g id="Logo-no-clearspace" transform="translate(829.000000, 2351.000000)">
                <g id="Clipped">
                    <mask id="mask-2" fill="white">
                        <use xlink:href="#path-1"></use>
                    </mask>
                    <g id="SVGID_1_"></g>
                    <path d="M97.4742697,12.2461471 C93.4351685,12.2461471 89.4541573,13.9861422 86.4149438,17.4070539 L86.4149438,0.537230392 L80.4003371,0.537230392 L80.4003371,28.9386225 C80.4003371,28.939299 80.4003371,28.9399755 80.4003371,28.9407647 C80.4003371,38.1608333 87.8491011,45.6351569 97.0377528,45.6351569 C106.226292,45.6351569 113.675056,38.1608333 113.675056,28.9407647 C113.675056,19.7206961 106.662809,12.2461471 97.4742697,12.2461471 M97.0377528,39.2050784 C91.3882022,39.2050784 86.8083146,34.6094755 86.8083146,28.940652 C86.8083146,23.2717157 91.3882022,18.6761127 97.0377528,18.6761127 C102.687303,18.6761127 107.267191,23.2717157 107.267191,28.940652 C107.267191,34.6095882 102.687303,39.2050784 97.0377528,39.2050784" id="Shape" fill="#262626" fill-rule="nonzero" mask="url(#mask-2)"></path>
                </g>
                <g id="Clipped">
                    <mask id="mask-4" fill="white">
                        <use xlink:href="#path-3"></use>
                    </mask>
                    <g id="SVGID_1_"></g>
                    <path d="M134.73809,12.2461471 C130.698989,12.2461471 126.717978,13.9861422 123.678652,17.4070539 L123.678652,0.537230392 L117.664157,0.537230392 L117.664157,28.9386225 C117.664157,28.939299 117.664157,28.9399755 117.664157,28.9407647 C117.664157,38.1608333 125.112921,45.6351569 134.301573,45.6351569 C143.49,45.6351569 150.938876,38.1608333 150.938876,28.9407647 C150.938876,19.7206961 143.926517,12.2461471 134.73809,12.2461471 M134.301573,39.2050784 C128.652022,39.2050784 124.072135,34.6094755 124.072135,28.940652 C124.072135,23.2717157 128.652022,18.6761127 134.301573,18.6761127 C139.951011,18.6761127 144.530899,23.2717157 144.530899,28.940652 C144.530899,34.6095882 139.951011,39.2050784 134.301573,39.2050784" id="Shape" fill="#262626" fill-rule="nonzero" mask="url(#mask-4)"></path>
                </g>
                <g id="Clipped">
                    <mask id="mask-6" fill="white">
                        <use xlink:href="#path-5"></use>
                    </mask>
                    <g id="SVGID_1_"></g>
                    <path d="M46.5577528,31.8649216 L46.5577528,13.1517157 L53.008764,13.1517157 L53.008764,31.8061814 C53.008764,36.5728186 55.7651685,39.6328333 60.3982022,39.6328333 C65.0897753,39.6328333 67.7876404,36.6904118 67.7876404,31.8061814 L67.7876404,13.1517157 L74.297191,13.1517157 L74.297191,31.8649216 C74.297191,40.515402 69.0777528,45.6351569 60.3982022,45.6351569 C51.9530337,45.6351569 46.5577528,40.3389559 46.5577528,31.8649216" id="Path" fill="#262626" fill-rule="nonzero" mask="url(#mask-6)"></path>
                </g>
                <g id="Clipped">
                    <mask id="mask-8" fill="white">
                        <use xlink:href="#path-7"></use>
                    </mask>
                    <g id="SVGID_1_"></g>
                    <rect id="Rectangle" fill="#262626" fill-rule="nonzero" mask="url(#mask-8)" x="156.128539" y="0.537230392" width="6.45101124" height="44.3328382"></rect>
                </g>
                <g id="Clipped">
                    <mask id="mask-10" fill="white">
                        <use xlink:href="#path-9"></use>
                    </mask>
                    <g id="SVGID_1_"></g>
                    <path d="M199.096966,31.5120294 L174.407079,31.5120294 C175.345506,36.4551127 178.805506,39.8093922 184.904719,39.8093922 C188.482135,39.8093922 192.821798,38.4558873 195.636966,36.3963725 L198.334719,41.1627843 C195.109101,43.5756422 190.007079,45.5763039 184.670112,45.5763039 C172.823708,45.5763039 167.721461,37.2789412 167.721461,28.9227255 C167.721461,24.1560882 169.18764,20.2132794 172.178652,17.094299 C175.169551,13.9754314 179.098989,12.3866275 183.849101,12.3866275 C188.364719,12.3866275 192.11809,13.7989853 194.991798,16.6823284 C197.865506,19.5658971 199.331461,23.4497402 199.331461,28.3928235 C199.331461,29.2758431 199.272697,30.3349706 199.096966,31.5120294 M174.407079,26.2156029 L192.821798,26.2156029 C192.294157,21.2136667 188.599551,17.9772059 183.849101,17.9772059 C178.981348,17.9772059 175.345393,21.2725196 174.407079,26.2156029" id="Shape" fill="#262626" fill-rule="nonzero" mask="url(#mask-10)"></path>
                </g>
                <g id="Clipped">
                    <mask id="mask-12" fill="white">
                        <use xlink:href="#path-11"></use>
                    </mask>
                    <g id="SVGID_1_"></g>
                    <path d="M26.0752809,12.2461471 C22.0361798,12.2461471 18.0551685,13.9861422 15.0158427,17.4070539 L15.0158427,0.537230392 L9.00134831,0.537230392 L9.00134831,28.9386225 C9.00134831,28.939299 9.00134831,28.9399755 9.00134831,28.9407647 C9.00134831,38.1608333 16.4501124,45.6351569 25.638764,45.6351569 C34.8273034,45.6351569 42.2761798,38.1608333 42.2761798,28.9407647 C42.2761798,19.7206961 35.2638202,12.2461471 26.0752809,12.2461471 M25.638764,39.2050784 C19.9892135,39.2050784 15.4093258,34.6094755 15.4093258,28.940652 C15.4093258,23.2717157 19.9892135,18.6761127 25.638764,18.6761127 C31.2882022,18.6761127 35.8680899,23.2717157 35.8680899,28.940652 C35.8680899,34.6095882 31.2882022,39.2050784 25.638764,39.2050784" id="Shape" fill="#262626" fill-rule="nonzero" mask="url(#mask-12)"></path>
                </g>
                <g id="Clipped">
                    <mask id="mask-14" fill="white">
                        <use xlink:href="#path-13"></use>
                    </mask>
                    <g id="SVGID_1_"></g>
                    <path d="M4.62876404,37.3784951 C2.35651685,37.3784951 0.514606742,39.2268382 0.514606742,41.5067696 C0.514606742,43.786701 2.35651685,45.6350441 4.62876404,45.6350441 C6.90101124,45.6350441 8.74292135,43.786701 8.74292135,41.5067696 C8.74292135,39.2268382 6.90101124,37.3784951 4.62876404,37.3784951" id="Path" fill="#0000FF" fill-rule="nonzero" mask="url(#mask-14)"></path>
                </g>
            </g>
        </g>
    </g>
</svg>