<?xml version="1.0" encoding="UTF-8"?>
<svg width="51px" height="58px" viewBox="0 0 51 58" version="1.1" xmlns="http://www.w3.org/2000/svg" xmlns:xlink="http://www.w3.org/1999/xlink">
    <title>Simple_Rounded_Outline_of_the_state_of_Minnesota</title>
    <g id="About-Page" stroke="none" stroke-width="1" fill="none" fill-rule="evenodd">
        <g id="Old-About-Page-Copy" transform="translate(-669.000000, -2927.000000)" fill="#000000" fill-rule="nonzero">
            <g id="Simple_Rounded_Outline_of_the_state_of_Minnesota" transform="translate(669.000000, 2927.000000)">
                <path d="M0.381016882,8.16023892 C0.353464251,8.06585543 0.485323268,8.11304717 0.540428529,8.1150135 C0.56798116,8.09141763 0.520748079,8.06585543 0.505003719,8.04815853 C0.489259358,8.03046162 0.463674773,8.05602382 0.445962368,8.05012485 C0.412505602,8.05209117 0.355432296,8.05209117 0.331815756,8.02259633 C0.31410335,7.95967401 0.420377782,7.98916885 0.449898458,7.96557298 C0.528620259,7.94787607 0.506971764,7.89085272 0.461706728,7.85742523 C0.440058233,7.85545891 0.404633422,7.8200651 0.442026278,7.80630084 C0.457770638,7.78663762 0.530588304,7.82399775 0.532556349,7.79253659 C0.53788452,7.76482205 0.535152643,7.73616245 0.524684169,7.70995104 C0.512875899,7.68438884 0.455802593,7.68438884 0.497131538,7.66275929 C0.526652214,7.64899503 0.60340597,7.60376961 0.573885295,7.55657787 C0.552236799,7.55461155 0.522716124,7.55854419 0.505003719,7.54674626 C0.481387178,7.52511671 0.510907854,7.49168922 0.540428529,7.48775658 C0.567361501,7.48027583 0.596253824,7.48693746 0.617182286,7.50545348 C0.636862736,7.49758819 0.617182286,7.472026 0.61127815,7.45432909 C0.59946988,7.43663219 0.60734206,7.40713735 0.632926646,7.42090161 C0.642477627,7.43001907 0.650457033,7.44064896 0.656543186,7.45236277 C0.676223637,7.46022806 0.686063862,7.44056483 0.686063862,7.42483425 C0.660479276,7.39140677 0.589629655,7.34028238 0.656543186,7.30488857 C0.691967997,7.29112431 0.703776267,7.33831606 0.739201078,7.33831606 C0.817922879,7.3245518 0.719520627,7.23213464 0.747073258,7.19477451 C0.784466113,7.1593807 0.845475509,7.10039102 0.841539419,7.04533399 C0.829731149,7.03550237 0.778561978,7.02370444 0.788402203,6.99814224 C0.808082654,6.98044534 0.845475509,6.96274844 0.835635284,6.92932095 C0.829800193,6.87825312 0.850606782,6.82776706 0.890740545,6.79561101 C0.837603329,6.76414985 0.768721753,6.73465501 0.745105213,6.66976636 C0.743137168,6.65600211 0.713616492,6.62257462 0.735264988,6.60684404 C0.749082655,6.5981089 0.764448333,6.5921015 0.780530023,6.58914714 C0.788402203,6.56948391 0.754945438,6.54392172 0.739201078,6.53802275 C0.701808222,6.5163932 0.705744312,6.48493204 0.676223637,6.4554372 C0.664415366,6.43970662 0.597501835,6.40234649 0.619150331,6.37481797 C0.636566383,6.37024032 0.651439327,6.35891847 0.660479276,6.34335681 C0.647383567,6.32055656 0.623752961,6.30580036 0.597501835,6.30403035 C0.57978943,6.28043448 0.61127815,6.24897332 0.623086421,6.22734377 C0.638830781,6.20768055 0.623086421,6.16245512 0.60340597,6.15065719 C0.56404507,6.13689293 0.491227403,6.12902764 0.524684169,6.07003796 C0.554204844,6.05824003 0.56404507,6.01498093 0.562077025,5.98745241 C0.550268754,5.95599125 0.522716124,5.94222699 0.506971764,5.91469847 C0.501067629,5.88716996 0.532556349,5.88127099 0.554204844,5.87930467 C0.57978943,5.86160776 0.538460484,5.83997821 0.530588304,5.82424763 C0.485323268,5.82621396 0.491227403,5.77312324 0.481387178,5.7436284 C0.455802593,5.72789782 0.424313872,5.75346002 0.408569512,5.72199886 C0.406601467,5.68660505 0.461706728,5.69053769 0.465642818,5.65711021 C0.475483043,5.61975008 0.398729287,5.65121124 0.384952972,5.66694182 C0.357400341,5.6649755 0.369208611,5.63941331 0.388889062,5.63154801 C0.420377782,5.62958169 0.455802593,5.59615421 0.483355223,5.59222156 C0.530588304,5.54109717 0.410537557,5.55092879 0.382984927,5.5430635 C0.357400341,5.53126556 0.339687936,5.52536659 0.316071395,5.51356866 C0.2944229,5.52340027 0.288518765,5.49587175 0.30229508,5.48407382 C0.443994323,5.44081472 0.292454855,5.37985872 0.345592071,5.32676801 C0.408569512,5.3090711 0.416441692,5.24024981 0.361336431,5.21272129 C0.357400341,5.18912542 0.388889062,5.18126013 0.400697332,5.16552955 C0.396761242,5.13996736 0.384952972,5.11833781 0.381016882,5.09277561 C0.369208611,5.07114606 0.384952972,5.03575226 0.359368386,5.02592064 C0.345592071,5.03181961 0.316071395,5.01608903 0.308199215,5.0042911 C0.325911621,4.97086361 0.382984927,4.95513303 0.373144701,4.91187393 C0.357400341,4.88434541 0.29835899,4.88434541 0.27080636,4.87058116 C0.247189819,4.85878322 0.258998089,4.82928838 0.255061999,4.80962515 C0.239317639,4.78996193 0.253093954,4.74670283 0.284582675,4.74866915 C0.30229508,4.73490489 0.27080636,4.71327535 0.264902225,4.70147741 C0.239317639,4.67591522 0.178308243,4.62675715 0.158627793,4.59332967 C0.180276288,4.54810425 0.152723658,4.49697986 0.133043207,4.4576534 C0.125171027,4.41636063 0.174372153,4.34360669 0.105490577,4.34950566 C0.0484172709,4.32787611 0.0917142617,4.24922321 0.054321406,4.20989675 C0.0432581297,4.20077369 0.0366903613,4.18731149 0.0363129982,4.17298424 C0.0359356351,4.15865699 0.0417856463,4.14486829 0.052353361,4.13517649 C0.0562894511,4.10764798 0.0661296762,4.07618681 0.0562894511,4.0486583 C-0.0519530258,3.99163494 0.0188965954,3.82253119 0.0779379464,3.7537099 L0.0346409557,3.71438345 L0.0779379464,3.65736009 C4.18918402,3.78123842 8.5936688,3.79893532 12.7049149,3.80286797 L13.5688866,3.80286797 C13.5747908,2.88852794 13.5610145,1.21518739 13.5688866,0.300847363 L13.5669186,0 C13.6180878,0.00983161315 13.71649,0.165171101 13.7755314,0.165171101 C13.9664317,0.200564908 14.1356836,0.353938074 14.3344562,0.318544266 C14.5548772,0.275285168 14.5115802,0.129777294 14.7890746,0.145507875 C15.1000257,0.233992393 15.2968302,0.601694725 15.6432061,0.59776208 C15.8065539,0.580065176 15.6845351,0.705909824 15.6786309,0.78456273 C15.6471422,0.853384022 15.7081516,0.994959251 15.7160238,1.07164583 C15.8616591,1.5809234 15.8813396,2.13542638 16.0348471,2.64470394 C16.3615426,3.13431827 16.4442004,4.34164037 16.6311647,4.91384025 C16.7118546,4.99052684 16.6390369,5.02592064 16.5898358,5.082944 C16.5937719,5.16356323 16.5878677,5.2304182 16.6114843,5.29727317 C16.642973,5.36806078 16.5662192,5.40148827 16.5209542,5.43688207 C16.4815933,5.50963601 16.5032418,5.56862569 16.5386666,5.63744698 C16.5248903,6.03071151 16.6252606,5.97368815 16.8555219,6.21751216 C16.8811064,6.24504068 16.904723,6.26667022 16.9027549,6.307963 C16.9342437,6.37285165 17.0326459,6.36695268 17.0877512,6.40824545 C17.2038658,6.48099939 17.2943959,6.62454094 17.4538075,6.58718081 C17.5955068,6.6206083 17.5522098,6.76611617 17.7726308,6.73465501 C17.9143301,6.72285707 18.0540613,6.79561101 18.1898564,6.79757733 C18.2685782,6.77201514 18.2902267,6.67763165 18.3551722,6.63437256 C18.4870312,6.59897875 18.6326665,6.59897875 18.7487812,6.68549694 C18.9534579,6.71105914 18.9790424,6.66780004 19.1482943,6.62650727 C19.264409,6.67959798 19.4257887,6.71105914 19.4651496,6.8467354 C19.5025424,6.9686474 19.354939,7.14365012 19.5576477,7.18101025 C19.6836026,7.24589889 19.8134935,7.16134702 19.9374804,7.21443773 C20.1972623,7.28719167 20.4708206,7.21443773 20.7325706,7.25966315 C20.8093243,7.25179786 20.88411,7.29898961 20.9608638,7.29112431 C21.0848506,7.26556212 21.2167096,7.30095593 21.3406965,7.31865283 C21.44875,7.36265624 21.5680689,7.37092545 21.6811683,7.3422487 C21.7677623,7.3422487 21.8602604,7.37567619 21.9507904,7.3678109 C22.19286,7.34814767 22.2597735,7.44056483 22.3109427,7.67455723 C22.3778562,7.84169465 22.4644502,7.96950562 22.3660479,8.14254201 C22.3955686,8.2369255 22.322751,8.29001621 22.3404634,8.37653441 C22.4014728,8.41192821 22.4703543,8.48074951 22.543172,8.48074951 C22.7025836,8.46895157 22.8659314,8.43355776 23.025343,8.46108628 C23.1631062,8.48074951 23.3264539,8.47878318 23.4583129,8.43355776 C23.4976738,8.39423131 23.5114502,8.31164576 23.5763956,8.31164576 C23.7043186,8.47681686 23.6728298,8.33720795 23.8046889,8.32934266 C23.9109633,8.36473647 24.0192058,8.31557841 24.1313843,8.32147737 C24.1707452,8.27821828 24.2376588,8.27231931 24.290796,8.2546224 C24.37739,8.2192286 24.4600479,8.16023892 24.5604182,8.15630627 C24.6588204,8.14647466 24.6706287,8.0284953 24.6666926,7.94787607 C24.6470121,7.87512214 24.5722264,7.76107542 24.6155234,7.69028781 C24.6725967,7.654894 24.7493505,7.66079297 24.8103599,7.63523078 C24.8694012,7.59983697 24.9225384,7.53888097 24.9855159,7.51331877 C25.0130685,7.49955451 25.0543975,7.51331877 25.076046,7.53888097 C25.2197132,7.56247684 25.3279557,7.46219438 25.3692847,7.33045077 C25.6644914,7.2635958 26.1997997,6.95684947 26.4399012,7.27539373 C26.5599519,7.35797928 26.8905835,7.26949477 27.0499951,7.26556212 C27.1424932,7.23016831 27.8411492,7.33438341 27.9001906,7.21247141 C28.0182733,7.18887554 27.9690722,7.31078754 27.9769443,7.39730574 C27.9828485,7.41303632 28.004497,7.41696896 28.0182733,7.42483425 C28.0281135,7.43073322 28.0635383,7.42090161 28.0733785,7.43269954 L28.1186436,7.45039645 L28.2367263,7.52904935 C28.5771981,7.63326445 28.925542,7.80630084 29.2423973,7.96360665 C29.4175533,8.11108085 29.6615909,8.01473104 29.8544593,7.96950562 C29.9312131,7.9675393 30.0571679,7.97540459 30.0886567,8.04619221 C30.0906247,8.1504073 30.1555702,8.23889182 30.1280176,8.3411406 C30.1280176,8.37653441 30.1378578,8.40406292 30.1004649,8.41979351 C30.0079668,8.40013028 29.9312131,8.45518731 29.8465871,8.46698525 C29.799354,8.4886148 29.7304725,8.44142305 29.6950477,8.48468215 C29.6419104,8.56923402 29.6182939,8.69507867 29.5690928,8.78356319 C29.5966454,8.85041816 29.6989837,8.93300371 29.7403127,8.98806075 C30.0276473,9.11783804 30.452745,9.001825 30.7440157,8.91137416 L30.9447562,8.91530681 L31.1671453,9.20042359 C31.2891641,9.24368269 31.3088446,9.31840295 31.2360269,9.44818024 C31.0470946,9.74116231 31.3442694,10.0302117 31.4702243,10.2838674 C31.5725626,10.2111134 31.6906453,10.6751656 31.7359103,10.6948288 C31.7437825,10.72629 31.7811754,10.7734817 31.7752713,10.8069092 C31.8421848,10.8816294 31.8539931,10.9937098 31.9130344,11.0762954 C31.9543633,11.1549483 31.983884,11.0605648 32.0232449,11.0409016 C32.0744141,10.9858445 32.1767524,10.9878109 32.2397299,10.958316 C32.2849949,10.9366865 32.3145156,10.8835958 32.3656848,10.8776968 C32.4365344,10.8619662 32.5349366,10.8934274 32.5880738,10.8403367 C32.6057863,10.7577511 32.5290325,10.6987614 32.4699911,10.647637 C32.4129178,10.5729168 32.3833972,10.4687017 32.3735569,10.3762845 C32.3637167,10.3310591 32.4089818,10.2602715 32.377493,10.2170124 C32.3401002,10.1953828 32.3302599,10.1481911 32.3243558,10.1088646 C32.3814291,10.043976 32.3952054,9.95155883 32.4385024,9.8788049 C32.4680231,9.82768051 32.5270645,9.79425302 32.5782336,9.76475818 C32.6333389,9.75492657 32.6943483,9.78442141 32.7494535,9.77262348 C32.8458877,9.80605096 33.0269479,9.7490276 33.1292862,9.76672451 C33.1214141,9.70576851 33.2316246,9.64284618 33.2670494,9.60745237 L33.3398671,9.61531766 L33.3418351,9.69790322 L33.7669328,9.70380218 L33.8456546,9.63301457 L33.9440569,9.63498089 L33.9814497,9.70183586 C33.9743499,9.7777309 34.0090077,9.85150256 34.0719798,9.89453548 C34.1329892,10.0518413 34.3967072,9.84341109 34.2707524,10.1521237 C34.2274554,10.2858337 34.2963369,10.4333079 34.3278257,10.5650515 C34.4518125,10.525725 34.4459084,10.7164583 34.5305343,10.7636501 C34.5757993,10.7498858 34.5325023,10.6987614 34.5679272,10.6751656 C34.6210644,10.6417381 34.6702655,10.7046604 34.6860099,10.7538185 C34.6131922,10.8875284 34.6761696,10.9052253 34.7922843,10.8698315 C34.8612807,10.8187578 34.9470285,10.795584 35.0323858,10.8049429 L35.0815869,10.8167408 L35.087491,10.8521346 C35.1414835,10.8906365 35.1933824,10.931988 35.2429666,10.9760129 C35.2469027,11.0350026 35.2921677,11.0625311 35.3433369,11.0684301 C35.4122185,11.0959586 35.4988125,11.0369689 35.565726,11.0350026 C35.6011508,11.1018576 35.7074252,11.0782617 35.7467861,11.1254534 C35.7467861,11.1667462 35.8018914,11.208039 35.8235399,11.1647799 C35.8077955,11.0841607 35.9868876,11.1254534 36.0223124,11.1195545 C36.0793857,11.2119716 36.1010342,11.0959586 36.1659797,11.1018576 C36.223053,11.1077565 36.2919346,11.1431503 36.3017748,11.20214 C36.3119098,11.2605367 36.2873725,11.3195278 36.2387974,11.3535469 C36.1836921,11.567876 36.3470399,11.2512981 36.352944,11.4597283 C36.3568801,11.5088864 36.3391677,11.5541118 36.3391677,11.6013035 C36.354912,11.6445626 36.4139534,11.6799564 36.4060812,11.7350135 C36.4021451,11.823498 36.3450718,11.872656 36.309647,11.9473763 C36.3116151,12.0594567 36.4493782,11.9316457 36.482835,11.9021509 C36.5182598,11.8864203 36.5064515,11.933612 36.4887391,11.9513089 C36.4808669,11.9729385 36.5005474,11.9886691 36.5123556,12.000467 C36.5497485,12.0161976 36.6009177,12.0319282 36.6343744,12.006366 C36.6461827,11.994568 36.659959,11.9768711 36.6697992,11.9650732 C36.6914477,11.9513089 36.7091601,11.9749048 36.7190004,11.9906354 C36.8174026,12.1912003 36.8862842,12.0515914 37.0516,12.0633893 C37.094897,12.0633893 37.1539383,12.0358608 37.1932992,12.0181639 C37.2444684,11.9985007 37.3192541,11.9749048 37.3487748,12.0220966 C37.3507428,12.0476588 37.3054778,12.0810862 37.2976056,12.1046821 C37.2779252,12.0830526 37.2464364,12.3917652 37.2523406,12.3976642 C37.2326601,12.5097446 37.2523406,12.670983 37.3782955,12.5530037 C37.5652597,12.4822161 37.793553,12.3347419 38.0021657,12.3445735 C38.0316864,12.3406408 38.1123763,12.3249102 38.0966319,12.3878326 C38.1084402,12.4369906 38.1576413,12.4861487 38.1950341,12.5176099 C38.2619477,12.5412057 38.2855642,12.4448559 38.3544458,12.4487886 C38.3918387,12.4546875 38.4213593,12.4605865 38.4567841,12.4468223 C38.5040172,12.4192937 38.5276338,12.3622704 38.5709308,12.3288429 C38.7421507,12.256089 38.9369871,12.2718195 39.1180473,12.2403584 C39.1613443,12.2128299 39.2341619,12.1695708 39.2912352,12.1774361 C39.3590777,12.1432955 39.4188053,12.0950188 39.4663912,12.0358608 C39.541177,11.9552416 39.6474514,11.8942856 39.6907484,11.7881042 C39.7035071,11.7533945 39.7236508,11.7218636 39.7497897,11.695687 C39.7574183,11.7082807 39.7709332,11.7161342 39.7856613,11.7165319 C39.8003894,11.7169296 39.8143091,11.709817 39.8226074,11.6976533 C39.8954251,11.5973709 40.0548367,11.4970884 40.1001017,11.3751764 C40.153239,11.324052 40.2201525,11.2984898 40.2752577,11.2473654 C40.3185547,11.2277022 40.3835002,11.1883758 40.4051487,11.1392177 C40.4451399,11.1231632 40.4866917,11.1113016 40.5291356,11.1038239 C40.5586562,11.0743291 40.5625923,11.0487669 40.5980171,11.0291036 C40.6452502,11.0035414 40.7456205,10.9878109 40.7967897,10.9740466 C40.8735434,10.9327538 40.9148724,10.8658989 40.9739137,10.8108418 C40.983754,10.7892123 41.1333254,10.6771319 41.1530058,10.6515697 L41.5210303,10.531624 L41.6115603,10.4372405 C41.6375948,10.4172885 41.6652424,10.3995306 41.6942182,10.3841498 C41.7099626,10.3821835 41.7453874,10.3939814 41.7532596,10.4136447 C41.8103329,10.4981965 41.9126712,10.3920151 41.9717126,10.3762845 C42.0524024,10.3782508 42.0110735,10.4962302 42.0209137,10.5473546 C42.03469,10.6574687 42.0583065,10.8167408 42.0681468,10.9288212 C42.0543705,10.9760129 42.0622426,11.0507332 42.0996355,11.0743291 C42.1409644,11.0625311 42.1134118,10.9878109 42.1586768,10.9819119 C42.1960697,10.9799456 42.1980377,11.0350026 42.2413347,11.0212383 C42.3200565,11.0133731 42.2393667,11.1628136 42.3082483,11.1824768 C42.3279287,11.1785442 42.3574494,11.1864094 42.3751618,11.1844431 C42.3869701,11.1824768 42.4223949,11.1569146 42.4381392,11.1588809 C42.4597877,11.1726452 42.4617558,11.208039 42.4538836,11.2355675 C42.4499475,11.2611297 42.4735641,11.2925909 42.4479795,11.3122541 C42.4223949,11.3555132 42.3771298,11.3555132 42.3377689,11.3791091 C42.251175,11.4597283 42.426331,11.445964 42.4440434,11.5029874 C42.5522859,11.5875393 42.5542539,11.7527104 42.646752,11.8470939 C42.7141469,11.8321818 42.782563,11.8223227 42.8514287,11.817599 L42.9714794,11.7999021 C43.0049362,11.7861378 43.0561054,11.7448451 43.0954663,11.7409124 C43.17222,11.7173166 43.2647182,11.7133839 43.34344,11.701586 C43.4516824,11.6799564 43.5323723,11.5718087 43.6425828,11.5600107 C43.6622633,11.5541118 43.7114644,11.5246169 43.7154005,11.4990547 C43.7409851,11.4774252 43.782314,11.4793915 43.8138027,11.4734926 C43.8610358,11.4951221 43.9377896,11.445964 43.9456617,11.5088864 C43.9023647,11.5659097 43.8334832,11.6425963 43.9161411,11.7055186 C43.9968309,11.7350135 44.0794888,11.6937207 44.1601786,11.6878217 C44.2487407,11.6779901 44.349111,11.6740575 44.4357049,11.6484953 C44.4770339,11.6327647 44.5124587,11.5777077 44.5636279,11.5757413 C44.5852764,11.5914719 44.6462858,11.5855729 44.6679343,11.6032698 C44.6817106,11.6170341 44.7033591,11.6386637 44.7230395,11.6386637 C44.7997933,11.6425963 44.9139399,11.5580444 44.9946297,11.579674 C45.0674474,11.5973709 45.0694154,11.7074849 45.1540414,11.6937207 C45.2052106,11.6622595 45.2898365,11.6563606 45.3508459,11.6563606 C45.4079192,11.6032698 45.4984493,11.5619771 45.5692989,11.5305159 C45.6204681,11.518718 45.6657331,11.5777077 45.7109981,11.5895056 C45.7838158,11.5659097 45.8408891,11.5383812 45.923547,11.5324822 C45.9786523,11.5403475 46.0573741,11.5010211 46.1046071,11.4774252 C46.1556581,11.4816827 46.2069124,11.4829957 46.2581146,11.4813578 C46.3092838,11.4852905 46.3742293,11.4616946 46.4175263,11.4361324 C46.492312,11.4125365 46.5493853,11.4243345 46.622203,11.4066376 C46.6517237,11.4086039 46.7147011,11.4027049 46.7481579,11.4027049 C46.7953909,11.4184355 46.8209755,11.4636609 46.8760808,11.4616946 C46.972344,11.4458389 47.0710352,11.4539434 47.1634154,11.4852905 C47.2421372,11.5423138 47.4172932,11.5442802 47.4861748,11.6170341 C47.5137274,11.6583269 47.5255357,11.7173166 47.5570244,11.7546767 C47.5963853,11.7802389 47.6613308,11.8254643 47.6770751,11.878555 C47.6967556,11.9591742 47.6869153,12.0574904 47.7124999,12.1400759 C47.7715413,12.1636718 47.8246785,12.1577728 47.8620714,12.2167625 C47.8809483,12.2493232 47.9134569,12.2716984 47.9506334,12.2777185 C47.9978665,12.2619879 48.0372274,12.2305268 48.0883965,12.2462573 C48.2005751,12.4291253 48.4426446,12.5667679 48.6492894,12.4428896 C48.7043946,12.4350243 48.7378514,12.3367082 48.7988608,12.3465398 C48.8224773,12.3367082 48.8165732,12.2934491 48.8283815,12.2737859 C48.8342856,12.2482237 48.8736465,12.1931666 48.8913589,12.1715371 C48.9228476,12.1361433 48.9602405,12.1813687 48.9917292,12.1912003 C49.0330581,12.1872677 49.0468345,12.1499075 49.0901315,12.1558065 C49.1727893,12.1086148 49.2574153,12.0692883 49.3558175,12.0928842 C49.3775715,12.1089531 49.4078753,12.10643 49.4266672,12.0869852 C49.4502837,12.0850189 49.4758683,12.1105811 49.4994848,12.0968168 C49.5388457,12.0928842 49.5565581,12.1322106 49.5644303,12.1636718 C49.5663984,12.1912003 49.6195356,12.195133 49.637248,12.1970993 C49.6943213,12.1970993 49.7435224,12.1636718 49.8025638,12.1695708 C49.8419247,12.1715371 49.8950619,12.1912003 49.9324547,12.1597391 C49.9796878,12.1676044 49.9796878,12.2383921 50.0367611,12.2206952 C50.0682498,12.2206952 50.1056427,12.183335 50.1253231,12.1636718 C50.1666521,12.1558065 50.2138852,12.1184464 50.2473419,12.0968168 C50.2689904,12.0987831 50.2729265,12.1243453 50.2709585,12.1420422 C50.2886709,12.2108635 50.3890412,12.1872677 50.4224979,12.2462573 C50.4539867,12.3091797 50.5386126,12.2639542 50.5740374,12.2324931 C50.644887,12.1990656 50.731481,12.1735034 50.8102028,12.1931666 C50.8475957,12.1872677 50.8830205,12.183335 50.9164772,12.1754697 C50.9322216,12.1656381 50.9676464,12.1361433 50.9873269,12.1459749 C51.0188156,12.1459749 50.9833908,12.1774361 50.9696145,12.183335 C50.7531295,12.2580553 50.5031878,12.3131123 50.3024472,12.433058 C50.2571822,12.427159 50.2571822,12.378001 50.2414378,12.3485061 C50.2138852,12.3367082 50.1587799,12.3563714 50.1351634,12.3760346 C49.9718156,12.4625528 50.0938344,12.560869 50.0879303,12.6867136 C50.0997386,12.7299727 50.0406972,12.6985115 50.0210168,12.7024442 C50.0013363,12.6926126 49.9914961,12.6670504 49.9836239,12.6493535 C49.9777198,12.560869 49.8478288,12.6572188 49.8104359,12.676882 C49.7395863,12.7201411 49.8458607,12.737838 49.8320844,12.7889624 C49.7021935,12.853851 49.6195356,12.9639651 49.5191653,13.0622812 C49.4758683,13.1271699 49.3814021,13.1900922 49.3144886,13.2235197 C49.2065813,13.3418442 49.0761061,13.4374423 48.9307198,13.5047038 C48.7339153,13.6010536 48.4957819,13.6226832 48.3127537,13.7426289 C48.2596164,13.8075175 48.2163195,13.9038673 48.153342,13.9608907 C48.0726522,13.9726886 47.9703138,14.0139814 47.9112725,14.0690384 C47.8168063,14.2204453 47.6003214,14.1732535 47.5078232,14.3128624 C47.4507499,14.3620205 47.4172932,14.3384246 47.3523477,14.3462899 C47.1752236,14.4229765 47.0118759,14.523259 46.8308158,14.566518 C46.7698064,14.5920802 46.7206052,14.6628679 46.6595958,14.694329 C46.5950936,14.7018469 46.5312698,14.7143375 46.4686955,14.7316891 C46.2640188,14.8595001 46.0081729,14.8673654 45.7956241,14.9715805 C45.7444549,15.0286039 45.7326466,15.1072568 45.6480207,15.1249537 C45.4945132,15.1052904 45.3173891,15.2055729 45.1737218,15.248832 C45.0851598,15.2272025 45.0280865,15.2566973 44.9828215,15.3314176 C44.8470264,15.4454643 44.5616598,15.4238347 44.4317689,15.5752416 C44.3176222,15.6558608 44.2251241,15.7758065 44.0952332,15.8387288 C44.000767,15.9409776 43.825611,15.9626071 43.7213046,16.0314284 C43.6169982,16.1710373 43.4654587,16.2595218 43.300143,16.3027809 C43.2017407,16.4050297 43.038393,16.4856489 42.9281825,16.5760998 C42.3594174,17.0971753 41.7670359,17.643813 41.2199194,18.1747201 C41.0762521,18.2651709 40.9207765,18.4106788 40.855831,18.5719172 C40.7023235,18.6604018 40.590145,18.8059096 40.4996149,18.9533838 C40.3382352,19.0811948 40.2929702,19.2797934 40.1965359,19.4429982 C40.0646769,19.5314827 40.0489326,19.7123844 39.9288818,19.8087342 C39.7950548,19.8952524 39.716333,20.0545245 39.6080905,20.1626723 C39.5825059,20.2000324 39.6218668,20.2472241 39.5805379,20.276719 C39.4585191,20.3396413 39.3660209,20.4772839 39.2617146,20.5657684 C39.1711845,20.6345897 39.1711845,20.7663333 39.0865585,20.8371209 C39.0117728,20.9334707 38.8759777,21.01409 38.7834796,21.0947092 C38.6594928,21.2913414 38.5591225,21.5548287 38.3485417,21.6688754 C38.1970022,21.6983702 38.1340248,21.8989351 37.9844533,21.9461269 C37.9017954,22.0719715 37.7443518,22.0110155 37.6990868,22.2037151 C37.6243011,22.3413577 37.4432409,22.4062464 37.3763274,22.5478216 C37.3743594,22.5694512 37.4274966,22.6146766 37.3920718,22.6323735 C37.356647,22.6775989 37.2976056,22.6697336 37.2464364,22.6815315 C37.2208519,22.7090601 37.2385643,22.775915 37.2011714,22.7916456 C37.1559064,22.7837803 37.0929289,22.8290057 37.0456958,22.8545679 C36.9492616,22.8860291 36.9099007,22.9627157 36.8626677,23.0413686 C36.6619271,23.2596304 36.4769308,23.4995218 36.26635,23.702053 C36.2053406,23.7472784 36.1640117,23.707952 36.1010342,23.7158172 C35.9809835,23.8593588 35.7959873,23.9557086 35.6483839,24.067789 C35.4882864,24.2346492 35.318757,24.3922129 35.1406283,24.5397064 C34.9674403,24.6380226 34.7745719,24.738305 34.648617,24.9054424 C34.5777674,24.9703311 34.4872373,25.054883 34.4026114,25.0922431 C34.34357,25.1473001 34.3455381,25.2239867 34.3140493,25.2908417 C34.3317617,25.3301681 34.3730907,25.41472 34.3140493,25.4166863 C34.3101133,25.4186526 34.3573463,25.5110698 34.3376659,25.5032045 C34.2392636,25.5051708 34.1408614,25.5779248 34.0759159,25.6467461 C34.0463952,25.7018031 34.0582035,25.7725907 34.0326189,25.8276478 C33.9971941,25.8925364 33.947993,25.8374794 33.8928877,25.8374794 C33.8161339,25.8178161 33.7433163,25.8807385 33.7000193,25.9377618 C33.5150231,26.1815858 34.0601715,25.9770883 33.7452843,26.274003 C33.6075212,26.3703528 33.7157637,26.4175445 33.6508182,26.5099617 C33.5957129,26.5473218 33.5071509,26.5060291 33.4461415,26.5256923 C33.3851321,26.5453555 33.3477392,26.4981638 33.2965701,26.4981638 C33.1706152,26.5551871 33.1706152,26.4352414 33.0997656,26.3762518 C33.1529028,28.0200975 33.2335926,29.7465288 33.2906659,31.3903745 C33.249337,31.5024549 33.426461,32.2968492 33.2375287,32.2889839 C33.0643407,32.2988155 32.9580663,32.4895488 32.989555,32.6389893 C33.032852,32.7196086 32.9403539,32.8041604 32.900993,32.8670828 C32.8262073,32.9083755 32.7455175,32.8375879 32.6707317,32.8375879 C32.6156265,32.7982615 32.5644573,32.764834 32.4936077,32.764834 C32.4011096,32.7903962 32.2928671,32.8592175 32.3046754,32.9673652 C32.2180814,33.0184896 32.2692506,33.0519171 32.2102092,33.1050078 C32.1669122,33.1227047 32.1747844,33.1738291 32.1806885,33.2092229 C32.1728163,33.2328188 32.1452637,33.2485494 32.1236152,33.2603473 C32.0803182,33.2800105 32.0389893,33.2485494 31.9976603,33.258381 C31.9543633,33.2623136 31.9425551,33.2269198 31.9110664,33.2072566 C31.8763575,33.2118508 31.8410984,33.2049433 31.8106961,33.1875934 C31.7024536,33.1816944 31.6158596,33.2662463 31.5804348,33.3606298 C31.5391058,33.4255184 31.6689968,33.5375988 31.4800645,33.5218682 C31.3915025,33.5533294 31.3245889,33.6162517 31.2301228,33.624117 C31.1140081,33.751928 30.9683728,33.6752414 30.978213,33.7774902 C30.9545965,33.8148503 30.8994912,33.7853554 30.8680025,33.8089513 C30.8168333,33.8482778 30.7223672,33.8856379 30.7341754,33.9603582 C30.7361435,34.0055836 30.6692299,34.0193478 30.6416773,34.0390111 C30.6106042,34.0675518 30.574593,34.0902057 30.5354029,34.105866 C30.4507769,34.1864853 30.3602469,34.288734 30.3484386,34.4086797 C30.3287582,34.4735684 30.3425345,34.5699182 30.2913653,34.6249752 C30.2441322,34.6800322 30.1280176,34.7075608 30.1634424,34.7999779 C30.1772187,34.8570013 30.2461003,34.9238562 30.2106754,34.9887449 C30.1811548,35.0497009 30.1083371,35.087061 30.0886567,35.153916 C30.0551999,35.2620637 30.0689762,35.3957737 29.9804142,35.4842582 C29.8918522,35.5727427 29.8269067,35.6907221 29.710792,35.7438128 C29.5198916,35.8558932 29.4510101,35.8165667 29.4667544,36.0721887 C29.4413786,36.1744543 29.4288181,36.2794738 29.4293616,36.384834 C29.3972098,36.4769606 29.3767144,36.5727425 29.3683522,36.6699507 C29.3722883,36.7643342 29.3900007,36.8744483 29.3978729,36.9688318 C29.3919687,37.0258551 29.3703202,37.0927101 29.4116492,37.1418682 C29.4214894,37.2126558 29.3880326,37.2952413 29.4667544,37.3404668 C29.5631886,37.3935575 29.6714311,37.3424331 29.7698334,37.3896248 C29.8249386,37.4112544 29.9016924,37.4368166 29.9587657,37.4033891 C30.0237112,37.366029 30.1004649,37.3208035 30.1791867,37.3365341 C30.3051416,37.4073217 30.4586491,37.4800757 30.5137544,37.6177182 C30.5491792,37.7081691 30.454713,37.8163168 30.5491792,37.8812055 C30.7046548,37.9932859 30.7302393,38.207615 30.8680025,38.3334597 C30.9467243,38.3806514 31.0411905,38.4062136 31.0864555,38.4966645 C31.1179442,38.5753174 31.0962957,38.6716672 31.0943277,38.7522864 C31.108104,38.8191414 31.1218803,38.895828 31.0844874,38.9607166 C31.0470946,39.0256053 30.9801811,39.0806623 30.934916,39.1416183 C30.8935871,39.2242038 30.8266735,39.2890925 30.7538559,39.3500485 C30.6869423,39.4188698 30.7636961,39.5191522 30.7538559,39.5958388 C30.7282713,39.8082017 30.5275307,39.9615748 30.3582788,40.0657899 C30.3169499,40.1464092 30.3976397,40.2329273 30.4133841,40.3076476 C30.3523747,40.4551218 30.4035439,40.6124276 30.4251924,40.7618681 C30.4192882,40.8149588 30.3799273,40.8660832 30.3622149,40.9152413 C30.3484386,40.9860289 30.3346623,41.0823787 30.3897675,41.1394021 C30.49801,41.223954 30.4822657,41.3733945 30.4704574,41.4972728 C30.4645533,41.6034542 30.5550833,41.7135683 30.5216266,41.8177834 C30.4645533,41.9259311 30.3484386,41.9986851 30.2716848,42.0930686 C30.2106754,42.1402603 30.1260495,42.187452 30.1299856,42.2759366 C30.1595063,42.6633021 30.4901378,42.4037475 30.3858315,42.9031935 C30.3385984,43.0703309 30.4370006,43.2433673 30.5058822,43.3888752 C30.49801,43.546181 30.5688596,43.7821397 30.4173202,43.8765232 C30.3346623,43.8981527 30.3838634,43.9984352 30.40748,44.0456269 C30.4448728,44.1124819 30.4822657,44.2048991 30.452745,44.283552 C30.4212563,44.3209121 30.4251924,44.4015313 30.452745,44.4408578 C30.4646164,44.5057461 30.4605646,44.5725428 30.4409367,44.6355237 C30.3956717,44.7279409 30.3385984,44.826257 30.3445025,44.9344048 C30.3326942,45.015024 30.2559405,45.0995759 30.2185476,45.1723298 C30.1898083,45.2502461 30.1823366,45.3343996 30.1968991,45.4161538 C30.2244518,45.4653119 30.2736529,45.4790761 30.3130138,45.5125036 C30.3858315,45.5419985 30.4921059,45.5950892 30.5511472,45.6501462 C30.6023164,45.6698094 30.6692299,45.6875063 30.714495,45.7209338 C30.8601303,45.8526774 31.0274141,45.9706568 31.1454968,46.1338616 C31.237995,46.2636389 31.4052788,46.3147632 31.5076171,46.4366752 C31.5312337,46.4524058 31.5489461,46.5113955 31.5646904,46.5349914 C31.5528822,46.5802168 31.5410739,46.6451054 31.5686265,46.6883645 C31.60786,46.7073312 31.6496145,46.720575 31.6926134,46.727691 C31.7496867,46.7630848 31.8205363,46.8043776 31.8913859,46.7925796 C31.9563314,46.8142092 31.9976603,46.8928621 32.0311171,46.9459528 C32.0783502,46.9734813 32.0606378,47.0403363 32.0744141,47.0855617 C32.0980306,47.1799452 32.1984009,47.0757301 32.2554742,47.0698311 C32.3027073,47.0816291 32.3263239,47.1268545 32.375525,47.1366861 C32.4089818,47.1425851 32.4503107,47.1248882 32.4837675,47.1229218 C32.5270645,47.1189892 32.5742975,47.1425851 32.6195626,47.1406188 C32.7356772,47.1327535 32.8478558,47.1111239 32.9639705,47.1386524 C33.030884,47.148484 33.0977975,47.2035411 33.1686471,47.2074737 C33.2690174,47.1956758 33.3674197,47.1681473 33.4638539,47.215339 C33.5878407,47.2526991 33.7433163,47.3293857 33.8062937,47.4493314 C33.8594309,47.6046709 33.8535268,47.7816399 33.9657054,47.9114172 C34.1703821,48.0175986 34.298305,48.2299615 34.4990456,48.3400756 C34.8021245,48.379402 35.0953632,48.495415 35.3945061,48.5504721 C35.4181226,48.5544047 35.4496113,48.5937312 35.4732279,48.6015965 C35.522429,48.6192934 35.5814703,48.6192934 35.6247673,48.6487882 C35.6798726,48.6723841 35.7192335,48.7431717 35.7723707,48.7746329 C35.829444,48.811993 35.9121019,48.8355889 35.9770474,48.8591847 C36.0105042,48.8768816 36.0734816,48.9358713 36.1207147,48.9358713 C36.1718839,48.9555345 36.2368293,48.9516019 36.2781583,48.9909283 C36.3588481,49.0322211 36.3706564,49.1639647 36.4513462,49.2013249 C36.5690379,49.2616566 36.6439263,49.3818266 36.6461827,49.5139702 C36.618486,49.5382128 36.5957614,49.5675954 36.5792692,49.6004884 C36.5782219,49.6274973 36.5802023,49.6545386 36.5851733,49.6811076 C36.6245342,49.7715584 36.7819778,49.7636931 36.7937861,49.8738072 C36.7760737,49.9347632 36.8370831,49.9878539 36.8705398,50.0330793 C36.8980925,50.0763384 36.8646357,50.1490924 36.8449553,50.1943178 C36.8390511,50.3280277 36.9433575,50.4283102 37.0063349,50.5384243 C37.0437278,50.5974139 37.1362259,50.6288751 37.1893631,50.6701679 C37.3094139,50.7842146 37.3979759,50.9395541 37.5593556,51.0024764 C37.6006845,51.0241059 37.6794064,51.067365 37.7305755,51.0712977 C37.7817447,51.1066915 37.8663706,51.1676475 37.9332842,51.1794454 C38.0336545,51.1676475 38.1556732,51.2325361 38.1615774,51.3446165 C38.1733857,51.4861918 38.3387014,51.5432151 38.45088,51.5923732 C38.5079533,51.6159691 38.5236977,51.6847904 38.5728988,51.7182178 C38.6454655,51.7872621 38.7260778,51.8473384 38.8130003,51.8971532 C38.9369871,51.9207491 38.9861883,52.0780549 39.0944307,52.1232803 C39.2636826,52.1980006 39.4624552,52.170472 39.6415472,52.2019332 C39.6887803,52.2156975 39.7379815,52.2569902 39.7734063,52.2884514 C39.9406901,52.3199126 40.1296224,52.3159799 40.241801,52.4654204 C40.3382352,52.6777833 40.5724325,52.785931 40.7062596,52.9668327 C40.723972,53.0199234 40.7692371,53.1064416 40.7928536,53.157566 C40.8302464,53.1988588 40.8932239,53.2598148 40.9227446,53.3089728 C41.01284,53.3637364 41.0794446,53.4498964 41.1097088,53.5508305 C41.1628461,53.6727425 41.2809288,53.761227 41.3576825,53.8654421 C41.4108197,53.9303308 41.4108197,54.0306132 41.4383724,54.1072998 C41.4797013,54.1859527 41.4895415,54.3098311 41.5407107,54.3786524 C41.5918799,54.4396084 41.6646975,54.4848338 41.6489532,54.5733183 C41.6076242,54.748321 41.641081,54.9410206 41.5367746,55.0963601 C41.5269344,55.2693965 41.5072539,55.4502982 41.5052859,55.6213683 C41.4895415,55.6842906 41.5781036,55.7098528 41.5899118,55.7649098 C41.597784,55.8337311 41.5407107,55.8848555 41.5682633,55.9536768 C41.5584231,56.0421613 41.6174645,56.1306458 41.6725697,56.1955345 C41.7335791,56.2545241 41.8319814,56.3174465 41.8477257,56.4078973 C41.8654381,56.5475062 41.7571957,56.6969467 41.8083648,56.832623 C41.8411806,56.9079356 41.8902378,56.9750784 41.9520321,57.0292553 C42.0091054,57.0685817 41.9776167,57.1550999 41.9756487,57.2121233 C29.5690928,57.7646599 16.644941,58.2562406 4.41354115,57.8511781 C4.48045469,52.231428 4.56901671,46.1692554 4.6339622,40.5514716 C4.63593024,40.425627 4.66151483,40.2840517 4.63789829,40.1621397 C4.61821784,40.1228133 4.57492085,40.0913521 4.54736822,40.0579246 C4.52768777,39.9733728 4.51391145,39.8888209 4.47848664,39.8082017 C4.40763702,39.5978051 4.21476861,39.4916237 4.01599606,39.4287014 C3.85390317,39.3574181 3.70437948,39.2604787 3.57318593,39.1416183 C3.33702052,39.1160561 3.05755813,39.1868437 2.93357129,38.9233565 C2.76628746,38.7149263 2.61868408,38.4652033 2.58129123,38.1977834 C2.4750168,37.9362625 2.26837207,37.7121017 2.10305629,37.4859746 C2.03023862,37.3856922 1.94561268,37.2755781 1.90034765,37.1615314 C1.91412396,36.9845624 1.95742095,36.7761322 2.10502433,36.6640518 C2.20145854,36.6011294 2.33331755,36.5500051 2.42975176,36.4890491 C2.52421792,36.4064635 2.58522732,36.3258443 2.67575739,36.2452251 C2.90405061,36.0348285 3.31734007,35.9974684 3.39212578,35.641564 C3.43285378,35.5135299 3.51441834,35.4023401 3.6243551,35.3249861 C3.70898103,35.2247036 3.79754306,35.1086906 3.84084005,34.9848122 C3.88610509,34.7390219 3.9392423,34.471602 3.95105057,34.2218791 C3.94682438,34.14773 3.94945962,34.0733495 3.95892275,33.9996846 C3.98450734,33.9564255 4.00615583,33.9092338 4.00221974,33.8600757 C3.92779547,33.6268938 3.89190027,33.3831529 3.89594531,33.1384353 C3.83690396,32.9948937 3.97466711,32.886746 4.00418779,32.7550024 C4.06716523,32.5505048 4.02190019,32.3165124 3.96285884,32.1139812 C3.95695471,32.0254967 3.9392423,31.9448775 3.89004118,31.8701572 C3.88807313,31.789538 3.93333817,31.7010535 3.8998814,31.6224005 C3.91365772,31.5732425 3.838872,31.5889731 3.82706373,31.5575119 C3.81525546,31.5044212 3.83493591,31.4650947 3.86445659,31.4277346 C3.87232877,31.3943071 3.82312764,31.4257683 3.81919155,31.3962734 C3.85264832,31.3687449 3.83099982,31.3392501 3.83493591,31.3058226 C3.86248855,31.2763278 3.83493591,31.2527319 3.80738328,31.2487992 C3.77392652,31.1504831 3.7030769,30.9676151 3.81328742,30.9007601 C3.82706373,30.8987938 3.838872,30.9027265 3.85068028,30.8948612 C3.88413704,30.857501 3.81525546,30.8457031 3.79163892,30.8516021 C3.77786261,30.8358715 3.78573479,30.8162083 3.78573479,30.796545 C3.78376674,30.7631176 3.7601502,30.7316564 3.74834193,30.7021616 C3.73456562,30.6687341 3.74440584,30.6451382 3.76999043,30.6215423 C3.7817987,30.6117107 3.77786261,30.5999128 3.77786261,30.5881148 C3.77983065,30.5566537 3.79163892,30.5173272 3.75424607,30.5094619 C3.73850171,30.4937314 3.78376674,30.4780008 3.78573479,30.4642365 C3.77589456,30.4445733 3.75030998,30.4485059 3.73653366,30.4327754 C3.72472539,30.4131121 3.75621411,30.4091795 3.76999043,30.4013142 C3.77195847,30.381651 3.75030998,30.375752 3.73850171,30.3659204 C3.73653366,30.3324929 3.77983065,30.3167623 3.77392652,30.2833348 C3.77786261,30.2282778 3.79360697,30.1338943 3.73259757,30.1024332 C3.79557501,30.0591741 3.68930058,30.0375445 3.66568404,30.0021507 C3.63616337,29.9824875 3.65977991,29.9510263 3.64993968,29.9254641 C3.64993968,29.8959693 3.6027066,29.9058009 3.59089833,29.8861377 C3.57515397,29.8114174 3.49446412,29.8979356 3.45707127,29.8487775 C3.44911209,29.8207679 3.45120053,29.7908597 3.4629754,29.7642257 C3.43673676,29.7233063 3.40568245,29.6856777 3.37047729,29.6521453 C3.34686075,29.6226504 3.30946789,29.5990546 3.29765962,29.5597281 C3.30356376,29.5302333 3.30356376,29.5066374 3.31143594,29.4791089 C3.30356376,29.4692773 3.27207504,29.4751762 3.26813895,29.4594457 C3.26420286,29.4437151 3.2661709,29.4201192 3.26223481,29.4043886 C3.25633067,29.3630958 3.23271413,29.3159041 3.19335323,29.3021398 C3.18351301,29.3001735 3.17564083,29.2903419 3.18351301,29.2805103 C3.19532128,29.2431502 3.14218406,29.2608471 3.12840775,29.2470828 C3.13234384,29.1959584 3.16186451,29.1585983 3.09298294,29.1900595 C3.06346226,29.1998911 3.05755813,29.1664636 3.08117467,29.1546656 C3.11069534,29.1251708 3.0870788,29.095676 3.05755813,29.0858444 C3.08117467,28.9383702 3.01622918,29.0602822 2.96702806,29.0052251 C2.96309197,28.9855619 2.9689961,28.9658987 2.99261264,28.973764 C3.0300055,28.961966 2.95128369,28.9226396 2.96112392,28.8951111 C2.97686828,28.8774142 2.98474046,28.8892121 3.00245287,28.8793805 C3.01819723,28.8597173 2.98474046,28.8597173 2.99261264,28.8420203 C2.99161646,28.828631 3.00100488,28.8166926 3.01426114,28.8144918 C3.03394159,28.8007276 3.01622918,28.784997 3.008357,28.7751654 C3.008357,28.7653338 2.98474046,28.7614011 2.99261264,28.7476369 C3.01229309,28.7338726 2.99654873,28.7220747 2.98474046,28.7161757 C2.96112392,28.7142094 2.94537956,28.7456705 2.94341151,28.7122431 C2.95434699,28.7019975 2.96620555,28.6927823 2.97883633,28.6847145 C3.01032505,28.6552197 2.91192279,28.6650513 2.90601866,28.6276912 C2.90405061,28.5981963 2.85878558,28.6158932 2.8509134,28.5863984 C2.87452994,28.5647689 2.84894535,28.5490383 2.84107317,28.5313414 C2.84304122,28.5038129 2.86272167,28.5038129 2.88043407,28.4959476 C2.88361052,28.4717038 2.87950027,28.4470639 2.8686258,28.42516 C2.85484949,28.4094294 2.83516904,28.4054967 2.82532881,28.3858335 C2.83123295,28.3642039 2.84304122,28.3445407 2.8686258,28.3484734 C2.92373106,28.3366754 2.83123295,28.297349 2.84107317,28.2717868 C2.90405061,28.2796521 2.84697731,28.2344267 2.84500926,28.2049318 C2.82336077,28.2009992 2.80368032,28.169538 2.83910513,28.1675717 C2.86272167,28.1557738 2.83910513,28.1321779 2.82139272,28.1380768 C2.79384009,28.1223463 2.81548859,28.0790872 2.80171227,28.0574576 C2.79974423,28.0377944 2.81942468,28.0358281 2.83320099,28.0240301 C2.84500926,28.0004343 2.80171227,27.980771 2.78793596,27.9689731 C2.78115493,27.9596637 2.78109899,27.9470629 2.78779709,27.9376937 C2.79449519,27.9283246 2.80644348,27.9242907 2.81745663,27.9276803 C2.83713708,27.9119497 2.82139272,27.8922865 2.8115525,27.8785223 C2.78596791,27.8765559 2.79384009,27.8313305 2.77415964,27.8155999 C2.79580814,27.7507113 2.83516904,27.7310481 2.77415964,27.6681257 C2.8115525,27.5973381 2.73873483,27.6563278 2.74070288,27.6307656 C2.7489574,27.6177328 2.75888171,27.6058341 2.77022355,27.5953718 C2.76038333,27.5796412 2.73086265,27.5894728 2.71511829,27.5737423 C2.72495852,27.5678433 2.76825551,27.5560453 2.76038333,27.5324495 C2.74463897,27.5265505 2.69937393,27.5344158 2.70331002,27.5068873 C2.69937393,27.493123 2.72299047,27.4832914 2.72889461,27.4734598 C2.72889461,27.4616619 2.71511829,27.4518302 2.72495852,27.438066 C2.72495852,27.371211 2.64426867,27.4577292 2.62065213,27.4302007 C2.62655626,27.371211 2.66788521,27.3495815 2.60097168,27.322053 C2.60687581,27.3082887 2.63049235,27.2866591 2.61868408,27.2669959 C2.60884386,27.261097 2.57341905,27.261097 2.57735514,27.2453664 C2.59113145,27.2355348 2.60293972,27.2316021 2.61671604,27.2217705 C2.62655626,27.1745788 2.55177055,27.2198042 2.53602619,27.2139052 C2.51240965,27.1922757 2.56554687,27.1863767 2.57538709,27.1785114 C2.59506754,27.1549155 2.51831379,27.1726124 2.51831379,27.1509829 C2.52815401,27.1352523 2.57341905,27.1313197 2.55767469,27.1037911 C2.54783446,27.0821616 2.51240965,27.0998585 2.49469725,27.0959259 C2.4750168,27.1057575 2.46714462,27.0821616 2.48288898,27.066431 C2.50060138,27.0408688 2.52224988,27.0192393 2.52421792,26.9897444 C2.52618597,26.9602496 2.48485702,26.9740138 2.47698484,26.9582833 C2.50453747,26.9366537 2.50256943,26.9091252 2.48682507,26.883563 C2.48682507,26.8599671 2.44549612,26.8638998 2.43762394,26.8462029 C2.4453597,26.8323465 2.45194202,26.817878 2.45730439,26.8029438 C2.46911266,26.7695163 2.44943221,26.706594 2.50256943,26.7046276 C2.52421792,26.6770991 2.46911266,26.6869307 2.46714462,26.6692338 C2.46124048,26.6377727 2.50060138,26.6594022 2.51240965,26.645638 C2.43762394,26.5650187 2.57538709,26.6240084 2.53405815,26.5315913 C2.52560632,26.5157042 2.52026285,26.4983531 2.51831379,26.4804669 C2.54783446,26.4843995 2.53602619,26.450972 2.54783446,26.4352414 C2.59113145,26.3880497 2.49469725,26.390016 2.53405815,26.3683865 C2.56554687,26.3467569 2.57735514,26.2700703 2.54193033,26.2366429 C2.54980251,26.2091143 2.58522732,26.2209123 2.58916341,26.1953501 C2.58129123,26.1815858 2.56357882,26.1835522 2.5537386,26.1697879 C2.56751491,26.1560236 2.58719536,26.1481583 2.58916341,26.1304614 C2.57932318,26.1206298 2.56357882,26.1107982 2.56554687,26.0950676 C2.57696566,26.0821965 2.58626574,26.0675949 2.5930995,26.0518085 C2.60293972,25.9770883 2.52421792,25.8846711 2.5930995,25.8256814 C2.62065213,25.7883213 2.54193033,25.7902876 2.56554687,25.7666918 C2.65804498,25.7529275 2.51831379,25.7273653 2.53996228,25.6860725 C2.55177055,25.6742746 2.57735514,25.6742746 2.57538709,25.652645 C2.55862971,25.6399668 2.53506553,25.6416485 2.52028183,25.6565777 C2.50256943,25.6369145 2.52618597,25.6074196 2.55177055,25.603487 C2.59113145,25.5484299 2.50060138,25.5523626 2.49666529,25.5051708 C2.48682507,25.4776423 2.49469725,25.4461812 2.49469725,25.4186526 C2.49076116,25.4029221 2.46714462,25.3891578 2.46911266,25.3714609 C2.48682507,25.3655619 2.48682507,25.3517977 2.49666529,25.3399997 C2.48960027,25.3266878 2.47948484,25.3152337 2.46714462,25.3065723 C2.469762,25.2856134 2.47948589,25.2661826 2.49469725,25.2515152 C2.52421792,25.225953 2.52421792,25.1866266 2.55767469,25.1689297 C2.57341905,25.176795 2.57735514,25.1866266 2.59506754,25.1787613 C2.60687581,25.1669634 2.59113145,25.1531991 2.58522732,25.1433675 C2.56554687,25.1276369 2.50847356,25.1001084 2.54389837,25.0804452 C2.54783446,25.0863441 2.56948296,25.0863441 2.57538709,25.0883104 C2.59113145,25.0843778 2.57341905,25.048984 2.56948296,25.0352197 C2.57735514,25.0076912 2.59900363,25.0273544 2.6108119,25.043085 C2.6501728,25.0529166 2.66198107,25.0057249 2.62852431,24.9978596 C2.6108119,24.9860617 2.61474799,24.9703311 2.6324604,24.9604995 C2.65607694,24.9565668 2.65214085,24.9310046 2.63442844,24.9251057 C2.61474799,24.9231393 2.58916341,24.9172404 2.59506754,24.8956108 C2.71511829,24.8995435 2.52028183,24.7736988 2.63049235,24.7166755 C2.64426867,24.6989786 2.61671604,24.6596521 2.64426867,24.6498205 C2.66591717,24.6478542 2.70527807,24.6871806 2.71708634,24.6439215 C2.70527807,24.6045951 2.63442844,24.561336 2.68953371,24.5298748 C2.71905438,24.50038 2.64623671,24.488582 2.66198107,24.4512219 C2.68118267,24.4173251 2.70577656,24.3867757 2.73479874,24.3607711 C2.74660701,24.3430742 2.73676679,24.3017814 2.76628746,24.2978487 C2.789904,24.3017814 2.80564836,24.2939161 2.79777618,24.2703202 C2.77612769,24.2604886 2.75447919,24.2585223 2.75251115,24.2309938 C2.76323969,24.215396 2.78080727,24.2058886 2.79974423,24.2054316 C2.82532881,24.183802 2.75447919,24.1759367 2.74463897,24.1602062 C2.74660701,24.1425093 2.79580814,24.1405429 2.78203182,24.1130144 C2.7505431,24.0559911 2.67969348,24.1543072 2.64820476,24.1779031 C2.61868408,24.1956 2.58325927,24.1602062 2.55767469,24.1484082 C2.54193033,24.1208797 2.56751491,24.0697553 2.56554687,24.0422268 C2.58325927,23.9498096 2.52618597,24.000934 2.48879311,23.9812708 C2.46911266,23.9557086 2.5143777,23.9380117 2.5143777,23.9124495 C2.51240965,23.9045842 2.48485702,23.8770557 2.49076116,23.8672241 C2.48879311,23.8357629 2.54193033,23.8102007 2.52815401,23.7708743 C2.50453747,23.7354805 2.4927292,23.7984028 2.46714462,23.7984028 C2.46714462,23.7866049 2.44943221,23.7748069 2.43959199,23.7708743 C2.44156003,23.7807059 2.42581567,23.7925038 2.41794349,23.7885712 C2.37687966,23.7731098 2.35584502,23.7275747 2.37071041,23.6863224 C2.39826304,23.6292991 2.352998,23.580141 2.35890214,23.5231176 C2.3746465,23.4778922 2.39039086,23.3795761 2.3136371,23.397273 C2.29002056,23.4051383 2.25065966,23.3894077 2.25853184,23.3579465 C2.29395665,23.3323843 2.29002056,23.2891252 2.30379688,23.2537314 C2.32544537,23.2301356 2.3352856,23.202607 2.36677432,23.1908091 C2.38055064,23.1868765 2.40219913,23.1790112 2.39826304,23.1593479 C2.38055064,23.1436174 2.34512582,23.1495163 2.34315778,23.1180552 C2.36874237,23.0983919 2.42778372,23.1062572 2.44549612,23.0669308 C2.45533635,23.0512002 2.43368785,23.0413686 2.42187958,23.0453012 C2.41007131,23.0492339 2.40023109,23.0669308 2.38645477,23.0590655 C2.38842282,23.0236717 2.4140074,22.9843452 2.34906191,22.9863116 C2.32544537,22.9568167 2.38645477,22.9391198 2.38448673,22.909625 C2.37858259,22.8860291 2.34118973,22.8663659 2.34906191,22.8408037 C2.38448673,22.8329384 2.39826304,22.8073762 2.37661455,22.7778814 C2.36283823,22.7601845 2.39039086,22.7287233 2.36480627,22.714959 C2.35693409,22.7129927 2.34118973,22.7110264 2.3352856,22.7188917 C2.33001543,22.7105863 2.33169664,22.6996681 2.33922169,22.6933295 C2.35693409,22.6697336 2.38645477,22.665801 2.396295,22.6402388 C2.39826304,22.6205755 2.41203936,22.5969797 2.41007131,22.5753501 C2.39039086,22.5655185 2.36874237,22.5792828 2.35102996,22.5655185 C2.34315778,22.5478216 2.36283823,22.5340573 2.37267846,22.5202931 C2.4356559,22.5124278 2.37071041,22.4259096 2.41794349,22.4023137 C2.42224097,22.38271 2.4154416,22.3623298 2.40023109,22.349223 C2.38448673,22.3275935 2.37071041,22.2863007 2.34906191,22.2686038 C2.33331755,22.2568059 2.29789274,22.2548395 2.28608447,22.239109 C2.2742762,22.2194457 2.30379688,22.2056815 2.32150928,22.2155131 C2.38645477,22.2253447 2.40810327,22.1761866 2.352998,22.160456 C2.32938146,22.1230959 2.34906191,22.0582073 2.33725364,22.0149482 C2.3352856,21.977588 2.29198861,21.9638238 2.28608447,21.92843 C2.28608447,21.8733729 2.38645477,21.9441606 2.37071041,21.8851709 C2.35496605,21.8832046 2.33134951,21.861575 2.34315778,21.8458444 C2.36480627,21.8360128 2.38055064,21.8458444 2.40023109,21.8360128 C2.40613522,21.7986527 2.39039086,21.7475283 2.35496605,21.7278651 C2.33134951,21.7180335 2.34118973,21.6885386 2.36283823,21.678707 C2.39039086,21.6452795 2.396295,21.62365 2.352998,21.6295489 C2.32938146,21.6393806 2.30773297,21.6098857 2.3352856,21.5941551 C2.35890214,21.5980878 2.36087018,21.5764582 2.352998,21.5607276 C2.34906191,21.5410644 2.31954124,21.5312328 2.30379688,21.5253338 C2.28411643,21.5292665 2.26837207,21.5607276 2.25853184,21.5351655 C2.28805252,21.3896576 2.4140074,21.5155022 2.32150928,21.4053882 C2.30576492,21.3857249 2.32938146,21.3699944 2.32938146,21.3503311 C2.32938146,21.3365669 2.31560515,21.3228026 2.3136371,21.3090383 C2.32019447,21.2990378 2.32094379,21.2863105 2.31560515,21.2756109 C2.30576492,21.2500487 2.26837207,21.2756109 2.26049989,21.2933078 C2.2172029,21.2756109 2.25853184,21.2244865 2.2959247,21.2205538 C2.30576492,21.2284191 2.34315778,21.2087559 2.32741342,21.1930253 C2.31166906,21.1772947 2.25853184,21.18516 2.26837207,21.1477999 C2.28411643,21.124204 2.30182883,21.124204 2.32741342,21.1379683 C2.39039086,21.130103 2.29395665,21.0868439 2.27034011,21.0829112 C2.24278748,21.0357195 2.34118973,21.0455511 2.32544537,20.9944267 C2.30379688,20.9786961 2.27624425,20.9668982 2.2742762,20.9374034 C2.27540044,20.9175419 2.28223361,20.8984258 2.29395665,20.8823463 C2.28411643,20.8567841 2.2172029,20.8666158 2.24869162,20.8371209 C2.26640402,20.8272893 2.32150928,20.8430199 2.31166906,20.8017271 C2.29198861,20.7879629 2.26049989,20.7958281 2.23885139,20.7859965 C2.22310703,20.7565017 2.27230816,20.7407711 2.27821229,20.7132426 C2.30182883,20.6581856 2.24081944,20.5913306 2.2742762,20.5362736 C2.38645477,20.4123952 2.24475553,20.4281258 2.26443598,20.3219444 C2.27230816,20.2944159 2.29789274,20.2944159 2.31954124,20.2845843 C2.33134951,20.27082 2.31757319,20.2354262 2.34709387,20.2373925 C2.38055064,20.215763 2.3352856,20.1803692 2.31560515,20.2019987 C2.2959247,20.215763 2.25853184,20.1803692 2.29198861,20.1646386 C2.30741824,20.1655486 2.32256761,20.1602316 2.33403791,20.1498804 C2.34550821,20.1395292 2.35233908,20.1250105 2.352998,20.1095815 C2.34047618,20.0972598 2.32330823,20.0908275 2.30576492,20.0918846 C2.28591253,20.0646366 2.27123684,20.033978 2.26246793,20.0014338 C2.27230816,19.9542421 2.31757319,20.0034001 2.33331755,19.9640737 C2.3352856,19.9267135 2.28018034,19.9326125 2.2565638,19.9208146 C2.23688335,19.9070503 2.24672357,19.8775555 2.24672357,19.8559259 C2.24475553,19.844128 2.22507508,19.8264311 2.2172029,19.8185658 C2.22704312,19.789071 2.26049989,19.7969362 2.28411643,19.8048015 C2.29556384,19.8063826 2.30660352,19.7999166 2.31081461,19.7891644 C2.31502571,19.7784121 2.3113101,19.7661774 2.30182883,19.7595761 C2.28411643,19.7497445 2.26640402,19.7694077 2.24869162,19.7694077 C2.24081944,19.7654751 2.22310703,19.7517108 2.23885139,19.7418792 C2.30773297,19.7241823 2.25065966,19.716317 2.25065966,19.6828895 C2.26640402,19.6730579 2.27821229,19.6691253 2.29198861,19.6828895 C2.31560515,19.6868222 2.3136371,19.6651926 2.30379688,19.6514284 C2.30576492,19.6396304 2.32150928,19.6160346 2.31954124,19.6022703 C2.30773297,19.5924387 2.30773297,19.5747418 2.29789274,19.5649102 C2.28608447,19.5688428 2.25853184,19.5609775 2.27034011,19.5432806 C2.27624425,19.5216511 2.33134951,19.5373817 2.31560515,19.5039542 C2.29002056,19.4823246 2.2565638,19.4547961 2.27230816,19.4213686 C2.33134951,19.3604126 2.22310703,19.3958064 2.20539463,19.3899075 C2.16603373,19.3722106 2.17390591,19.3191198 2.12273674,19.3171535 C2.11289651,19.2876587 2.177842,19.2876587 2.19161831,19.2758607 C2.19959651,19.2721662 2.20415356,19.2636321 2.20278211,19.2549538 C2.20141065,19.2462756 2.19444355,19.2395594 2.18571418,19.2385006 C2.16406568,19.2306353 2.18965027,19.1932752 2.21326681,19.1991742 C2.25065966,19.173612 2.16209764,19.1578814 2.18965027,19.1224876 C2.22507508,19.0870938 2.177842,19.0143398 2.21523485,18.9868113 C2.22704312,18.9710807 2.18374613,18.9573165 2.177842,18.9455185 C2.20342658,18.8747309 2.25853184,18.9396196 2.18768222,18.8334382 C2.18228594,18.798188 2.20304789,18.7641682 2.23688335,18.7528189 C2.27230816,18.7331557 2.22704312,18.6977619 2.20539463,18.7075935 C2.1955544,18.7134925 2.17390591,18.735122 2.16012959,18.7311894 C2.1384811,18.741021 2.13651305,18.6957956 2.15422546,18.685964 C2.18374613,18.6682671 2.20933072,18.6702334 2.23885139,18.6584354 C2.23294726,18.6171427 2.14635328,18.6446712 2.17981004,18.5935468 C2.20390334,18.5789101 2.22887958,18.5657762 2.25459575,18.5542203 C2.27821229,18.5286581 2.22704312,18.5129276 2.23097921,18.4853991 C2.22507508,18.4657358 2.24672357,18.4657358 2.25853184,18.4696685 C2.28411643,18.4696685 2.30970101,18.4441063 2.28411643,18.430342 C2.26640402,18.4342747 2.22310703,18.4106788 2.25459575,18.4028135 C2.39039086,18.3418575 2.17587395,18.4028135 2.14635328,18.3241606 C2.13651305,18.2985984 2.10699238,18.2573056 2.1384811,18.2337098 C2.16012959,18.2179792 2.23097921,18.2160129 2.22113899,18.1707874 C2.20145854,18.1550569 2.16012959,18.131461 2.18965027,18.1098314 C2.22704312,18.1058988 2.2349153,18.1471916 2.27034011,18.1412926 C2.32347733,18.1393263 2.23885139,18.070505 2.21129876,18.0606734 C2.2172029,18.0331448 2.24869162,18.0311785 2.2565638,18.0056163 C2.24278748,17.9702225 2.16800177,17.9721888 2.19161831,17.9269634 C2.20933072,17.9151655 2.2172029,17.9289297 2.2349153,17.9190981 C2.25262771,17.9131992 2.27624425,17.8994349 2.26049989,17.8837043 C2.22507508,17.8738727 2.18571418,17.9073002 2.15225741,17.8915696 C2.13454501,17.8325799 2.20736267,17.8719064 2.23294726,17.8384789 C2.2349153,17.8129167 2.19949049,17.7952198 2.21523485,17.7716239 C2.23294726,17.7263985 2.29395665,17.6752741 2.26049989,17.6202171 C2.24577236,17.6169063 2.23530891,17.6038384 2.23530891,17.5887559 C2.23530891,17.5736734 2.24577236,17.5606056 2.26049989,17.5572948 C2.24081944,17.5258336 2.2349153,17.4786419 2.22310703,17.4432481 C2.19949049,17.399989 2.14635328,17.4019553 2.11486456,17.3606625 C2.10896042,17.333134 2.10502433,17.2879086 2.09715215,17.2603801 C2.06566343,17.2328515 2.02827057,17.1895924 2.03023862,17.1482997 C2.04733401,17.1414935 2.06073686,17.1277606 2.06711614,17.1105141 C2.07349543,17.0932677 2.07225218,17.0741269 2.06369538,17.0578488 C2.03765159,16.9950841 2.02751164,16.9268682 2.03417471,16.8592502 C2.04795102,16.8415533 2.0558232,16.8081258 2.02236644,16.8100922 C1.98497358,16.7923953 1.96922922,16.7294729 1.97119727,16.6881802 C1.96135704,16.6606517 1.90231569,16.656719 1.90231569,16.6252578 C1.91609201,16.5839651 1.8806672,16.5485713 1.84524239,16.5367733 C1.83933825,16.5190764 1.85508261,16.5013795 1.86492284,16.4856489 C1.85456712,16.4679055 1.84536393,16.4495153 1.83737021,16.4305919 C1.84327434,16.418794 1.82359389,16.3892991 1.8196578,16.3814338 C1.80784953,16.3716022 1.78620104,16.3834002 1.77439277,16.3814338 C1.77045667,16.3421074 1.83146607,16.3263768 1.83540216,16.2929493 C1.79800931,16.2496902 1.74684013,16.1965995 1.76061645,16.1297445 C1.81768976,16.0668222 1.77045667,16.0274958 1.71338337,15.9999672 C1.71141532,15.9842367 1.71338337,15.9626071 1.73503186,15.9665398 C1.74880818,15.9744051 1.75668036,15.9901356 1.77439277,15.9940683 C1.78423299,15.9665398 1.74290404,15.9547418 1.73109577,15.931146 C1.740936,15.9075501 1.74684013,15.8721563 1.7192875,15.8603583 C1.69763901,15.8465941 1.66615029,15.8072676 1.64253375,15.7954697 C1.62875743,15.7935034 1.61694916,15.8013687 1.60514089,15.797436 C1.59726871,15.7836718 1.61498112,15.7581096 1.62678939,15.7502443 C1.60317285,15.7207494 1.54806759,15.7010862 1.57955631,15.6637261 C1.6228533,15.6302986 1.55003563,15.5890058 1.53232323,15.5614773 C1.522483,15.5693426 1.50083451,15.559511 1.48902624,15.5575447 C1.49130465,15.547201 1.49262228,15.5366692 1.49296233,15.5260835 C1.46737774,15.486757 1.40046421,15.5103529 1.38865594,15.4572622 C1.4044003,15.4199021 1.43195293,15.4631612 1.45163338,15.4297337 C1.4437612,15.3982725 1.43982511,15.3589461 1.4614736,15.3353502 C1.48115406,15.3373165 1.48115406,15.315687 1.48115406,15.303889 C1.47328187,15.2842258 1.44179315,15.2901248 1.42998488,15.2763605 C1.41817661,15.2625963 1.43982511,15.2468657 1.43195293,15.2291688 C1.43195293,15.1780444 1.37094353,15.1426506 1.35323113,15.0993915 C1.34142286,15.0148396 1.32764654,14.9184898 1.27450933,14.8536012 C1.26073301,14.8359042 1.21349993,14.8378706 1.20365971,14.816241 C1.18397926,14.7926452 1.21940407,14.7572513 1.18791535,14.7316891 C1.17020294,14.7179249 1.15249053,14.6687668 1.19185144,14.6628679 C1.23711647,14.6550026 1.1859473,14.6176424 1.17807512,14.6078108 C1.17054442,14.5847895 1.17844516,14.5595293 1.19775557,14.5448885 C1.18397926,14.523259 1.17217098,14.511461 1.17610707,14.4858988 C1.18201121,14.4544377 1.2469567,14.4976968 1.23121234,14.456404 C1.21917676,14.4369167 1.20864985,14.4165387 1.19972362,14.395448 C1.21546798,14.3915153 1.20365971,14.3659531 1.2075958,14.3580878 C1.19578753,14.3541552 1.17020294,14.3305593 1.18004316,14.3128624 C1.16036271,14.2971318 1.15052249,14.2814013 1.13084204,14.267637 C1.11903377,14.2479738 1.08951309,14.200782 1.09344918,14.1732535 C1.08360896,14.1417924 1.03047174,14.1378597 1.00488716,14.1240955 C0.969462346,14.0926343 0.989142797,14.0277456 0.987174752,13.9844866 C0.96502839,13.9391797 0.953582446,13.8893998 0.953717986,13.8389787 C1.07376873,13.5243671 0.910420995,13.6659423 0.916325131,13.4634111 C0.926104897,13.4532231 0.930875286,13.4392359 0.929356708,13.4252013 C0.927838129,13.4111668 0.920186019,13.3985214 0.90845295,13.3906571 C0.86121987,13.3257685 0.920261221,13.2353176 0.894676635,13.1625637 C0.902548815,13.0445843 0.768721753,12.9973926 0.731328897,12.8990765 C0.717552582,12.8794132 0.682127772,12.8420531 0.688031907,12.8145246 C0.699840177,12.7751981 0.725424762,12.7181748 0.686063862,12.6886799 C0.678191682,12.6808146 0.654575141,12.6631177 0.658511231,12.6473872 L0.693936042,12.6119934 C0.689328774,12.5919655 0.678265687,12.5740037 0.662447321,12.560869 L0.640798826,12.5215425 L0.569949205,12.5176099 C0.575375768,12.4371495 0.562595256,12.3565011 0.532556349,12.2816512 C0.518780034,12.2580553 0.510907854,12.2226615 0.532556349,12.2088972 C0.545771812,12.2099063 0.558942742,12.2064433 0.569949205,12.1990656 C0.570422391,12.1875824 0.565285565,12.1765845 0.556172889,12.1695708 C0.543234403,12.159482 0.52731986,12.1539513 0.510907854,12.1538402 C0.491227403,12.1617055 0.398729287,12.1715371 0.428249962,12.122379 C0.445962368,12.0456924 0.58372552,12.0476588 0.57585334,11.9631069 C0.526652214,11.9316457 0.493195448,12.0240629 0.445962368,11.9886691 C0.408569512,11.9473763 0.418409737,11.8647908 0.463674773,11.8372622 C0.485323268,11.8274306 0.499099584,11.8254643 0.499099584,11.7999021 C0.489259358,11.7664746 0.428249962,11.7723736 0.412505602,11.7468114 C0.422345827,11.7074849 0.455802593,11.6779901 0.477451088,11.6465289 C0.501067629,11.5914719 0.440058233,11.5462465 0.514843944,11.5147853 C0.558140935,11.4852905 0.467610863,11.4538293 0.505003719,11.4223682 C0.544364619,11.4263008 0.548300709,11.4774252 0.562077025,11.50692 C0.668351456,11.5305159 0.573885295,11.3633785 0.505003719,11.3830417 C0.479537512,11.3818695 0.454268203,11.3880107 0.432186052,11.4007386 C0.400697332,11.3987723 0.436122142,11.3535469 0.459738683,11.3496142 C0.491227403,11.3319173 0.518780034,11.3476479 0.550268754,11.3496142 C0.56798116,11.3496142 0.58766161,11.3456816 0.60340597,11.3456816 C0.601437925,11.3397826 0.59946988,11.3201194 0.589629655,11.3201194 C0.558140935,11.2984898 0.522716124,11.3004562 0.491227403,11.2827593 C0.453834548,11.2847256 0.461706728,11.2277022 0.495163493,11.2237696 C0.573885295,11.1569146 0.426281917,11.1844431 0.453834548,11.147083 C0.469578908,11.1038239 0.554204844,11.1254534 0.585693565,11.0900596 C0.605374015,11.0605648 0.556172889,11.0409016 0.56798116,11.0094404 C0.691967997,10.9327538 0.447930413,10.958316 0.467610863,10.9150569 C0.57191725,10.8914611 0.601437925,10.9012927 0.627022511,10.7833133 C0.634064753,10.751396 0.621745212,10.7183162 0.59553379,10.6987614 C0.566013115,10.7007278 0.524684169,10.7321889 0.512875899,10.6948288 C0.530588304,10.6731992 0.550268754,10.6279738 0.581757475,10.6378054 C0.59553379,10.6456707 0.619150331,10.6633676 0.636862736,10.6614013 C0.654575141,10.659435 0.674255591,10.659435 0.664415366,10.6417381 C0.646702961,10.6161759 0.597501835,10.5965127 0.59553379,10.5630852 C0.605699044,10.5573128 0.612576645,10.5471219 0.614121953,10.5355422 C0.615667261,10.5239626 0.611702358,10.5123273 0.60340597,10.5040955 C0.569949205,10.4844323 0.510907854,10.5276914 0.530588304,10.4687017 C0.548300709,10.4569038 0.544364619,10.4116783 0.57585334,10.4136447 C0.636862736,10.4195436 0.662447321,10.3998804 0.636862736,10.348756 C0.60734206,10.3133622 0.550268754,10.348756 0.516811989,10.3369581 C0.497131538,10.3251601 0.512875899,10.3035306 0.534524394,10.3054969 C0.566013115,10.3113959 0.56798116,10.2760021 0.581757475,10.2602715 C0.613246195,10.2189787 0.550268754,10.1816186 0.522716124,10.1619554 C0.499099584,10.1501574 0.520748079,10.1265615 0.532556349,10.110831 C0.5107977,10.0781985 0.485737254,10.0478887 0.457770638,10.0203801 C0.434154097,9.99481793 0.373144701,9.92403032 0.445962368,9.91026606 C0.469838284,9.90378667 0.494185202,9.89918453 0.518780034,9.8965018 C0.520748079,9.87683857 0.514843944,9.86110799 0.516811989,9.84144477 C0.636862736,9.71953276 0.424313872,9.83357948 0.404633422,9.76279186 C0.394050987,9.73611008 0.386140176,9.70844648 0.381016882,9.68020631 C0.384952972,9.66054309 0.426281917,9.66840838 0.438090187,9.65661044 C0.487291313,9.64284618 0.61521424,9.60548605 0.573885295,9.52683315 C0.569949205,9.5052036 0.554204844,9.4619445 0.528620259,9.45604553 C0.510907854,9.45604553 0.489259358,9.48160773 0.475483043,9.48750669 C0.445962368,9.50127095 0.424313872,9.45801185 0.447930413,9.43834863 C0.495163493,9.40885379 0.552236799,9.39508953 0.5915977,9.44621392 C0.636862736,9.46587714 0.650639051,9.42065172 0.625054466,9.39508953 C0.5915977,9.36559469 0.536492439,9.35969572 0.506971764,9.32233559 C0.520748079,9.26137959 0.589629655,9.36362837 0.619150331,9.31250398 C0.660479276,9.28497546 0.654575141,9.18862565 0.59553379,9.19845727 C0.546332664,9.1925583 0.491227403,9.28694179 0.483355223,9.20435623 C0.524684169,9.15519817 0.630958601,9.13750127 0.619150331,9.05098307 C0.59553379,8.97626281 0.481387178,9.00772397 0.491227403,8.91727313 C0.522716124,8.87401403 0.581757475,8.93497003 0.621118376,8.90744152 C0.628990556,8.85041816 0.530588304,8.85238448 0.489259358,8.85631713 C0.468270411,8.86326811 0.446408415,8.86723954 0.424313872,8.86811506 C0.414373784,8.86423225 0.407998033,8.85447168 0.408442346,8.84381749 C0.40888666,8.83316331 0.416052994,8.82396649 0.426281917,8.82092332 C0.463424648,8.82324041 0.498879802,8.8051515 0.518780034,8.77373158 C0.514843944,8.75996732 0.495163493,8.72260719 0.522716124,8.7147419 C0.540649627,8.71517125 0.557369555,8.72388706 0.56798116,8.73833777 C0.57978943,8.74620306 0.59946988,8.74423674 0.59946988,8.72850616 C0.558140935,8.65968487 0.461706728,8.64198796 0.467610863,8.54760448 C0.477451088,8.48074951 0.57978943,8.53384022 0.617182286,8.49254744 C0.656543186,8.47091789 0.619150331,8.40996189 0.581757475,8.42962512 C0.57191725,8.43355776 0.540428529,8.43552409 0.530588304,8.44732202 C0.512907898,8.44975106 0.49507658,8.44405937 0.482080559,8.43183853 C0.469084538,8.41961769 0.46231862,8.4021793 0.463674773,8.3843997 C0.447930413,8.35687118 0.471546953,8.31164576 0.508939809,8.32541002 C0.601437925,8.25855505 0.392825152,8.23102653 0.381016882,8.16023892 Z" id="_1261"></path>
            </g>
        </g>
    </g>
</svg>