<?xml version="1.0" encoding="UTF-8"?>
<svg width="270px" height="197px" viewBox="0 0 270 197" version="1.1" xmlns="http://www.w3.org/2000/svg" xmlns:xlink="http://www.w3.org/1999/xlink">
    <title>Group 8</title>
    <g id="About-Page" stroke="none" stroke-width="1" fill="none" fill-rule="evenodd">
        <g id="Old-About-Page-Copy" transform="translate(-109.000000, -1103.000000)">
            <g id="Group-8" transform="translate(109.742365, 1104.000000)">
                <path d="M222.591017,137 C234.233709,166.333333 232.615768,184.39034 217.737193,191.171021 C202.858618,197.951701 184.698765,194.561361 163.257635,181" id="Path-39" stroke="#000000" stroke-dasharray="4"></path>
                <rect id="Rectangle" stroke="#000000" stroke-width="2" fill="#FBFBED" x="164.257635" y="129" width="65" height="16" rx="3"></rect>
                <rect id="Rectangle" stroke="#000000" stroke-width="2" fill="#FCDD56" x="8.25763476" y="117" width="65" height="16" rx="3"></rect>
                <g id="Group-6" transform="translate(87.227544, 46.876541)" stroke="#000000" stroke-width="3">
                    <path d="M0,22.2851257 C0.592549823,61.2206879 7.35510686,88.7991028 20.2876711,105.02037 C33.2202354,121.241638 47.5507976,132.598785 63.2793579,139.091812" id="Path-33"></path>
                    <path d="M0,23.2851257 C15.8544413,23.2851257 28.7926814,21.5279032 38.8147202,18.0134583 C48.8367589,14.4990133 56.9916382,8.49452718 63.2793579,1.13686838e-13" id="Path-34"></path>
                </g>
                <rect id="Rectangle" stroke="#000000" stroke-width="2" fill="#FBFBED" x="203.257635" y="78" width="65" height="16" rx="3"></rect>
                <rect id="Rectangle" stroke="#000000" stroke-width="2" fill="#FFFFFF" x="147.257635" y="153" width="65" height="16" rx="3"></rect>
                <g id="Group-6" transform="translate(187.002090, 116.422447) scale(-1, 1) translate(-187.002090, -116.422447) translate(149.227544, 46.876541)" fill="#FFFFFF" stroke="#000000" stroke-width="3">
                    <path d="M75.5490913,139.091812 C59.820531,132.598785 45.4899688,121.241638 32.5574045,105.02037 C19.6248403,88.7991028 12.8622832,61.2206879 12.2697334,22.2851257 C11.8528302,-5.10895815 -15.1275227,23.2851257 12.2697334,23.2851257 C28.1241747,23.2851257 41.0624148,21.5279032 51.0844535,18.0134583 C61.1064923,14.4990133 69.2613716,8.49452718 75.5490913,1.13686838e-13" id="Path-33"></path>
                </g>
                <path d="M113.76608,149.582401 C112.224933,139.18183 113.301043,132.348236 116.994413,129.081619 C122.534467,124.181694 177.204473,125.781334 182.345861,129.081619 C185.773453,131.281809 186.829038,138.34056 185.512617,150.25787 C181.463651,156.479394 175.845708,162.377655 168.658788,167.952652 C161.471868,173.527649 154.994787,177.203161 149.227544,178.979189 C144.108335,177.037537 138.062683,173.362025 131.090589,167.952652 C124.118495,162.543279 118.343659,156.419862 113.76608,149.582401 Z" id="Path-35" fill="#000000"></path>
                <circle id="Oval" fill="#000000" cx="150.757635" cy="106.5" r="21.5"></circle>
                <rect id="Rectangle" stroke="#000000" stroke-width="2" fill="#FBFBED" x="63.2576348" y="144" width="65" height="16" rx="3"></rect>
                <rect id="Rectangle" stroke="#000000" stroke-width="2" fill="#FCDD56" x="187.257635" y="99" width="65" height="16" rx="3"></rect>
                <circle id="Oval" stroke="#000000" stroke-width="3" cx="79.981113" cy="27.9521739" r="23.5"></circle>
                <rect id="Rectangle" stroke="#000000" stroke-width="2" fill="#FBFBED" x="39.2576348" y="90" width="65" height="16" rx="3"></rect>
                <path d="M243.548101,77 C255.342087,34.5227051 250.911932,14.820048 230.257635,17.8920288 C199.276189,22.5 206.757635,42.5 213.257635,42 C219.757635,41.5 213.334188,12.3683472 196.757635,26.9341736 C185.706599,36.6447245 182.49085,50.7205556 187.110387,69.1616669" id="Path-36" stroke="#000000" stroke-dasharray="4"></path>
                <path d="M7.25763476,125.97782 C-5.17269361,145.454928 -1.63572665,158.169484 17.8685356,164.12149 C37.3727979,170.073497 72.3826042,172.033 122.897955,170" id="Path-37" stroke="#000000" stroke-dasharray="4"></path>
                <path d="M52.3352715,89 C52.1063511,31.8164349 71.0819976,2.19964468 109.262211,0.14962923 C147.442424,-1.90038622 166.532531,17.1144832 166.532531,57.1942375" id="Path-38" stroke="#000000" stroke-dasharray="4"></path>
                <line x1="105.709451" y1="17.753952" x2="110.867223" y2="7.5" id="Path-40" stroke="#000000" stroke-width="2"></line>
                <line x1="108.288337" y1="20.8706818" x2="114.897955" y2="16.753952" id="Path-41" stroke="#000000" stroke-width="2"></line>
                <line x1="108.620245" y1="25" x2="121.106634" y2="25" id="Path-42" stroke="#000000" stroke-width="2"></line>
                <rect id="Rectangle" stroke="#000000" stroke-width="3" fill="#FCDD56" x="47.8550261" y="30.5956522" width="63.835942" height="45.9043478" rx="4"></rect>
                <circle id="Oval" fill="#000000" cx="77.7576348" cy="49.5" r="4.5"></circle>
                <polygon id="Path-43" fill="#000000" points="75.8001457 52.9521739 73.2576348 63.1547241 82.7729971 63.1547241 79.7576348 52.9521739"></polygon>
            </g>
        </g>
    </g>
</svg>