<?xml version="1.0" encoding="UTF-8"?>
<svg width="779px" height="779px" viewBox="0 0 779 779" version="1.1" xmlns="http://www.w3.org/2000/svg" xmlns:xlink="http://www.w3.org/1999/xlink">
    <title>1</title>
    <g id="Page-1" stroke="none" stroke-width="1" fill="none" fill-rule="evenodd">
        <g id="1" transform="translate(5, 5.0047)" fill-rule="nonzero" stroke="#000000">
            <path d="M384.623256,0 C172.20155,0 0,172.182946 0,384.623256 C0,597.026357 172.20155,769.227907 384.623256,769.227907 C597.035659,769.227907 769.237209,597.026357 769.237209,384.623256 C769.237209,172.182946 597.035659,0 384.623256,0 Z" id="Path" stroke-width="8.92" fill="#FBDB57"></path>
            <path d="M432.196899,225.451163 C427.350388,219.244961 420.916279,216.139535 412.893023,216.139535 C405.775194,216.139535 400.930233,217.502326 398.35814,220.227907 C395.781395,222.953488 390.255814,230.220155 381.779845,242.031008 C373.299225,253.84031 363.572093,264.514729 352.596899,274.052713 C341.617054,283.590698 326.968992,292.675969 308.651163,301.305426 C296.387597,307.060465 287.831008,311.751938 282.987597,315.386047 C278.141085,319.020155 275.71938,324.697674 275.71938,332.418605 C275.71938,339.082171 278.178295,344.948837 283.100775,350.020155 C288.018605,355.094574 293.662016,357.627907 300.020155,357.627907 C313.341085,357.627907 339.232558,342.866667 377.691473,313.342636 L377.691473,520.010853 C377.691473,532.125581 380.491473,541.285271 386.094574,547.491473 C391.694574,553.697674 399.113178,556.803101 408.350388,556.803101 C429.091473,556.803101 439.463567,541.587597 439.463567,511.155039 L439.463567,251.114729 C439.463567,240.213953 437.04186,231.662016 432.196899,225.451163 Z" id="Path" stroke-width="8.923135" fill="#FFFFFF"></path>
        </g>
    </g>
</svg>