<?xml version="1.0" encoding="UTF-8"?>
<svg width="779px" height="779px" viewBox="0 0 779 779" version="1.1" xmlns="http://www.w3.org/2000/svg" xmlns:xlink="http://www.w3.org/1999/xlink">
    <title>2</title>
    <g id="Page-1" stroke="none" stroke-width="1" fill="none" fill-rule="evenodd">
        <g id="2" transform="translate(5, 5)" fill-rule="nonzero" stroke="#000000" stroke-width="8.92">
            <path d="M384.623256,0 C172.20155,0 0,172.182946 0,384.623256 C0,597.026357 172.20155,769.227907 384.623256,769.227907 C597.035659,769.227907 769.237209,597.026357 769.237209,384.623256 C769.237209,172.182946 597.035659,0 384.623256,0 Z" id="Path" fill="#FCDC57"></path>
            <path d="M495.787597,504.793798 C489.578295,499.950388 480.572093,497.525581 468.76124,497.525581 L350.210853,497.525581 C353.993798,491.773643 357.705426,486.851163 361.339535,482.764341 C369.817054,472.469767 385.448062,458.009302 408.237209,439.386047 C431.021705,420.762791 447.260465,407.100775 456.951938,398.393798 C466.64031,389.689922 476.142636,377.652713 485.454264,362.283721 C494.765891,346.917829 499.421705,329.846512 499.421705,311.071318 C499.421705,299.113178 497.186047,287.565891 492.722481,276.437209 C488.254264,265.308527 482.009302,255.506977 473.986047,247.026357 C465.95969,238.548837 456.648062,231.888372 446.051163,227.04031 C429.699225,219.772093 409.941085,216.139535 386.776744,216.139535 C367.547287,216.139535 350.779845,218.978295 336.472868,224.655814 C322.165891,230.333333 310.355039,237.792248 301.043411,247.026357 C291.731783,256.263566 284.727132,266.55814 280.035659,277.913178 C275.341085,289.268217 272.995349,300.168992 272.995349,310.617054 C272.995349,319.246512 275.493023,326.060465 280.489922,331.057364 C285.486822,336.054264 291.767442,338.551938 299.339535,338.551938 C307.968992,338.551938 314.516279,335.826357 318.984496,330.376744 C323.448062,324.925581 327.462016,317.130233 331.021705,306.984496 C334.576744,296.84186 337.114729,290.632558 338.629457,288.36124 C349.984496,270.951938 365.576744,262.243411 385.413953,262.243411 C394.8,262.243411 403.469767,264.365891 411.417054,268.603101 C419.365891,272.843411 425.646512,278.787597 430.266667,286.431008 C434.883721,294.07907 437.193798,302.747287 437.193798,312.434109 C437.193798,321.368992 435.035659,330.489922 430.72093,339.8 C426.406202,349.110078 420.12093,358.195349 411.871318,367.052713 C403.617054,375.910078 393.283721,384.731783 380.871318,393.510078 C373.905426,398.204651 362.322481,408.009302 346.124031,422.92093 C329.92093,437.835659 311.753488,455.737984 291.618605,476.632558 C286.772093,481.781395 282.306977,488.860465 278.218605,497.866667 C274.130233,506.877519 272.086822,514.105426 272.086822,519.555039 C272.086822,528.035659 275.266667,535.417054 281.624806,541.697674 C287.984496,547.982946 296.84031,551.122481 308.196899,551.122481 L475.348837,551.122481 C485.341085,551.122481 492.796899,548.550388 497.71938,543.40155 C502.637209,538.255814 505.100775,531.972093 505.100775,524.551938 C505.100775,516.227907 501.993798,509.64186 495.787597,504.793798 Z" id="Path" fill="#FFFFFF"></path>
        </g>
    </g>
</svg>