<?xml version="1.0" encoding="UTF-8"?>
<svg width="779px" height="779px" viewBox="0 0 779 779" version="1.1" xmlns="http://www.w3.org/2000/svg" xmlns:xlink="http://www.w3.org/1999/xlink">
    <title>3</title>
    <g id="Page-1" stroke="none" stroke-width="1" fill="none" fill-rule="evenodd">
        <g id="3" transform="translate(5, 5)" fill-rule="nonzero" stroke="#000000" stroke-width="8.92">
            <path d="M384.623256,0 C172.20155,0 0,172.182946 0,384.623256 C0,597.026357 172.20155,769.227907 384.623256,769.227907 C597.035659,769.227907 769.237209,597.026357 769.237209,384.623256 C769.237209,172.182946 597.035659,0 384.623256,0 Z" id="Path" fill="#FCDC57"></path>
            <path d="M495.56124,418.151938 C491.472868,408.237209 485.376744,399.189147 477.27907,391.012403 C469.176744,382.837209 459.223256,375.568992 447.413953,369.209302 C459.677519,358.914729 469.102326,348.355039 475.688372,337.527132 C482.274419,326.703876 485.567442,313.72093 485.567442,298.578295 C485.567442,287.074419 483.296124,276.322481 478.753488,266.328682 C474.210853,256.334884 467.472868,247.556589 458.541085,239.984496 C449.606202,232.415504 439.083721,226.624806 426.973643,222.610853 C414.858915,218.60155 401.458915,216.592248 386.775194,216.592248 C369.968992,216.592248 354.753488,218.976744 341.127132,223.745736 C327.500775,228.514729 316.105426,234.83876 306.947287,242.708527 C297.784496,250.582946 290.823256,258.872868 286.052713,267.576744 C281.283721,276.285271 278.899225,284.573643 278.899225,292.444961 C278.899225,300.620155 281.432558,307.172093 286.506977,312.089922 C291.578295,317.012403 297.141085,319.471318 303.2,319.471318 C308.345736,319.471318 312.888372,318.562791 316.826357,316.745736 C320.76124,314.928682 323.486822,312.431008 325.00155,309.251163 C327.573643,303.345736 330.412403,297.065116 333.517829,290.40155 C336.618605,283.741085 339.913178,278.289922 343.396899,274.049612 C346.877519,269.812403 351.607752,266.406202 357.590698,263.829457 C363.568992,261.257364 371.178295,259.968992 380.415504,259.968992 C394.04186,259.968992 404.865116,264.170543 412.891473,272.573643 C420.914729,280.976744 424.928682,291.009302 424.928682,302.665116 C424.928682,317.95969 419.893023,329.691473 409.826357,337.866667 C399.755039,346.04186 387.75814,350.130233 373.829457,350.130233 L364.517829,350.130233 C353.765891,350.130233 345.668217,352.365891 340.217054,356.829457 C334.765891,361.297674 332.04186,367.162791 332.04186,374.431008 C332.04186,381.851163 334.313178,387.64186 338.855814,391.804651 C343.39845,395.970543 349.831008,398.049612 358.15969,398.049612 C359.976744,398.049612 364.065116,397.748837 370.423256,397.141085 C376.782946,396.537984 381.472868,396.232558 384.503876,396.232558 C401.764341,396.232558 415.237209,401.268217 424.928682,411.334884 C434.617054,421.406202 439.463566,435.294574 439.463566,453.009302 C439.463566,464.972093 436.624806,475.493023 430.947287,484.576744 C425.269767,493.660465 418.075969,500.513178 409.372093,505.130233 C400.663566,509.750388 391.618605,512.057364 382.232558,512.057364 C365.88062,512.057364 353.19845,506.947287 344.192248,496.727132 C335.181395,486.506977 326.741085,470.875969 318.869767,449.829457 C317.655814,446.348837 315.083721,443.356589 311.148837,440.858915 C307.209302,438.36124 303.122481,437.111628 298.885271,437.111628 C290.404651,437.111628 283.328682,439.80155 277.651163,445.173643 C271.973643,450.550388 269.134884,457.629457 269.134884,466.407752 C269.134884,473.221705 271.51938,481.851163 276.288372,492.297674 C281.057364,502.744186 288.097674,512.851163 297.409302,522.617054 C306.72093,532.382946 318.565891,540.522481 332.951938,547.031008 C347.333333,553.539535 363.610853,556.796899 381.779845,556.796899 C399.643411,556.796899 415.95969,553.95814 430.72093,548.28062 C445.482171,542.603101 458.237209,534.731783 468.989147,524.662016 C479.737984,514.595349 487.874419,503.125581 493.403101,490.255814 C498.927132,477.389147 501.693023,464.063566 501.693023,450.285271 C501.693023,438.782946 499.648062,428.071318 495.56124,418.151938 Z" id="Path" fill="#FFFFFF"></path>
        </g>
    </g>
</svg>