<?xml version="1.0" encoding="UTF-8"?>
<svg width="794px" height="794px" viewBox="0 0 794 794" version="1.1" xmlns="http://www.w3.org/2000/svg" xmlns:xlink="http://www.w3.org/1999/xlink">
    <title>4</title>
    <g id="Page-1" stroke="none" stroke-width="1" fill="none" fill-rule="evenodd">
        <g id="4" transform="translate(5, 5.0001)" fill-rule="nonzero" stroke="#000000" stroke-width="8.92">
            <path d="M392.162504,0 C175.576984,0 0,175.558015 0,392.162504 C0,608.729055 175.576984,784.306039 392.162504,784.306039 C608.738539,784.306039 784.315523,608.729055 784.315523,392.162504 C784.315523,175.558015 608.738539,0 392.162504,0 Z" id="Path" fill="#FCDC57"></path>
            <path d="M513.725893,442.442302 C506.547581,439.200126 497.013911,437.579829 485.128043,437.579829 L475.170724,437.579829 L475.170724,258.35283 C475.170724,231.492254 463.436611,218.061966 439.973127,218.061966 C432.715776,218.061966 426.50332,220.493203 421.332596,225.355675 C416.15871,230.218147 409.558963,238.055643 401.534935,248.858678 L278.808094,413.033512 C275.411002,417.511856 272.556118,421.294657 270.240278,424.380335 C267.924439,427.470756 265.684477,430.671831 263.525134,433.989883 C261.36105,437.311097 259.740752,440.474233 258.662662,443.484034 C257.579829,446.493835 257.042365,449.468859 257.042365,452.399621 C257.042365,463.825482 260.706608,472.856465 268.041416,479.49257 C275.371483,486.131837 286.370534,489.449889 301.038571,489.449889 L417.281062,489.449889 L417.281062,532.51976 C417.281062,544.097376 419.944673,552.861208 425.270313,558.80177 C430.595953,564.742333 437.579829,567.717357 446.226684,567.717357 C455.025292,567.717357 462.048688,564.822953 467.298451,559.034145 C472.545052,553.245337 475.170724,544.41037 475.170724,532.52134 L475.170724,489.45147 L489.296554,489.45147 C501.025925,489.45147 509.826114,487.407525 515.693961,483.314891 C521.558647,479.227 524.492571,472.70313 524.492571,463.748024 C524.492571,452.786911 520.904205,445.684477 513.725893,442.442302 Z M417.282643,437.579829 L317.712615,437.579829 L417.282643,303.044578 L417.282643,437.579829 Z" id="Shape" fill="#FFFFFF"></path>
        </g>
    </g>
</svg>