<?xml version="1.0" encoding="UTF-8"?>
<svg width="262px" height="214px" viewBox="0 0 262 214" version="1.1" xmlns="http://www.w3.org/2000/svg" xmlns:xlink="http://www.w3.org/1999/xlink">
    <title>Group 10</title>
    <g id="Landing-Pages" stroke="none" stroke-width="1" fill="none" fill-rule="evenodd">
        <g id="Updated-Landing-Page" transform="translate(-210.000000, -4383.000000)">
            <g id="Group-10" transform="translate(211.000000, 4384.000000)">
                <circle id="Oval" fill="#FCDD56" cx="93.6875" cy="94.6875" r="64.6875"></circle>
                <g id="accessibility-icon" transform="translate(95.000000, 47.000000)" stroke="#000000" stroke-width="5">
                    <path d="M81.4733515,0 C120.355058,-0.0110338863 153.829366,27.446976 161.42272,65.5802417 C169.016073,103.713507 148.613344,141.900009 112.693249,156.784117 C76.7731538,171.668225 35.3412351,159.103972 13.7380832,126.775907 C-7.86506868,94.447842 -3.62189623,51.3609462 23.8723914,23.8680274 C39.1291603,8.56031603 59.8610579,-0.0303018075 81.4733515,0 Z" id="Path"></path>
                    <path d="M81.4649598,98.2294634 L69.5305262,130.667518 C68.9377987,132.309569 67.6977318,133.647592 66.090209,134.379596 C63.6456414,135.507029 60.7511601,135.072931 58.7592084,133.280135 C56.7672568,131.487339 56.0711081,128.689798 56.9960372,126.194661 L65.3168044,103.528685 C65.9771251,101.823116 66.4988106,100.068691 66.8769482,98.281931 C67.2132167,96.4677933 67.4535619,94.6377136 67.5970146,92.7990733 C67.9170441,89.4805016 68.1437317,85.8864753 68.317081,82.4367348 C68.4904303,78.9869942 68.6104413,75.6421887 68.7037833,72.8745261 C68.8237943,69.4247856 67.8770404,69.2017986 65.0634477,68.5459543 L64.4767269,68.4147855 L40.4745141,63.9681617 C38.7310718,63.6656791 37.1815073,62.6935447 36.1674503,61.2660836 C34.6420155,59.076396 34.6088411,56.1981212 36.0834144,53.9749759 C37.5579877,51.7518305 40.2494922,50.6222652 42.9014045,51.1136151 L68.6904487,55.8750441 C69.71721,55.9668623 70.7173023,56.0849143 71.7707327,56.2029662 C74.9442933,56.6307209 78.1419346,56.8629053 81.3449487,56.8981611 C85.3320778,56.8215742 89.311852,56.5281827 93.2660478,56.0193299 C94.4661584,55.888161 95.5995962,55.7438753 96.7330341,55.6389402 L121.068611,51.1529658 C122.795047,50.8007928 124.593006,51.1356494 126.069072,52.0842646 C127.546796,53.0678294 128.5621,54.5929767 128.887885,56.3185654 C129.21367,58.0441542 128.82275,59.8261943 127.802565,61.2660836 C126.80228,62.7025813 125.262346,63.68885 123.52217,64.0075124 L100.266693,68.3098504 C99.4932885,68.4803699 98.7998913,68.5984219 98.1865014,68.6902401 C95.759611,69.0968635 94.5595003,69.3067336 94.7061805,72.7040066 C94.812857,75.1830978 95.119552,78.1475136 95.5195889,81.2430983 C95.9862985,84.8764752 96.5996884,88.7328392 97.2397474,92.2612811 C97.6531189,94.5829696 98.0398212,96.4455672 98.5732037,98.2294634 C99.1065862,100.01336 99.6266342,101.836607 100.426708,104.027126 L108.574126,126.194661 C109.499055,128.689798 108.802906,131.487339 106.810955,133.280135 C104.819003,135.072931 101.924522,135.507029 99.479954,134.379596 C97.8724312,133.647592 96.6323643,132.309569 96.0396368,130.667518 L84.0651995,98.2950479 L82.7317432,95.894658 L81.398287,98.2294634 L81.4649598,98.2294634 Z" id="Path"></path>
                    <path d="M81.4888567,28 C87.45223,27.994937 92.5886583,32.203287 93.7566634,38.0511983 C94.9246684,43.8991095 91.7989112,49.7576902 86.2911283,52.0437884 C80.7833454,54.3298865 74.4276885,52.4067266 71.111325,47.4505277 C67.7949616,42.4943289 68.4416398,35.885603 72.6558463,31.6662965 C74.9941983,29.3162718 78.1736763,27.9965759 81.4888567,28 Z" id="Path"></path>
                    <path d="M128.310089,32.8499198 C105.575644,10.0396931 69.8928923,6.46823514 43.0885614,24.3201655 C16.2842305,42.1720959 5.82576907,76.4740252 18.1104973,106.243859 C30.3952256,136.013693 62.0007274,152.957821 93.5942818,146.711714 C125.187836,140.465607 147.96776,112.769376 148,80.5644865 C148.039319,62.6748237 140.954325,45.5056135 128.310089,32.8499198 L128.310089,32.8499198 Z" id="Path"></path>
                </g>
                <path d="M156.370592,23.0677897 C139.79286,8.69656684 118.162026,0 94.5,0 C42.3090911,0 0,42.3090911 0,94.5 C0,146.690909 42.3090911,189 94.5,189" id="Path" stroke="#000000" stroke-width="2" stroke-linecap="round" stroke-linejoin="round" stroke-dasharray="6"></path>
            </g>
        </g>
    </g>
</svg>