<svg id="visual" viewBox="0 0 900 600" width="900" height="600" xmlns="http://www.w3.org/2000/svg" xmlns:xlink="http://www.w3.org/1999/xlink" version="1.1"><g transform="translate(460.2748761551111 276.90426061021856)"><path d="M135.9 -184.7C171.9 -160.9 193.9 -115.5 209.8 -67.9C225.7 -20.2 235.5 29.8 224.9 76.4C214.3 123 183.3 166.3 142.4 201.1C101.5 236 50.7 262.5 10.7 247.8C-29.4 233.1 -58.8 177.2 -94.9 140.8C-131.1 104.4 -174 87.4 -206.8 51.7C-239.7 16.1 -262.5 -38.3 -242.2 -71.9C-222 -105.5 -158.6 -118.3 -111 -138.3C-63.5 -158.4 -31.7 -185.7 9.1 -198.2C50 -210.8 99.9 -208.5 135.9 -184.7" fill="#ffdd57"></path></g></svg>