<?xml version="1.0" encoding="UTF-8"?>
<svg width="187px" height="183px" viewBox="0 0 187 183" version="1.1" xmlns="http://www.w3.org/2000/svg" xmlns:xlink="http://www.w3.org/1999/xlink">
    <title>Group 11</title>
    <g id="Landing-Pages" stroke="none" stroke-width="1" fill="none" fill-rule="evenodd">
        <g id="Updated-Landing-Page" transform="translate(-939.000000, -4510.000000)">
            <g id="Group-11" transform="translate(939.000000, 4510.000000)">
                <circle id="Oval" fill="#FCDD56" cx="69" cy="69" r="69"></circle>
                <g id="1_(25)" transform="translate(49.000000, 35.000000)" fill="#000000">
                    <path d="M127.378105,83.7056918 C127.378105,84.9727395 128.412816,86 129.689053,86 C130.965289,86 132,84.9727395 132,83.7056918 L132,69.0061869 C132,63.2628485 131.213636,57.5039757 129.640908,51.9012433 C128.103085,46.4211927 125.807383,41.100469 122.753804,36.1011875 C122.095826,35.022544 120.680772,34.6772028 119.593904,35.3304433 C118.507438,35.9840822 118.159592,37.3885493 118.817972,38.4671928 C121.643265,43.0928526 123.770861,48.0272084 125.199957,53.1204929 C126.651922,58.2942374 127.378105,63.6428433 127.378105,69.0061869 L127.378105,83.7056918 Z M17.1820285,38.4671928 C17.8400065,37.3885493 17.492562,35.9840822 16.4060958,35.3304433 C15.3192284,34.6772028 13.9041744,35.022544 13.2461964,36.1011875 C10.1926166,41.100469 7.8969151,46.4211927 6.35909202,51.9012433 C4.78636401,57.5039757 4,63.2628485 4,69.0061869 L4,83.7056918 C4,84.9727395 5.0347106,86 6.31134849,86 C7.58718397,86 8.62189457,84.9727395 8.62189457,83.7056918 L8.62189457,69.0061869 C8.62189457,63.6428433 9.34807766,58.2942374 10.8000426,53.1204929 C12.2295401,48.0272084 14.3571361,43.0928526 17.1820285,38.4671928 L17.1820285,38.4671928 Z" id="Fill-1"></path>
                    <path d="M116.552744,34.310874 C116.980658,34.9015795 117.612264,35.264076 118.285735,35.3731846 C118.959609,35.4822933 119.674946,35.3372147 120.269517,34.9119708 L120.26992,34.9119708 C120.864893,34.4871264 121.230411,33.8604511 121.340308,33.1918109 C121.449803,32.5223714 121.303676,31.8125657 120.87536,31.2222599 L120.87536,31.2218602 C120.356871,30.5096565 119.828721,29.8122404 119.29091,29.1312106 C118.785304,28.4909466 118.24548,27.8362947 117.671037,27.1676545 C117.094581,26.495817 116.503633,25.8327721 115.898193,25.1793192 C115.363602,24.6018027 114.783121,24.0023046 114.157151,23.3804253 C107.962663,17.2307739 100.839888,12.5954547 93.2489443,9.47326872 C85.3556828,6.22718643 76.9326615,4.60414529 68.4999788,4.60414529 C60.0672961,4.60414529 51.6442747,6.22718643 43.7510132,9.47326872 C36.1600691,12.5954547 29.0372943,17.2307739 22.842807,23.3804253 C22.2168369,24.0023046 21.6367578,24.6018027 21.1017648,25.1793192 C20.4967274,25.8327721 19.9053769,26.495817 19.3289208,27.1676545 C18.7548801,27.8362947 18.2146538,28.4909466 17.7094496,29.1312106 C17.1712361,29.8122404 16.6430864,30.5096565 16.124598,31.2218602 L16.1241955,31.2222599 C15.6962815,31.8125657 15.5501547,32.5223714 15.6600517,33.1918109 C15.7699487,33.8604511 16.135467,34.4871264 16.7300379,34.9119708 L16.7304405,34.9119708 C17.3250114,35.3372147 18.0399458,35.4822933 18.7142222,35.3731846 C19.3880961,35.264076 20.0192994,34.9015795 20.4472134,34.310874 C20.9487946,33.6218509 21.4169638,33.0027692 21.8513187,32.4552276 C22.3066062,31.8813081 22.8162385,31.2662231 23.3802154,30.6091732 C23.8701225,30.038451 24.3833778,29.4657305 24.9199811,28.8922107 C25.5173699,28.2531457 26.0857749,27.6664369 26.6227807,27.1332833 C32.2842877,21.5119896 38.8253733,17.2623475 45.8181235,14.386755 C53.0729357,11.4036526 60.7914892,9.91170166 68.4999788,9.91170166 C76.2080658,9.91170166 83.9270218,11.4036526 91.1818341,14.386755 C98.1749868,17.2623475 104.71567,21.5119896 110.377579,27.1332833 C110.914585,27.6664369 111.482588,28.2531457 112.080379,28.8922107 C112.616982,29.4657305 113.130238,30.038451 113.620145,30.6091732 C114.183719,31.2662231 114.693351,31.8813081 115.148639,32.4552276 C115.582994,33.0027692 116.051566,33.6218509 116.552744,34.310874 Z M117.543025,39.9057898 C115.704565,39.6080391 113.97882,38.6128723 112.802962,36.9906304 C112.4463,36.5006407 112.013958,35.9355138 111.507546,35.2968485 C111.026898,34.6909558 110.559131,34.1230313 110.105453,33.5946736 C109.672709,33.0902959 109.201722,32.5659349 108.692492,32.0215907 C108.252904,31.5511845 107.721534,31.0068402 107.098784,30.3885579 C101.860763,25.1881118 95.8397762,21.2693927 89.4246897,18.6316011 C82.753177,15.8874986 75.6320123,14.5158469 68.4999788,14.5158469 C61.3683478,14.5158469 54.2471832,15.8874986 47.5748653,18.6316011 C41.1601814,21.2693927 35.1391944,25.1881118 29.9015759,30.3885579 C29.2784236,31.0068402 28.7470535,31.5511845 28.3074655,32.0215907 C27.7982358,32.5659349 27.3272487,33.0902959 26.8945041,33.5946736 C26.4408267,34.1230313 25.97306,34.6909558 25.4924116,35.2968485 C24.9859998,35.9355138 24.5540603,36.5006407 24.1969957,36.9906304 C23.021138,38.6128723 21.2953928,39.6080391 19.4569327,39.9057898 C17.6192777,40.2027412 15.6652849,39.8026761 14.0309193,38.6348539 L14.0309193,38.6344542 C12.3969562,37.4670316 11.3945989,35.7540657 11.0950994,33.9291936 C10.7955999,32.1043214 11.1985556,30.1647453 12.3744132,28.5421038 L12.3748158,28.5421038 C12.9303391,27.7787429 13.4955236,27.0333669 14.0683567,26.3075746 C14.6669532,25.5494093 15.2494476,24.8404029 15.8146321,24.1817544 C16.4587171,23.4315824 17.0867,22.726173 17.6961654,22.0679241 C18.367624,21.3429311 18.9911788,20.6942742 19.5640119,20.1251507 C26.1823876,13.554252 33.8252611,8.58840955 41.9938689,5.22882229 C50.4704299,1.74294076 59.4904375,0 68.4999788,0 C77.5095201,0 86.5299303,1.74294076 95.0060887,5.22882229 C103.174697,8.58840955 110.81757,13.554252 117.435946,20.1251507 C118.009181,20.6942742 118.632334,21.3429311 119.304195,22.0679241 C119.913258,22.726173 120.54124,23.4315824 121.185325,24.1817544 C121.75051,24.8404029 122.333004,25.5494093 122.932003,26.3075746 C123.504434,27.0333669 124.069619,27.7787429 124.625142,28.5421038 L124.625544,28.5421038 C125.801805,30.1647453 126.204358,32.1043214 125.904858,33.9291936 C125.605359,35.7540657 124.603001,37.4670316 122.969038,38.6344542 L122.968636,38.6348539 C121.335075,39.8026761 119.38068,40.2027412 117.543025,39.9057898 Z" id="Fill-2"></path>
                    <path d="M130.996804,85.5644849 L130.996405,85.5644849 C130.340504,85.5644849 129.742125,85.8327043 129.307122,86.2641533 C128.871719,86.6952061 128.60129,87.2890923 128.60129,87.9400296 L128.60129,93.0603666 C128.60129,93.7109077 128.871719,94.3043977 129.307122,94.7362429 C129.742125,95.1676919 130.340504,95.4359113 130.996405,95.4359113 L130.996804,95.4359113 C131.654702,95.4359113 132.254679,95.1668995 132.691281,94.7342619 C133.127083,94.3020206 133.397911,93.7069458 133.397911,93.0540276 L133.397911,87.9463686 C133.397911,87.2934504 133.127083,86.6983756 132.691281,86.2657381 C132.254679,85.8331005 131.654702,85.5644849 130.996804,85.5644849 Z M130.996405,81 L130.996804,81 C132.92536,81 134.676558,81.7812832 135.944419,83.0387847 C137.21268,84.2966824 138,86.0335717 138,87.9463686 L138,93.0540276 C138,94.9664283 137.21268,96.7037137 135.944419,97.9616114 C134.676558,99.219113 132.92536,100 130.996804,100 L130.996405,100 C129.070247,100 127.320247,99.2199053 126.053184,97.9635924 C124.786521,96.7068832 124,94.9711825 124,93.0603666 L124,87.9400296 C124,86.0292137 124.786521,84.2935129 126.053184,83.0368038 C127.320247,81.7804909 129.070247,81 130.996405,81 L130.996405,81 Z" id="Fill-3"></path>
                    <path d="M119.004458,70 C121.480522,70 123.730016,71.0018164 125.359784,72.6159656 C126.988741,74.2297132 128,76.4582027 128,78.9111472 L128,103.088853 C128,105.541797 126.988741,107.770287 125.359784,109.384034 C123.730016,110.998184 121.480522,112 119.004458,112 C116.526368,112 114.274443,110.996979 112.643459,109.381625 C111.012475,107.766272 110,105.535373 110,103.080019 L110,78.9203824 C110,76.4650287 111.012475,74.23413 112.643459,72.6183748 C114.274037,71.003021 116.525963,70 119.004458,70 Z M122.058095,75.8864245 C121.273002,75.1086616 120.192029,74.6256214 119.004458,74.6256214 C117.814862,74.6256214 116.731862,75.1094646 115.944742,75.8888337 C115.158027,76.6686042 114.669624,77.7414914 114.669624,78.9203824 L114.669624,103.080019 C114.669624,104.258107 115.158027,105.331396 115.944742,106.111166 C116.731862,106.890535 117.814862,107.374379 119.004458,107.374379 C120.192029,107.374379 121.273002,106.891338 122.058095,106.113977 C122.843594,105.335813 123.330781,104.264933 123.330781,103.088853 L123.330781,78.9111472 C123.330781,77.7354685 122.843594,76.6641874 122.058095,75.8864245 L122.058095,75.8864245 Z" id="Fill-4"></path>
                    <path d="M7.00319562,81 L7.00359507,81 C8.92975348,81 10.6797535,81.7804909 11.9468158,83.0368038 C13.2134787,84.2935129 14,86.0292137 14,87.9400296 L14,93.0603666 C14,94.9711825 13.2138781,96.7068832 11.9468158,97.9635924 C10.6797535,99.2199053 8.92975348,100 7.00359507,100 L7.00319562,100 C5.07503995,100 3.32344214,99.219113 2.05558092,97.9616114 C0.787719699,96.7037137 0,94.9664283 0,93.0540276 L0,87.9463686 C0,86.0335717 0.787719699,84.2966824 2.05558092,83.0387847 C3.32344214,81.7812832 5.07503995,81 7.00319562,81 Z M7.00359507,85.5644849 L7.00319562,85.5644849 C6.34529788,85.5644849 5.7453207,85.8331005 5.30911892,86.2657381 C4.87291714,86.6983756 4.60168911,87.2934504 4.60168911,87.9463686 L4.60168911,93.0540276 C4.60168911,93.7069458 4.87291714,94.3020206 5.30911892,94.7342619 C5.7453207,95.1668995 6.34529788,95.4359113 7.00319562,95.4359113 L7.00359507,95.4359113 C7.65949555,95.4359113 8.25787491,95.1676919 8.69327779,94.7362429 C9.12828121,94.3043977 9.39831089,93.7109077 9.39831089,93.0603666 L9.39831089,87.9400296 C9.39831089,87.2890923 9.12828121,86.6952061 8.69327779,86.2641533 C8.25787491,85.8327043 7.659895,85.5644849 7.00359507,85.5644849 L7.00359507,85.5644849 Z" id="Fill-5"></path>
                    <path d="M18.9955415,74.6256214 C17.8083765,74.6256214 16.7269984,75.1086616 15.941905,75.8864245 C15.1568115,76.6641874 14.6692186,77.7354685 14.6692186,78.9111472 L14.6692186,103.088853 C14.6692186,104.264933 15.1568115,105.335813 15.941905,106.113977 C16.7269984,106.891338 17.8083765,107.374379 18.9955415,107.374379 C20.1851385,107.374379 21.2685431,106.890535 22.0552578,106.111166 C22.8419725,105.331396 23.3307814,104.258107 23.3307814,103.080019 L23.3307814,78.9203824 C23.3307814,77.7414914 22.8419725,76.6686042 22.0552578,75.8888337 C21.2685431,75.1094646 20.1851385,74.6256214 18.9955415,74.6256214 Z M12.6406215,72.6159656 C14.2699842,71.0018164 16.5194776,70 18.9955415,70 C21.4740374,70 23.7259626,71.003021 25.3565413,72.6183748 C26.9875253,74.23413 28,76.4650287 28,78.9203824 L28,103.080019 C28,105.535373 26.9875253,107.766272 25.3565413,109.381625 C23.7259626,110.996979 21.4740374,112 18.9955415,112 C16.5194776,112 14.2695789,110.998184 12.6406215,109.384034 C11.0112587,107.770287 10,105.541797 10,103.088853 L10,78.9111472 C10,76.4582027 11.0112587,74.2297132 12.6406215,72.6159656 L12.6406215,72.6159656 Z" id="Fill-6"></path>
                    <path d="M134,99.2266504 C130.512328,111.950453 123.140041,122.829601 113.351994,130.685859 C103.563135,138.541304 91.3625756,143.372639 78.2191717,144 L78,139.331405 C90.1461725,138.751645 101.414035,134.292171 110.447563,127.042118 C119.481497,119.791251 126.287185,109.748178 129.506574,98 L134,99.2266504" id="Fill-7"></path>
                    <path d="M76.10258,148 L66.89742,148 C65.5591543,148 64.337223,147.481446 63.4461699,146.645403 L63.4415334,146.641032 L63.4368969,146.636661 C62.5500588,145.796644 62,144.6447 62,143.382687 L62,139.616915 C62,138.344969 62.5500588,137.189846 63.4368969,136.3542 C64.3228919,135.518554 65.5481953,135 66.89742,135 L76.10258,135 C77.4513832,135 78.6771081,135.518554 79.5631031,136.3542 C80.4499412,137.189846 81,138.344969 81,139.616915 L81,143.382687 C81,144.6447 80.4503627,145.796644 79.5631031,146.636661 L79.5584666,146.641032 L79.5538301,146.645403 C78.662777,147.481446 77.4412672,148 76.10258,148 Z M66.89742,143.422423 L76.10258,143.422423 C76.1177541,143.422423 76.1274486,143.420436 76.1303991,143.417655 L76.1396721,143.408913 C76.1426226,143.406132 76.1443086,143.39739 76.1443086,143.382687 L76.1443086,139.616915 C76.1443086,139.608173 76.1388291,139.598637 76.1303991,139.59069 C76.1215476,139.582742 76.1114316,139.577179 76.10258,139.577179 L66.89742,139.577179 C66.8885684,139.577179 66.8784524,139.582742 66.8700224,139.59069 C66.8611709,139.598637 66.8556914,139.608173 66.8556914,139.616915 L66.8556914,143.382687 C66.8556914,143.39739 66.8577989,143.406132 66.8603279,143.408913 L66.8700224,143.417655 C66.8729729,143.420436 66.8826674,143.422423 66.89742,143.422423 L66.89742,143.422423 Z" id="Fill-8"></path>
                </g>
            </g>
        </g>
    </g>
</svg>