<?xml version="1.0" encoding="UTF-8"?>
<svg width="260px" height="208px" viewBox="0 0 260 208" version="1.1" xmlns="http://www.w3.org/2000/svg" xmlns:xlink="http://www.w3.org/1999/xlink">
    <title>Group 4</title>
    <g id="Landing-Pages" stroke="none" stroke-width="1" fill="none" fill-rule="evenodd">
        <g id="Updated-Landing-Page" transform="translate(-950.000000, -3549.000000)">
            <g id="Group-4" transform="translate(950.000000, 3550.689294)">
                <circle id="Oval" fill="#FCDD56" cx="103" cy="109.310706" r="67"></circle>
                <g id="wordpress-logo-svgrepo-com" transform="translate(0.000000, 21.310706)" fill="#000000" fill-rule="nonzero">
                    <path d="M59.0030653,0 C26.4674501,0 0,26.465399 0,58.9975478 C0,91.5321488 26.4686763,118 59.0018392,118 C91.533776,118 118,91.5321488 118,58.9975478 C118.001226,26.4666251 91.5350021,0 59.0030653,0 Z M5.95413406,58.9975478 C5.95413406,51.3086658 7.60329187,44.0060058 10.5472531,37.4108063 L35.8523229,106.739485 C18.1579018,98.1396093 5.95413406,79.9945345 5.95413406,58.9975478 Z M59.0030653,112.047278 C53.7956503,112.047278 48.769704,111.283416 44.0171867,109.885661 L59.9324792,63.6383416 L76.2413625,108.308894 C76.3468105,108.572506 76.4755551,108.812822 76.6190135,109.039651 C71.1050635,110.979343 65.1803568,112.047278 59.0030653,112.047278 Z M66.3120837,34.1273067 C69.5049513,33.9593308 72.3851533,33.622153 72.3851533,33.622153 C75.2420587,33.283749 74.9073225,29.0843516 72.0455126,29.2523275 C72.0455126,29.2523275 63.4539522,29.9254572 57.9056704,29.9254572 C52.6945769,29.9254572 43.9325831,29.2523275 43.9325831,29.2523275 C41.0732255,29.0843516 40.7397155,33.4541771 43.597847,33.622153 C43.597847,33.622153 46.3051633,33.9593308 49.1608425,34.1273067 L57.4250236,56.7721737 L45.8159336,91.5873234 L26.5017821,34.1285328 C29.6995542,33.961783 32.5736255,33.6233791 32.5736255,33.6233791 C35.4305309,33.2862012 35.0933425,29.0843516 32.2327587,29.2560058 C32.2327587,29.2560058 23.6448767,29.9291355 18.0953687,29.9291355 C17.0985172,29.9291355 15.9251016,29.9033874 14.681796,29.8653782 C24.1647599,15.4623649 40.4711909,5.95394846 59.0030653,5.95394846 C72.8155283,5.95394846 85.3883641,11.2335411 94.8247348,19.8787822 C94.5954467,19.8665212 94.3735154,19.8358687 94.1356443,19.8358687 C88.9270031,19.8358687 85.228966,24.3748961 85.228966,29.2511014 C85.228966,33.6209268 87.7486829,37.3213009 90.4376072,41.6911264 C92.4570591,45.2247506 94.8112472,49.7650042 94.8112472,56.3209684 C94.8112472,60.862448 93.0676767,66.1297797 90.7735694,73.4692228 L85.4827769,91.1508313 L66.3120837,34.1273067 Z M85.6703763,104.851288 L101.873812,58.0044057 C104.903603,50.4381338 105.907811,44.3873234 105.907811,39.0035121 C105.907811,37.0527847 105.780292,35.2393807 105.549778,33.5485869 C109.69413,41.1050499 112.051997,49.7772652 112.049546,59 C112.048318,78.5685786 101.439758,95.6555278 85.6703763,104.851288 Z" id="Shape"></path>
                </g>
                <path d="M257.187963,197.466705 C245.491744,193.943502 233.857329,188.560411 230.659023,175.677282 C227.970592,165.001826 233.208397,152.466482 240.949224,144.966445 C245.81621,140.233558 252.243723,136.014787 255.503831,129.845402 C258.315868,124.5984 255.982805,119.07922 249.678898,118.852404 C240.331193,118.580225 230.149148,128.36354 220.847796,125.354452 C214.574791,123.328233 213.292379,114.769723 209.924115,110.127562 C207.763308,107.094031 204.730224,104.757238 201.209891,103.413819 C193.951919,100.54307 185.825555,100.613787 178.620892,103.610393 C169.844866,107.511622 166.692912,116.433037 160.528063,123.071175 C160.323142,123.298184 160.137138,123.540897 159.971836,123.796985 C154.672228,127.289946 151.860191,127.365551 146.606936,122.919965 C143.19232,120.031845 139.70045,114.920933 134.848914,114.391696 C124.666869,113.408829 124.620516,124.462311 128.019682,130.737544 C131.202536,136.589387 136.301284,141.095458 138.356234,147.582385 C140.388712,154.410863 139.840217,161.727317 136.811159,168.192366 C133.025725,177.038176 127.324398,187.501938 133.999122,196.468716 C140.256677,204.9365 152.153755,203.77218 161.161543,201.005029 C166.584757,199.387077 171.77621,196.937468 177.353931,195.833632 C184.662136,194.321528 191.676777,196.151174 198.536911,198.600783 C209.553297,202.532254 219.024607,206.161304 230.890784,206.025215 C239.002429,206.025215 249.30808,207.189535 257.157062,204.815531 C258.80528,204.323296 259.949105,202.857105 260,201.17136 L260,201.110876 C259.992573,199.420122 258.847614,197.936347 257.187963,197.466705 Z M178.5,160.310706 C170.294466,160.111906 163.808132,153.623633 164.004336,145.810706 C163.808132,137.99778 170.294466,131.509506 178.5,131.310706 C186.705534,131.509506 193.191868,137.99778 192.995664,145.810706 C193.191868,153.623633 186.705534,160.111906 178.5,160.310706 Z M207.45197,158.310464 C202.763897,158.283978 198.982428,154.466774 199,149.778684 C199.017694,145.090594 202.82777,141.301943 207.51591,141.310706 C212.20405,141.319501 216,145.122395 216,149.810518 C216.004321,152.074509 215.103575,154.246322 213.498176,155.842693 C211.892778,157.439064 209.715914,158.327555 207.45197,158.310464 L207.45197,158.310464 Z" id="Shape" fill="#000000" fill-rule="nonzero"></path>
                <path d="M103,26.8828499 C153.333333,4.38992185 183.333333,9.85052349 193,43.2646548 C207.5,93.3858518 172.988342,74.7215127 178.5,32.0235054 C184.011658,-10.6745018 212.607056,-10.6745018 226.422302,32.0235054 C235.632467,60.4888436 235.632467,86.2762924 226.422302,109.385852" id="Path-2" stroke="#000000" stroke-width="2" stroke-linecap="round" stroke-linejoin="round" stroke-dasharray="6"></path>
                <path d="M23.4815674,150.810706 C29.1377384,171.767575 40.4165827,185.085934 57.3181001,190.765784 C74.2196175,196.445635 96.1135842,196.445635 123,190.765784" id="Path-3" stroke="#000000" stroke-width="2" stroke-linecap="round" stroke-linejoin="round" stroke-dasharray="6" transform="translate(73.240784, 172.918189) rotate(5.000000) translate(-73.240784, -172.918189) "></path>
            </g>
        </g>
    </g>
</svg>