<svg xmlns="http://www.w3.org/2000/svg" width="501" height="89" viewBox="0 0 501 89">
  <g fill="#5F8F3E" fill-rule="evenodd" transform="translate(-1 -1)">
    <path fill-rule="nonzero" d="M51.52,10.72 L76.6,76.6 C78.76,82.24 82.12,84.28 87.76,84.76 C88.1783846,84.7796684 88.5701112,84.9711082 88.842693,85.2891203 C89.1152747,85.6071324 89.2445512,86.0235295 89.2,86.44 C89.2189283,86.8704474 89.0645334,87.2905214 88.7713519,87.6062553 C88.4781704,87.9219892 88.0706683,88.1070351 87.64,88.12 L60.16,88.12 C59.7111288,88.1310884 59.2773414,87.957652 58.9598447,87.6401553 C58.642348,87.3226586 58.4689116,86.8888712 58.48,86.44 C58.4439277,86.0120653 58.5870166,85.5883447 58.875142,85.2698904 C59.1632673,84.951436 59.5706014,84.7667943 60,84.76 C62.76,84.76 65.88,84.04 65.88,80.68 C65.8564224,79.2795676 65.5715398,77.895852 65.04,76.6 L59.04,60.6 C58.8,59.88 58.68,59.6 57.96,59.6 L35.08,59.6 C31.48,59.6 27.08,59.6 25,64.16 L19.48,76.6 C18.9116491,77.7219735 18.571743,78.9456355 18.48,80.2 C18.48,84.52 24.12,84.76 27.12,84.76 C27.556368,84.7556452 27.9743558,84.9354401 28.2712976,85.2552236 C28.5682395,85.5750072 28.7166222,86.0051497 28.68,86.44 C28.6910884,86.8888712 28.517652,87.3226586 28.2001553,87.6401553 C27.8826586,87.957652 27.4488712,88.1310884 27,88.12 L2.68,88.12 C2.23112883,88.1310884 1.7973414,87.957652 1.47984472,87.6401553 C1.16234805,87.3226586 0.988911647,86.8888712 1,86.44 C0.960170592,86.0044006 1.10745994,85.5724151 1.40510051,85.251879 C1.70274109,84.931343 2.12264771,84.7525021 2.56,84.76 C8.44,84.4 10.36,81.64 12.64,76.6 L41.56,13.24 C42.88,10.48 45.76,8.08 48.4,8.08 C50.32,8.08 50.92,9.16 51.52,10.72 Z M29.52,53.72 C29.28,54.2 29.28,54.32 29.28,54.44 C29.28,54.56 29.52,54.8 30,54.8 L53.8,54.8 C55.48,54.8 56.2,54.44 56.2,53.36 C56.195289,52.8199585 56.0724128,52.287495 55.84,51.8 L49.24,34 C47.68,29.92 45.4,24.52 44.68,20.08 C44.68,19.84 44.56,19.72 44.44,19.72 C44.32,19.72 44.2,19.84 44.2,20.08 C43.3045753,23.149887 42.1400609,26.1347917 40.72,29 L29.52,53.72 Z"/>
    <path d="M121.26,17.68 C121.26,13.12 117.18,11.68 110.94,11.68 C110.731665,11.1844155 110.609899,10.6567619 110.58,10.12 C110.633462,8.90641311 111.53873,7.90055934 112.74,7.72 C116.444939,6.83767486 119.97447,5.33660993 123.18,3.28 C124.74,2.2 125.82,1 128,1 C129.08063,0.945984833 130.10036,1.50220091 130.64,2.44 L128.84,55.84 C128.84,56.08 128.84,56.2 128.96,56.2 C129.08,56.2 129.08,56.08 129.32,55.84 L146.1,41 C148.26,39.08 149.1,38.36 149.1,36.92 C149.1,35.24 148.02,33.68 143.82,33.68 C143.383632,33.6843548 142.965644,33.5045599 142.668702,33.1847764 C142.371761,32.8649928 142.223378,32.4348503 142.26,32 C142.26,30.92 142.86,30.44 143.94,30.44 L169.38,30.44 C169.815599,30.4001706 170.247585,30.5474599 170.568121,30.8451005 C170.888657,31.1427411 171.067498,31.5626477 171.06,32 C171.104551,32.4164705 170.975275,32.8328676 170.702693,33.1508797 C170.430111,33.4688918 170.038385,33.6603316 169.62,33.68 C163.62,34.52 157.62,38 153.3,41.6 L137.3,55.28 L151.82,70.28 C154.58,73.16 157.46,76.52 160.82,79.04 C163.69685,81.421294 167.286992,82.7728767 171.02,82.88 C172.46,82.88 173.42,82.64 174.26,82.64 C175.1,82.64 175.1,83.36 175.1,83.72 C175.118581,84.2996396 174.90221,84.8622034 174.5,85.28 C173.71174,86.1053568 172.825104,86.8307863 171.86,87.44 C169.408545,88.6185215 166.719949,89.220548 164,89.2 C160.506241,89.2492337 157.092409,88.1534358 154.28,86.08 C151.547618,83.9056871 149.089599,81.4073732 146.96,78.64 L129.3,58.12 C129.06,57.88 129.06,57.76 128.94,57.76 C128.82,57.76 128.82,57.88 128.82,58.12 L128.22,75.76 C128.22,81.04 131.7,83.76 136.98,84.64 C137.874941,84.7691734 138.539338,85.5357848 138.54,86.44 C138.544355,86.876368 138.36456,87.2943558 138.044776,87.5912976 C137.724993,87.8882395 137.29485,88.0366222 136.86,88 L110,88 C109.56883,88.0217074 109.147186,87.8682549 108.830827,87.5744935 C108.514469,87.280732 108.330247,86.8715941 108.32,86.44 C108.273207,85.5187587 108.961461,84.7246197 109.88,84.64 C115.88,83.8 119.24,81.88 119.36,76.48 L121.26,17.68 Z"/>
    <path fill-rule="nonzero" d="M192.06,45.64 C192.06,41.08 188.94,39.52 182.7,39.52 C182.454917,39.0802229 182.330704,38.5833717 182.34,38.08 C182.381617,36.8616002 183.2927,35.8492849 184.5,35.68 C187.944132,34.7982241 191.197755,33.2934233 194.1,31.24 C195.54,30.24 196.74,28.96 198.78,28.96 C199.913036,28.8158848 200.999675,29.4579897 201.42,30.52 L200,72 C200,78.6 200.72,83.4 208.52,84.6 C209.438539,84.6846197 210.126793,85.4787587 210.08,86.4 C210.096561,86.8470624 209.919152,87.2794778 209.593378,87.5860888 C209.267604,87.8926998 208.825239,88.0436004 208.38,88 L181.5,88 C181.082104,88.0140827 180.677077,87.8542527 180.381412,87.5585879 C180.085747,87.2629231 179.925917,86.857896 179.94,86.44 C179.840606,85.5453038 180.485308,84.7394273 181.38,84.64 C189.78,83.56 190.86,79.48 191.1,72.16 L192.06,45.64 Z M203.22,8.08 C203.22,12.4 200.58,14.92 196.14,14.92 C191.7,14.92 189.78,12.64 189.78,9.04 C189.78,4.6 192.42,2.2 196.78,2.2 C201.3,2.2 203.22,4.48 203.22,8.08 Z"/>
    <path d="M258.9 38.56C258.9 40.48 258.54 44.68 258.54 45.4 258.462727 45.9684932 258.005557 46.4097461 257.434683 46.4668335 256.86381 46.5239209 256.328316 46.1819343 256.14 45.64 254.7 37.96 248.34 34.36 242.22 34.36 236.1 34.36 231.22 37.36 231.22 43.36 231.22 49.36 239.38 52.12 244.3 54.36 250.78 57.48 257.38 59.88 259.66 65.76 260.253968 67.3584709 260.539016 69.0551878 260.5 70.76 260.512624 72.7704462 260.146229 74.7652616 259.42 76.64 256.18 84.92 246.42 89.12 237.1 89.12 223.3 89.12 220.9 84.8 220.9 75.2L220.9 72.16C220.867693 71.8426119 220.988763 71.5288569 221.225894 71.3154383 221.463026 71.1020198 221.787757 71.0145543 222.1 71.08 223.1 71.08 223.3 71.56 223.3 71.68 225.94 79.12 233.62 83.68 240.82 83.68 246.58 83.68 251.74 80.68 251.74 75.04 251.74 67.36 245.02 65.92 238.9 62.92 233.26 60.16 227.26 58 224.26 53.44 223.151754 51.4731379 222.560002 49.2575111 222.54 47 222.562459 44.9690819 223.012211 42.9656399 223.86 41.12 227 34.36 235.38 29 245.82 29 256.26 29 258.9 32.32 258.9 38.56zM346 34.6C348.4 37.96 348.88 42.04 348.88 45.52 348.88 45.88 349 46 349.12 46 349.24 46 349.36 45.88 349.48 45.64 352.74 36.16 360.66 29 371.1 29 384.42 29 386.94 39.68 386.94 48.44L386.1 72.2C386.1 78.92 387.1 83.48 394.74 84.68 395.20157 84.6956415 395.637987 84.894141 395.953106 85.231768 396.268224 85.5693951 396.43619 86.0184487 396.42 86.48 396.415399 86.9354995 396.215654 87.3671496 395.871421 87.6654854 395.527187 87.9638212 395.071529 88.1001866 394.62 88.04L367.86 88.04C367.424401 88.0798294 366.992415 87.9325401 366.671879 87.6348995 366.351343 87.3372589 366.172502 86.9173523 366.18 86.48 366.116418 86.0278303 366.251566 85.5702643 366.550619 85.225203 366.849672 84.8801418 367.283384 84.6813316 367.74 84.68 376.14 83.6 377.1 79.4 377.34 72.2L377.94 54.2C377.94 46.04 376.5 37.52 366.66 37.52 354.42 37.52 349.66 48.92 349.26 59.12L348.78 72.2C348.78 78.92 349.78 83.48 357.42 84.68 357.869057 84.7026109 358.289438 84.9074997 358.583911 85.2472769 358.878385 85.5870541 359.021444 86.0322884 358.98 86.48 358.973206 86.9093986 358.788564 87.3167327 358.47011 87.604858 358.151655 87.8929834 357.727935 88.0360723 357.3 88L330.42 88C330.002104 88.0140827 329.597077 87.8542527 329.301412 87.5585879 329.005747 87.2629231 328.845917 86.857896 328.86 86.44 328.791601 86.0067457 328.908756 85.564713 329.18276 85.2222082 329.456764 84.8797034 329.862299 84.6683741 330.3 84.64 338.7 83.56 339.78 79.36 340.02 72.16L340.62 54.16C340.62 46 339.06 37.48 329.22 37.48 316.86 37.48 312.22 49.36 311.82 59.56L311.34 72.16C311.34 78.76 312.18 83.44 319.98 84.64 320.429057 84.6626109 320.849438 84.8674997 321.143911 85.2072769 321.438385 85.5470541 321.581444 85.9922884 321.54 86.44 321.564522 86.8824249 321.390859 87.3128108 321.066156 87.6143214 320.741452 87.915832 320.299399 88.0571823 319.86 88L293.1 88C292.651657 88.0443893 292.204797 87.902379 291.864332 87.6073095 291.523867 87.31224 291.319785 86.8901009 291.3 86.44 291.243372 85.9686993 291.397614 85.4964287 291.721504 85.1494036 292.045394 84.8023786 292.505918 84.6159715 292.98 84.64 301.26 83.56 302.34 79.48 302.58 72.16L303.42 46.24C303.42 41.56 299.34 40.12 292.98 40.12 292.761824 39.6700187 292.639248 39.1797134 292.62 38.68 292.663375 37.4387343 293.559971 36.3927054 294.78 36.16 298.47154 35.2966034 301.997739 33.8374869 305.22 31.84 306.78 30.64 307.86 29.44 309.9 29.44 311.052263 29.3475092 312.14495 29.9651149 312.66 31L311.46 45.52C311.46 45.88 311.58 46 311.7 46 311.82 46 311.94 45.88 312.06 45.64 315.78 35.8 323.46 29 333.66 29 339.78 29 343.62 31.36 346 34.6z"/>
    <path fill-rule="nonzero" d="M450.42,44.8 C450.42,46.96 449.94,50.92 447.66,52.24 C440.34,56.32 424,58 412.5,58 C412.02,58 411.9,58.24 411.9,58.6 C411.918899,61.5381303 412.40497,64.4545581 413.34,67.24 C416.34,75.76 423.34,80.24 431.7,80.24 C438.656523,80.2252459 445.214299,76.9906673 449.46,71.48 C449.731188,70.9170058 450.277743,70.5374538 450.9,70.48 C451.315854,70.43842 451.730617,70.5687625 452.047932,70.8407463 C452.365246,71.11273 452.55749,71.502679 452.58,71.92 C452.554942,72.1749474 452.472922,72.4210071 452.34,72.64 C447.42,83.8 437.46,89.2 428,89.2 C412,89.08 404.36,75.64 404.36,62.68 C404.36,47.68 414.36,28.96 433.04,28.96 C443.1,29 450.42,36.28 450.42,44.8 Z M412.98,48.8 C412.736793,49.6291218 412.536527,50.4702399 412.38,51.32 C412.200092,52.137627 412.073161,52.9660167 412,53.8 C412.036552,54.0963399 412.302864,54.3093899 412.6,54.28 C421.96,54.28 441.16,50.92 441.16,47.8 C440.946526,41.1699645 435.552962,35.8821573 428.92,35.8 C420.66,35.8 415.14,41.92 413,48.76 L412.98,48.8 Z"/>
    <path d="M470.1 38.68C470.1 38.08 469.86 37.84 469.02 37.84L460.86 37.84C460.109573 37.5152703 459.667826 36.7299423 459.78 35.92 459.775123 35.224316 460.207123 34.600316 460.86 34.36 468.66 31.6 472.62 26.44 475.02 16.48 475.405046 15.5148201 476.387173 14.9255437 477.42 15.04 478.74 15.04 479.7 15.52 479.7 16.72L479.22 30.72C479.22 31.2 479.34 31.56 480.06 31.56L498.06 31.56C498.916598 31.9417989 499.477031 32.782448 499.5 33.72 499.487156 34.8004968 498.748014 35.7367434 497.7 36L479.1 37.8 478 69.64C478 72.64 478 76.12 480.28 78.52 482.099445 80.4290821 484.643864 81.4759288 487.28 81.4 491.28 81.4 495.2 79.72 499.28 75.64 499.493747 75.4027457 499.800784 75.2711584 500.12 75.28 500.445072 75.2558182 500.76455 75.3744586 500.995046 75.6049543 501.225541 75.8354501 501.344182 76.154928 501.32 76.48 501.249248 76.9475103 501.086073 77.3962425 500.84 77.8 497.96 84.4 491.24 89.2 482.6 89.2 478.875573 89.3795181 475.247045 87.9861635 472.6 85.36 469.5 82.24 469 77.8 469 73.6L470.1 38.68zM97.39 50.86C97.39 53.94 95.64 55.69 92.49 55.69 89.34 55.69 88.08 54.08 88.08 51.63 88.08 48.55 89.9 46.8 92.98 46.8 96.06 46.8 97.39 48.48 97.39 50.86zM282.09 50.86C282.09 53.94 280.34 55.69 277.19 55.69 274.04 55.69 272.78 54.08 272.78 51.63 272.78 48.55 274.6 46.8 277.68 46.8 280.76 46.8 282.09 48.48 282.09 50.86z"/>
  </g>
</svg>
