<?xml version="1.0" encoding="UTF-8"?>
<svg width="559px" height="512px" viewBox="0 0 559 512" version="1.1" xmlns="http://www.w3.org/2000/svg" xmlns:xlink="http://www.w3.org/1999/xlink">
    <title>Group 14</title>
    <g id="Homepage" stroke="none" stroke-width="1" fill="none" fill-rule="evenodd">
        <g id="Design-Updates-Copy-2" transform="translate(-826, -1919)">
            <g id="Group-14" transform="translate(826.5378, 1919.2086)">
                <path d="M38.9231038,177.594891 C97.4621663,109.791432 468.29632,-90.9487591 433.394076,47.7914318 C398.491832,186.531623 508.462166,164.126385 553.962166,248.409985 C599.462166,332.693584 287.962166,481.791432 130.739391,495.922811 C-26.4833837,510.05419 162.185281,353.063033 73.4621663,319.507379 C-15.2609487,285.951724 -19.6159587,245.39835 38.9231038,177.594891 Z" id="Path-17" fill="#FBFBED"></path>
                <g id="Group-13" transform="translate(54.4622, 351.6991)">
                    <path d="M65.6875,35.0923463 L80.0693359,17.0923463 C87.3564453,22.4152101 92.8671038,28.9038169 96.6013113,36.5581666 C100.335519,44.2125164 102.334951,53.6929851 102.599609,64.9995729 L80.0693359,64.9995729 C79.8901983,58.242063 78.6964943,52.5604166 76.4882238,47.9546338 C74.2799534,43.348851 70.6797121,39.0614218 65.6875,35.0923463 Z" id="Path-42" fill="#FCDD56"></path>
                    <path d="M91,63.0923463 C91,37.6872478 70.6289561,17.0923463 45.5,17.0923463 C20.3710439,17.0923463 0,37.6872478 0,63.0923463" id="Path" stroke="#000000" stroke-width="13.5129311" stroke-dasharray="3.378232764788467,6"></path>
                    <g id="Group-10" transform="translate(53, 35.0923) rotate(22) translate(-53, -35.0923)translate(41, 2.0923)" fill="#000000">
                        <ellipse id="Oval" cx="12" cy="54.1659954" rx="12" ry="11.8340046"></ellipse>
                        <polygon id="Path-36" stroke="#000000" stroke-width="1.68911638" stroke-linejoin="round" points="4.55524554 49.1929994 13.297433 -2.54873334e-13 20.4274554 51.5690522"></polygon>
                    </g>
                    <path d="M39.1412545,58.3096315 C36.9960937,58.3096315 36.9960937,48.2227174 42.3164062,48.2227174 C47.6367187,48.2227174 50.0288086,52.7437135 48.3134766,52.7437135 C46.5981445,52.7437135 45.491558,49.8689443 42.3164062,51.8423463 C39.1412545,53.8157484 41.2864152,58.3096315 39.1412545,58.3096315 Z" id="Path-37" stroke="#FFFFFF" fill="#FFFFFF"></path>
                </g>
                <ellipse id="Oval" fill="#FCDD56" cx="337.063478" cy="57.6089553" rx="26.406117" ry="26.3143547"></ellipse>
                <g id="Group-9" transform="translate(226.4622, 69.7914)" stroke="#000000">
                    <rect id="Rectangle" stroke-width="2.52777778" fill="#FBFBED" x="1.26388889" y="1.26388889" width="270.472222" height="32.4722222"></rect>
                    <g id="Group-6" transform="translate(2.5807, 0.3358)" stroke-width="1.26388889">
                        <line x1="54.9933626" y1="4.08904183" x2="43.673678" y2="9.77816177" id="Path-35" transform="translate(49.3335, 6.9336) rotate(-60) translate(-49.3335, -6.9336)"></line>
                        <line x1="70.0760809" y1="4.30138306" x2="58.7563962" y2="9.99050299" id="Path-35" transform="translate(64.4162, 7.1459) rotate(-60) translate(-64.4162, -7.1459)"></line>
                        <line x1="83.8899311" y1="3.88872429" x2="72.5702465" y2="9.57784422" id="Path-35" transform="translate(78.2301, 6.7333) rotate(-60) translate(-78.2301, -6.7333)"></line>
                        <line x1="98.9726494" y1="4.10106551" x2="87.6529647" y2="9.79018545" id="Path-35" transform="translate(93.3128, 6.9456) rotate(-60) translate(-93.3128, -6.9456)"></line>
                        <line x1="114.055368" y1="4.31340674" x2="102.735683" y2="10.0025267" id="Path-35" transform="translate(108.3955, 7.158) rotate(-60) translate(-108.3955, -7.158)"></line>
                        <line x1="127.869218" y1="3.90074797" x2="116.549533" y2="9.5898679" id="Path-35" transform="translate(122.2094, 6.7453) rotate(-60) translate(-122.2094, -6.7453)"></line>
                        <line x1="142.951936" y1="4.11308919" x2="131.632251" y2="9.80220913" id="Path-35" transform="translate(137.2921, 6.9576) rotate(-60) translate(-137.2921, -6.9576)"></line>
                        <line x1="158.034654" y1="4.32543042" x2="146.71497" y2="10.0145504" id="Path-35" transform="translate(152.3748, 7.17) rotate(-60) translate(-152.3748, -7.17)"></line>
                        <line x1="171.848505" y1="3.91277165" x2="160.52882" y2="9.60189158" id="Path-35" transform="translate(166.1887, 6.7573) rotate(-60) translate(-166.1887, -6.7573)"></line>
                        <line x1="186.931223" y1="4.12511287" x2="175.611538" y2="9.8142328" id="Path-35" transform="translate(181.2714, 6.9697) rotate(-60) translate(-181.2714, -6.9697)"></line>
                        <line x1="202.013941" y1="4.3374541" x2="190.694256" y2="10.026574" id="Path-35" transform="translate(196.3541, 7.182) rotate(-60) translate(-196.3541, -7.182)"></line>
                        <line x1="215.827791" y1="3.92479532" x2="204.508107" y2="9.61391526" id="Path-35" transform="translate(210.1679, 6.7694) rotate(-60) translate(-210.1679, -6.7694)"></line>
                        <line x1="232.911959" y1="3.6796048" x2="221.592274" y2="9.36872473" id="Path-35" transform="translate(227.2521, 6.5242) rotate(-60) translate(-227.2521, -6.5242)"></line>
                        <line x1="247.994677" y1="3.89194602" x2="236.674992" y2="9.58106596" id="Path-35" transform="translate(242.3348, 6.7365) rotate(-60) translate(-242.3348, -6.7365)"></line>
                        <line x1="261.808527" y1="3.47928725" x2="250.488843" y2="9.16840718" id="Path-35" transform="translate(256.1487, 6.3238) rotate(-60) translate(-256.1487, -6.3238)"></line>
                        <line x1="11.0140759" y1="4.07701816" x2="-0.305608719" y2="9.76613809" id="Path-35" transform="translate(5.3542, 6.9216) rotate(-60) translate(-5.3542, -6.9216)"></line>
                        <line x1="26.0967942" y1="4.28935938" x2="14.7771095" y2="9.97847932" id="Path-35" transform="translate(20.437, 7.1339) rotate(-60) translate(-20.437, -7.1339)"></line>
                        <line x1="39.9106444" y1="3.87670061" x2="28.5909598" y2="9.56582054" id="Path-35" transform="translate(34.2508, 6.7213) rotate(-60) translate(-34.2508, -6.7213)"></line>
                    </g>
                    <g id="Group-6" transform="translate(9.9065, 0.3358)" stroke-width="2.52777778">
                        <line x1="54.9933626" y1="4.08904183" x2="43.673678" y2="9.77816177" id="Path-35" transform="translate(49.3335, 6.9336) rotate(-60) translate(-49.3335, -6.9336)"></line>
                        <line x1="70.0760809" y1="4.30138306" x2="58.7563962" y2="9.99050299" id="Path-35" transform="translate(64.4162, 7.1459) rotate(-60) translate(-64.4162, -7.1459)"></line>
                        <line x1="83.8899311" y1="3.88872429" x2="72.5702465" y2="9.57784422" id="Path-35" transform="translate(78.2301, 6.7333) rotate(-60) translate(-78.2301, -6.7333)"></line>
                        <line x1="98.9726494" y1="4.10106551" x2="87.6529647" y2="9.79018545" id="Path-35" transform="translate(93.3128, 6.9456) rotate(-60) translate(-93.3128, -6.9456)"></line>
                        <line x1="114.055368" y1="4.31340674" x2="102.735683" y2="10.0025267" id="Path-35" transform="translate(108.3955, 7.158) rotate(-60) translate(-108.3955, -7.158)"></line>
                        <line x1="127.869218" y1="3.90074797" x2="116.549533" y2="9.5898679" id="Path-35" transform="translate(122.2094, 6.7453) rotate(-60) translate(-122.2094, -6.7453)"></line>
                        <line x1="142.951936" y1="4.11308919" x2="131.632251" y2="9.80220913" id="Path-35" transform="translate(137.2921, 6.9576) rotate(-60) translate(-137.2921, -6.9576)"></line>
                        <line x1="158.034654" y1="4.32543042" x2="146.71497" y2="10.0145504" id="Path-35" transform="translate(152.3748, 7.17) rotate(-60) translate(-152.3748, -7.17)"></line>
                        <line x1="171.848505" y1="3.91277165" x2="160.52882" y2="9.60189158" id="Path-35" transform="translate(166.1887, 6.7573) rotate(-60) translate(-166.1887, -6.7573)"></line>
                        <line x1="186.931223" y1="4.12511287" x2="175.611538" y2="9.8142328" id="Path-35" transform="translate(181.2714, 6.9697) rotate(-60) translate(-181.2714, -6.9697)"></line>
                        <line x1="202.013941" y1="4.3374541" x2="190.694256" y2="10.026574" id="Path-35" transform="translate(196.3541, 7.182) rotate(-60) translate(-196.3541, -7.182)"></line>
                        <line x1="215.827791" y1="3.92479532" x2="204.508107" y2="9.61391526" id="Path-35" transform="translate(210.1679, 6.7694) rotate(-60) translate(-210.1679, -6.7694)"></line>
                        <line x1="232.911959" y1="3.6796048" x2="221.592274" y2="9.36872473" id="Path-35" transform="translate(227.2521, 6.5242) rotate(-60) translate(-227.2521, -6.5242)"></line>
                        <line x1="247.994677" y1="3.89194602" x2="236.674992" y2="9.58106596" id="Path-35" transform="translate(242.3348, 6.7365) rotate(-60) translate(-242.3348, -6.7365)"></line>
                        <line x1="261.808527" y1="3.47928725" x2="250.488843" y2="9.16840718" id="Path-35" transform="translate(256.1487, 6.3238) rotate(-60) translate(-256.1487, -6.3238)"></line>
                        <line x1="11.0140759" y1="4.07701816" x2="-0.305608719" y2="9.76613809" id="Path-35" transform="translate(5.3542, 6.9216) rotate(-60) translate(-5.3542, -6.9216)"></line>
                        <line x1="26.0967942" y1="4.28935938" x2="14.7771095" y2="9.97847932" id="Path-35" transform="translate(20.437, 7.1339) rotate(-60) translate(-20.437, -7.1339)"></line>
                        <line x1="39.9106444" y1="3.87670061" x2="28.5909598" y2="9.56582054" id="Path-35" transform="translate(34.2508, 6.7213) rotate(-60) translate(-34.2508, -6.7213)"></line>
                    </g>
                </g>
                <ellipse id="Oval" stroke="#060606" stroke-width="1.20001787" cx="191.063478" cy="304.945692" rx="33.0077764" ry="32.8909879"></ellipse>
                <ellipse id="Oval" fill="#000000" cx="265.389884" cy="150.275136" rx="27.0941533" ry="27"></ellipse>
                <ellipse id="Oval" fill="#000000" cx="290.321578" cy="380.947151" rx="11.0383588" ry="11"></ellipse>
                <ellipse id="Oval" fill="#FCDD56" cx="305.694897" cy="242.375377" rx="50.411678" ry="50.2364953"></ellipse>
                <path d="M222.04657,197.219331 C219.905152,175.396367 220.765615,162.160585 224.627961,157.511985 C227.956387,153.505996 237.591098,154.236206 249.272201,154.236206 C262.147385,154.236206 272.065543,154.239555 275.014161,159.501131 C276.979907,163.008849 277.156196,175.581582 275.543027,197.219331" id="Path-8" stroke="#000000" stroke-width="2" fill="#F4F4F4"></path>
                <polyline id="Path-7" stroke="#000000" stroke-width="2" fill="#F4F4F4" points="202.757544 234.375377 222.04657 197.219331 275.543027 197.219331 295.786858 234.54785"></polyline>
                <polygon id="Path-13" stroke="#000000" stroke-width="2" points="273.70142 309.917179 389.106828 309.917179 336.525942 361.590745 336.525942 388.236426 352.605081 403.36959 310.613525 403.36959 325.148559 388.236426 325.148559 361.590745"></polygon>
                <polygon id="Path-14" stroke="#000000" stroke-width="2" fill="#FCDD56" points="301.193432 330.80614 329.762501 359.319927 359.760822 330.80614"></polygon>
                <line x1="376.874997" y1="287.347208" x2="315.022068" y2="335.667549" id="Path-15" stroke="#000000" stroke-width="2"></line>
                <ellipse id="Oval" stroke="#000000" stroke-width="2" fill="#FFFFFF" cx="329.944471" cy="324.485768" rx="9.7767466" ry="9.742772"></ellipse>
                <polygon id="Path-6" stroke="#000000" stroke-width="2" fill="#F4F4F4" points="202.757544 234.54785 215.90031 357.170248 279.540651 357.170248 295.786858 234.54785"></polygon>
                <polygon id="Path-9" stroke="#000000" stroke-width="2" fill="#FFFFFF" points="258.714281 245.578021 274.1307 245.578021 266.42249 334.800331 258.714281 334.800331"></polygon>
                <polyline id="Path-10" stroke="#000000" stroke-width="2" points="248.378641 245.578021 248.378641 334.800331 244.18488 334.800331"></polyline>
                <polygon id="Path-11" stroke="#000000" stroke-width="2" points="258.714281 186.306735 258.714281 162.507397 266.42249 162.507397 266.42249 186.306735"></polygon>
                <line x1="251.386548" y1="162.507397" x2="251.672757" y2="186.306735" id="Path-12" stroke="#000000" stroke-width="2"></line>
                <ellipse id="Oval" fill="#FCDD56" cx="191.063478" cy="162.608955" rx="26.406117" ry="26.3143547"></ellipse>
                <ellipse id="Oval" stroke="#060606" stroke-width="1.20001787" fill="#F1F1E5" cx="196.506436" cy="133.679999" rx="15.6037447" ry="15.547436"></ellipse>
                <line x1="297.888224" y1="217.663429" x2="313.483189" y2="184.578021" id="Path-19" stroke="#000000" stroke-width="1.20001787"></line>
                <line x1="303.958072" y1="223.663956" x2="314.900914" y2="210.550265" id="Path-20" stroke="#000000" stroke-width="1.20001787"></line>
                <line x1="306.267982" y1="230.063806" x2="323.336074" y2="225.81015" id="Path-21" stroke="#000000" stroke-width="1.20001787"></line>
                <line x1="305.958072" y1="238.578021" x2="323.555155" y2="238.408767" id="Path-22" stroke="#000000" stroke-width="1.20001787"></line>
                <g id="Group-5" transform="translate(127.4622, 39.7914)" stroke="#000000" stroke-width="1.84459672">
                    <line x1="34.7562473" y1="24.2055248" x2="51.9946951" y2="24.3066784" id="Path-25"></line>
                    <line x1="14.4460144" y1="24.2055248" x2="0.912187633" y2="24.3066784" id="Path-26"></line>
                    <line x1="25.6927886" y1="17.1776517" x2="25.6927886" y2="0" id="Path-27"></line>
                    <line x1="25.6927886" y1="50" x2="25.6927886" y2="32.8223483" id="Path-27"></line>
                </g>
                <g id="Group-5" transform="translate(462.4622, 319.7914)" stroke="#000000" stroke-width="1.75624883">
                    <line x1="33.4446908" y1="23.2373038" x2="50.0326311" y2="23.3344112" id="Path-25"></line>
                    <line x1="13.9008818" y1="23.2373038" x2="0.877765458" y2="23.3344112" id="Path-26"></line>
                    <line x1="24.7232494" y1="16.4905456" x2="24.7232494" y2="0" id="Path-27"></line>
                    <line x1="24.7232494" y1="48" x2="24.7232494" y2="31.5094544" id="Path-27"></line>
                </g>
                <g id="Group-5" transform="translate(175.2554, 457.9666)" stroke="#000000" stroke-width="2.40003574">
                    <line x1="38.4088975" y1="26.0153279" x2="56.555103" y2="26.114856" id="Path-25"></line>
                    <line x1="15.4443309" y1="26.0153279" x2="0.975225913" y2="26.114856" id="Path-26"></line>
                    <line x1="27.6063951" y1="17.9416055" x2="27.6063951" y2="0" id="Path-27"></line>
                    <line x1="27.6063951" y1="53.8248164" x2="27.6063951" y2="35.8832109" id="Path-27"></line>
                </g>
                <path d="M179.587999,177.321127 C167.86459,201.484183 164.933737,219.8356 170.795442,232.375377 C176.657147,244.915155 186.680196,249.917206 200.86459,247.381532" id="Path-23" stroke="#000000" stroke-width="1.20001787" stroke-dasharray="4.800071965479151"></path>
                <path d="M303.089892,115.190263 C311.091746,125.004205 313.092209,137.810436 309.091282,153.608955 C305.090355,169.407475 295.744611,180.944267 281.05405,188.219331" id="Path-24" stroke="#000000" stroke-width="1.20001787" stroke-dasharray="4.800071965479151"></path>
                <path d="M406.089892,284.190263 C414.091746,294.004205 416.092209,306.810436 412.091282,322.608955 C408.090355,338.407475 398.744611,349.944267 384.05405,357.219331" id="Path-24" stroke="#000000" stroke-width="1.20001787" stroke-dasharray="4.800071965479151" transform="translate(399.0729, 320.7048) rotate(23) translate(-399.0729, -320.7048)"></path>
                <path d="M208.827672,325.024945 C194.410323,337.706193 175.021504,344.046818 150.661215,344.046818 C126.300925,344.046818 110.689744,338.702949 103.827672,328.015213" id="Path-29" stroke="#000000" stroke-width="1.20001787" stroke-dasharray="4.800071965479151" transform="translate(156.3277, 334.5359) rotate(27) translate(-156.3277, -334.5359)"></path>
                <path d="M251.672757,359.966615 C251.2283,371.578383 253.575474,379.55243 258.714281,383.888756 C263.853087,388.225082 270.872682,389.221838 279.773065,386.879024" id="Path-32" stroke="#000000" stroke-width="1.20001787" stroke-dasharray="4.800071965479151"></path>
                <g id="Group-8" transform="translate(64.4622, 73.7914)" stroke="#000000">
                    <polygon id="Path-33" stroke-width="2.32725982" fill="#FCDD56" points="3.15777606e-17 0 3.15777606e-17 228 131 228"></polygon>
                    <polygon id="Path-34" stroke-width="2.32725982" fill="#FFFFFF" points="23.9764503 92.1298453 86.5493028 202.58277 23.9764503 202.58277"></polygon>
                    <g id="Group-6" transform="translate(6.0697, 29.487)" stroke-width="1.16362991">
                        <line x1="27.7255896" y1="30.2543776" x2="17.3193321" y2="35.6371724" id="Path-35"></line>
                        <line x1="33.4987003" y1="40.7270468" x2="23.0924428" y2="46.1098415" id="Path-35"></line>
                        <line x1="39.271811" y1="50.0360861" x2="28.8655535" y2="55.4188808" id="Path-35"></line>
                        <line x1="45.0449217" y1="60.5087552" x2="34.6386641" y2="65.89155" id="Path-35"></line>
                        <line x1="50.8180324" y1="70.9814244" x2="40.4117748" y2="76.3642192" id="Path-35"></line>
                        <line x1="56.5911431" y1="80.2904637" x2="46.1848855" y2="85.6732584" id="Path-35"></line>
                        <line x1="62.3642537" y1="90.7631329" x2="51.9579962" y2="96.1459276" id="Path-35"></line>
                        <line x1="68.1373644" y1="101.235802" x2="57.7311069" y2="106.618597" id="Path-35"></line>
                        <line x1="73.9104751" y1="110.544841" x2="63.5042176" y2="115.927636" id="Path-35"></line>
                        <line x1="79.6835858" y1="121.01751" x2="69.2773283" y2="126.400305" id="Path-35"></line>
                        <line x1="85.4566965" y1="131.49018" x2="75.050439" y2="136.872974" id="Path-35"></line>
                        <line x1="91.2298072" y1="140.799219" x2="80.8235497" y2="146.182014" id="Path-35"></line>
                        <line x1="98.15754" y1="152.435518" x2="87.7512825" y2="157.818313" id="Path-35"></line>
                        <line x1="103.930651" y1="162.908187" x2="93.5243932" y2="168.290982" id="Path-35"></line>
                        <line x1="109.703761" y1="172.217226" x2="99.2975039" y2="177.600021" id="Path-35"></line>
                        <line x1="10.4062575" y1="0" x2="-3.45949258e-16" y2="5.38279474" id="Path-35"></line>
                        <line x1="16.1793682" y1="10.4726692" x2="5.77311069" y2="15.8554639" id="Path-35"></line>
                        <line x1="21.9524789" y1="19.7817084" x2="11.5462214" y2="25.1645032" id="Path-35"></line>
                    </g>
                    <g id="Group-6" transform="translate(9.5335, 34.1415)" stroke-width="2.32725982">
                        <line x1="27.7255896" y1="30.2543776" x2="17.3193321" y2="35.6371724" id="Path-35"></line>
                        <line x1="33.4987003" y1="40.7270468" x2="23.0924428" y2="46.1098415" id="Path-35"></line>
                        <line x1="39.271811" y1="50.0360861" x2="28.8655535" y2="55.4188808" id="Path-35"></line>
                        <line x1="45.0449217" y1="60.5087552" x2="34.6386641" y2="65.89155" id="Path-35"></line>
                        <line x1="50.8180324" y1="70.9814244" x2="40.4117748" y2="76.3642192" id="Path-35"></line>
                        <line x1="56.5911431" y1="80.2904637" x2="46.1848855" y2="85.6732584" id="Path-35"></line>
                        <line x1="62.3642537" y1="90.7631329" x2="51.9579962" y2="96.1459276" id="Path-35"></line>
                        <line x1="68.1373644" y1="101.235802" x2="57.7311069" y2="106.618597" id="Path-35"></line>
                        <line x1="73.9104751" y1="110.544841" x2="63.5042176" y2="115.927636" id="Path-35"></line>
                        <line x1="79.6835858" y1="121.01751" x2="69.2773283" y2="126.400305" id="Path-35"></line>
                        <line x1="85.4566965" y1="131.49018" x2="75.050439" y2="136.872974" id="Path-35"></line>
                        <line x1="91.2298072" y1="140.799219" x2="80.8235497" y2="146.182014" id="Path-35"></line>
                        <line x1="98.15754" y1="152.435518" x2="87.7512825" y2="157.818313" id="Path-35"></line>
                        <line x1="103.930651" y1="162.908187" x2="93.5243932" y2="168.290982" id="Path-35"></line>
                        <line x1="109.703761" y1="172.217226" x2="99.2975039" y2="177.600021" id="Path-35"></line>
                        <line x1="10.4062575" y1="0" x2="-3.45949258e-16" y2="5.38279474" id="Path-35"></line>
                        <line x1="16.1793682" y1="10.4726692" x2="5.77311069" y2="15.8554639" id="Path-35"></line>
                        <line x1="21.9524789" y1="19.7817084" x2="11.5462214" y2="25.1645032" id="Path-35"></line>
                    </g>
                </g>
                <rect id="Rectangle" stroke="#000000" stroke-width="2.70689655" fill="#FBFBED" x="340.815615" y="153.14488" width="154.293103" height="21.2931034" rx="5.4137931"></rect>
                <polygon id="Path-39" stroke="#000000" stroke-width="2" fill="#FCDD56" stroke-linecap="round" stroke-linejoin="round" points="440.675947 149.791432 428.462166 134.791432 454.462166 134.791432"></polygon>
                <polygon id="Path-39" stroke="#000000" fill="#FCDD56" stroke-linecap="round" stroke-linejoin="round" points="392.978339 195.791432 385.462166 188.791432 401.462166 188.791432"></polygon>
                <line x1="351.462166" y1="201.291432" x2="490.462166" y2="201.291432" id="Path-40" stroke="#000000" stroke-width="2"></line>
                <line x1="350.962166" y1="191.791432" x2="350.962166" y2="209.791432" id="Path-41" stroke="#000000" stroke-width="2"></line>
                <line x1="489.962166" y1="191.791432" x2="489.962166" y2="209.791432" id="Path-41" stroke="#000000" stroke-width="2"></line>
                <polygon id="Path-39" stroke="#000000" fill="#FCDD56" stroke-linecap="round" stroke-linejoin="round" points="468.978339 228.791432 461.462166 221.791432 477.462166 221.791432"></polygon>
                <line x1="365.462166" y1="233.291432" x2="504.462166" y2="233.291432" id="Path-40" stroke="#000000" stroke-width="2"></line>
                <line x1="364.962166" y1="223.791432" x2="364.962166" y2="241.791432" id="Path-41" stroke="#000000" stroke-width="2"></line>
                <line x1="503.962166" y1="223.791432" x2="503.962166" y2="241.791432" id="Path-41" stroke="#000000" stroke-width="2"></line>
                <g id="Group-7" transform="translate(372.4622, 254.7914)" stroke="#000000">
                    <polygon id="Path-39" fill="#FCDD56" stroke-linecap="round" stroke-linejoin="round" points="58.5161727 7 51 -2.91883599e-16 67 -4.50166163e-14"></polygon>
                    <line x1="0" y1="11.5" x2="139" y2="11.5" id="Path-40" stroke-width="2"></line>
                    <line x1="0.5" y1="2" x2="0.5" y2="20" id="Path-41" stroke-width="2"></line>
                    <line x1="138.5" y1="2" x2="138.5" y2="20" id="Path-41" stroke-width="2"></line>
                </g>
                <rect id="Rectangle" fill="#FCDD56" x="439.462166" y="157.791432" width="50" height="12"></rect>
                <path d="M226.268807,366.844689 C198.397713,426.757101 175.929641,457.719817 158.86459,459.732838 C141.799539,461.745859 130.46426,450.313809 124.858754,425.436689" id="Path-38" stroke="#000000" stroke-dasharray="4"></path>
                <path d="M298.69029,264.106588 C312.825026,263.674114 322.159895,266.821359 326.694897,273.548322 C331.229898,280.275285 331.229898,290.022989 326.694897,302.791432" id="Path-30" stroke="#000000" stroke-dasharray="4"></path>
                <g id="Group-12" transform="translate(343.0137, 472.8838)" stroke="#000000" stroke-width="2">
                    <line x1="0" y1="5.90765368" x2="91.9878894" y2="5.90765368" id="Path-43"></line>
                    <polyline id="Path-44" points="6.13733183 0 2.53718718e-16 6.21758335 6.13733183 12"></polyline>
                    <polyline id="Path-44" transform="translate(89.0687, 6) scale(-1, 1) translate(-89.0687, -6)" points="92.1373318 0 86 6.21758335 92.1373318 12"></polyline>
                </g>
                <path d="M240.740327,366.844689 C238.295731,382.374288 237.480866,393.414479 238.295731,399.96526 C239.110596,406.516041 241.954193,413.504973 246.82652,420.932057" id="Path-16" stroke="#000000" stroke-dasharray="4"></path>
                <line x1="458.453377" y1="128.328368" x2="463.457772" y2="120.669125" id="Path-18" stroke="#000000"></line>
                <line x1="461.457772" y1="131.335377" x2="478.096932" y2="127.321358" id="Path-28" stroke="#000000"></line>
                <line x1="462.457772" y1="136.02776" x2="472.828377" y2="139.589095" id="Path-45" stroke="#000000"></line>
                <g id="Group-11" transform="translate(379.4918, 439.392) rotate(91) translate(-379.4918, -439.392)translate(333.2008, 310.6564)" stroke="#000000">
                    <rect id="Rectangle" stroke-width="1.80065865" fill="#FCDD56" x="36.4924097" y="47.1289928" width="24.1993414" height="209.199341"></rect>
                    <g id="Group-6" transform="translate(54.3992, 140.6256) rotate(90) translate(-54.3992, -140.6256)translate(-41.5539, 135.1256)" stroke-width="3.6013173">
                        <line x1="45.3555548" y1="3.21447653" x2="35.9977972" y2="7.91864637" id="Path-35" transform="translate(40.6767, 5.5666) rotate(-60) translate(-40.6767, -5.5666)"></line>
                        <line x1="57.804751" y1="3.39002392" x2="48.4469933" y2="8.09419376" id="Path-35" transform="translate(53.1259, 5.7421) rotate(-60) translate(-53.1259, -5.7421)"></line>
                        <line x1="69.2066303" y1="3.04886939" x2="59.8488726" y2="7.75303923" id="Path-35" transform="translate(64.5278, 5.401) rotate(-60) translate(-64.5278, -5.401)"></line>
                        <line x1="81.6558264" y1="3.22441678" x2="72.2980687" y2="7.92858662" id="Path-35" transform="translate(76.9769, 5.5765) rotate(-60) translate(-76.9769, -5.5765)"></line>
                        <line x1="94.1050226" y1="3.39996417" x2="84.7472649" y2="8.10413402" id="Path-35" transform="translate(89.4261, 5.752) rotate(-60) translate(-89.4261, -5.752)"></line>
                        <line x1="105.506902" y1="3.05880964" x2="96.1491442" y2="7.76297949" id="Path-35" transform="translate(100.828, 5.4109) rotate(-60) translate(-100.828, -5.4109)"></line>
                        <line x1="117.956098" y1="3.23435703" x2="108.59834" y2="7.93852688" id="Path-35" transform="translate(113.2772, 5.5864) rotate(-60) translate(-113.2772, -5.5864)"></line>
                        <line x1="130.405294" y1="3.40990442" x2="121.047537" y2="8.11407427" id="Path-35" transform="translate(125.7264, 5.762) rotate(-60) translate(-125.7264, -5.762)"></line>
                        <line x1="141.807173" y1="3.06874989" x2="132.449416" y2="7.77291974" id="Path-35" transform="translate(137.1283, 5.4208) rotate(-60) translate(-137.1283, -5.4208)"></line>
                        <line x1="154.25637" y1="3.24429728" x2="144.898612" y2="7.94846713" id="Path-35" transform="translate(149.5775, 5.5964) rotate(-60) translate(-149.5775, -5.5964)"></line>
                        <line x1="166.705566" y1="3.41984468" x2="157.347808" y2="8.12401452" id="Path-35" transform="translate(162.0267, 5.7719) rotate(-60) translate(-162.0267, -5.7719)"></line>
                        <line x1="178.107445" y1="3.07869015" x2="168.749687" y2="7.78285999" id="Path-35" transform="translate(173.4286, 5.4308) rotate(-60) translate(-173.4286, -5.4308)"></line>
                        <line x1="192.208627" y1="2.87598548" x2="182.850869" y2="7.58015532" id="Path-35" transform="translate(187.5297, 5.2281) rotate(-60) translate(-187.5297, -5.2281)"></line>
                        <line x1="9.05534162" y1="3.20450292" x2="-0.302493682" y2="7.90867242" id="Path-35" transform="translate(4.3764, 5.5566) rotate(-60) translate(-4.3764, -5.5566)"></line>
                        <line x1="21.5044794" y1="3.38008366" x2="12.1467218" y2="8.08425351" id="Path-35" transform="translate(16.8256, 5.7322) rotate(-60) translate(-16.8256, -5.7322)"></line>
                        <line x1="32.9063587" y1="3.03892913" x2="23.548601" y2="7.74309898" id="Path-35" transform="translate(28.2275, 5.391) rotate(-60) translate(-28.2275, -5.391)"></line>
                    </g>
                    <circle id="Oval" stroke-width="1.80065865" fill="#FCDD56" cx="32" cy="32" r="31.0996707"></circle>
                    <circle id="Oval" stroke-width="1.80065865" fill="#FCDD56" cx="31.5088024" cy="32.5086501" r="25.5996707"></circle>
                    <circle id="Oval" stroke-width="1.80065865" fill="#FCDD56" cx="31.5088024" cy="32.5086501" r="19.5996707"></circle>
                    <ellipse id="Oval" stroke-width="1.80065865" fill="#FFFFFF" cx="31.5000762" cy="32.0087262" rx="13.0996707" ry="13.5996707"></ellipse>
                    <polygon id="Path-49" stroke-width="1.80065865" fill="#FCDD56" stroke-linejoin="round" points="35.5821288 257.161791 77.6801172 216.471308 92.5821288 228.899687 61.452705 257.471308"></polygon>
                    <line x1="86.9745968" y1="234.649352" x2="77.9745968" y2="226.649352" id="Path-50" stroke-width="3.6013173"></line>
                    <line x1="79.1154344" y1="242.787753" x2="70.1154344" y2="234.787753" id="Path-50" stroke-width="3.6013173"></line>
                    <line x1="70.2564244" y1="250.943606" x2="61.2564244" y2="242.943606" id="Path-50" stroke-width="3.6013173"></line>
                    <line x1="59.8713881" y1="256.61714" x2="51.8713881" y2="250.61714" id="Path-50" stroke-width="3.6013173" stroke-linejoin="round"></line>
                </g>
            </g>
        </g>
    </g>
</svg>