<svg height="377" viewBox="0 0 599 377" width="599" xmlns="http://www.w3.org/2000/svg" xmlns:xlink="http://www.w3.org/1999/xlink"><mask id="a" fill="#fff"><path d="m27.5 26.1c.8.8.8 2.1 0 2.9-.4.4-.8.6-1.4.6s-1-.2-1.4-.6l-10.6-11-10.6 11c-.4.4-.8.6-1.4.6s-1-.2-1.4-.6c-.8-.8-.8-2.1 0-2.9l10.6-11-10.6-11c-.8-.8-.8-2.1 0-2.9s2-.8 2.8 0l10.6 11 10.6-11c.8-.8 2-.8 2.8 0s.8 2.1 0 2.9l-10.6 11z" fill="#fff" fill-rule="evenodd"/></mask><g fill="none" fill-rule="evenodd" transform="translate(0 -1)"><g transform="translate(21)"><path d="m93.7 368.5c97.3 25.3 152.5-11.8 252.9-8.4s172.7-12.7 196.1-92c25.3-85.9-65.4-187.3-151.7-228.7s-446.7-86.1-347.9 89.4c51.6 91.5-151.4 187.1 50.6 239.7z" fill="#f2f2f2" opacity=".403"/><path d="m100 367.3c105.5 25.3 165.4-11.8 274.2-8.4s187.3-12.7 212.6-92c27.4-85.9-70.9-187.3-164.5-228.7-93.6-41.4-484.3-86.1-377.2 89.4 55.9 91.5-164.2 187.1 54.9 239.7z"/><path d="m65.6 16.9h232.2v88.3h-232.2z" fill="#fff"/><path d="m65.6 9.3h231.5v11.5h-231.5z" fill="#3f3d56"/><path d="m83.4 38.8h42.1v29.9h-42.1z" fill="#fff"/><g fill="#e3dbdc"><path d="m163.7 38.8h116.1v3.4h-116.1z"/><path d="m163.7 52.4h116.1v3.4h-116.1z"/><path d="m163.7 65.9h116.1v3.4h-116.1z"/></g><circle cx="104.6" cy="54.1" fill="#67a07b" r="13.6"/></g><path d="m561.6 253.1c-2.4-2.5-4.8-14.3-4.8-14.3s11.4 3 13.8 5.6c2.3 2.5 2.3 6.5-.2 8.9-2.5 2.5-6.4 2.4-8.8-.2zm-20.6-6.9c-.6-3.4 3.6-14.5 3.6-14.5s8 8.8 8.6 12.3c.6 3.4-1.6 6.7-4.9 7.3-3.4.6-6.7-1.7-7.3-5.1zm-22.2-24.4c1.2-3.3 10.4-10.6 10.4-10.6s2.5 11.7 1.4 14.9c-1.1 3.3-4.7 4.9-8 3.8-3.2-1.3-4.9-4.9-3.8-8.1z" fill="#7e41ff"/><path d="m496 172.1s25.4 15 32.5 37.2c3 9.3 8.7 17.4 16.6 23 3.7 2.6 7.7 5 11.8 6.9" stroke="#adadb2" stroke-width="1.093"/><path d="m506.1 199.5c.6-3.4 8.4-12.2 8.4-12.2s4.4 11.1 3.9 14.5c-.6 3.4-3.8 5.7-7.2 5.1-3.4-.7-5.6-4-5.1-7.4zm47.5 22.6c-3.5 0-13.4 6.1-13.4 6.1s9.9 6.5 13.3 6.6c3.5 0 6.3-2.7 6.3-6.2s-2.8-6.4-6.2-6.5zm-15.2-25.8c-3.3 1-11 9.9-11 9.9s11.4 3.2 14.6 2.2c3.3-1 5.2-4.4 4.2-7.8-.9-3.1-4.1-5.1-7.3-4.4-.2 0-.3 0-.5.1zm-18.1-23.1c-3.4.4-12.5 7.8-12.5 7.8s10.7 5.1 14.1 4.7 5.8-3.5 5.4-7-3.6-5.9-7-5.5z" fill="#7e41ff"/><path d="m561.6 253.1c-2.4-2.5-4.8-14.3-4.8-14.3s11.4 3 13.8 5.6c2.3 2.5 2.3 6.5-.2 8.9-2.5 2.5-6.4 2.4-8.8-.2zm-20.6-6.9c-.6-3.4 3.6-14.5 3.6-14.5s8 8.8 8.6 12.3c.6 3.4-1.6 6.7-4.9 7.3-3.4.6-6.7-1.7-7.3-5.1zm-22.2-24.4c1.2-3.3 10.4-10.6 10.4-10.6s2.5 11.7 1.4 14.9c-1.1 3.3-4.7 4.9-8 3.8-3.2-1.3-4.9-4.9-3.8-8.1zm-12.7-22.3c.6-3.4 8.4-12.2 8.4-12.2s4.4 11.1 3.9 14.5c-.6 3.4-3.8 5.7-7.2 5.1-3.4-.7-5.6-4-5.1-7.4zm47.5 22.6c-3.5 0-13.4 6.1-13.4 6.1s9.9 6.5 13.3 6.6c3.5 0 6.3-2.7 6.3-6.2s-2.8-6.4-6.2-6.5zm-15.2-25.8c-3.3 1-11 9.9-11 9.9s11.4 3.2 14.6 2.2c3.3-1 5.2-4.4 4.2-7.8-.9-3.1-4.1-5.1-7.3-4.4-.2 0-.3 0-.5.1zm-18.1-23.1c-3.4.4-12.5 7.8-12.5 7.8s10.7 5.1 14.1 4.7 5.8-3.5 5.4-7-3.6-5.9-7-5.5z" fill="#dd99b8"/><path d="m588.5 220.4c-3.2-1.4-10-11.1-10-11.1s11.6-1.8 14.8-.5c3.2 1.4 4.7 5 3.4 8.3-1.3 3.2-5 4.7-8.2 3.3zm-21.5 2.1c-1.9-2.9-2.5-14.8-2.5-14.8s10.8 4.8 12.7 7.7c1.9 3 1.3 6.8-1.6 8.8-2.6 1.9-6.3 1.3-8.4-1.3 0-.2-.1-.3-.2-.4zm-29.9-13.3c-.3-3.5 5.2-14 5.2-14s6.9 9.7 7.3 13.2c.3 3.5-2.3 6.5-5.7 6.7-3.5.2-6.5-2.4-6.8-5.9zm-20.4-15.2c-.8-3.4 2.8-14.7 2.8-14.7s8.5 8.4 9.3 11.8-1.1 6.7-4.5 7.6c-3.2.8-6.5-1.1-7.4-4.2-.1-.3-.2-.4-.2-.5zm52.2 1.2c-3.2 1.3-9.8 11.1-9.8 11.1s11.6 1.9 14.8.5 4.6-5 3.3-8.3c-1.2-3-4.7-4.6-7.7-3.6-.3.2-.5.2-.6.3zm-24.1-17.5c-2.6 2.3-6.1 13.6-6.1 13.6s11.6-1.7 14.2-4 2.9-6.2.6-8.9c-2.2-2.6-6.1-2.9-8.7-.7zm-25.8-13.7c-3 1.8-8.3 12.4-8.3 12.4s11.8.3 14.7-1.5c3-1.8 3.9-5.6 2.1-8.6-1.6-2.8-5.3-3.9-8.1-2.4-.1-.1-.2 0-.4.1z" fill="#eeb7cb"/><path d="m496.5 172.9s29.1 3.4 44.4 20.7c6.4 7.3 14.9 12.4 24.3 14.4 4.5.9 9 1.4 13.5 1.5" stroke="#adadb2" stroke-width="1.093"/><path d="m219.8 348.1s-47-44.6-98.7-46.4c-21.7-.8-42.5-8-59.2-21.3-7.9-6.3-15.2-13.3-21.7-20.9" stroke="#8d8d91" stroke-width="1.71"/><path d="m7.6 258.1c6.9 3.5 33.5 1.5 33.5 1.5s-13.2-22.3-20.1-25.8c-6.8-3.4-15.4-.9-19.1 5.8-3.8 6.7-1.2 15 5.7 18.5zm26.8 39.4c7.7-.7 29.1-16.4 29.1-16.4s-23.6-11.6-31.4-10.8-13.5 7.4-12.9 14.9c.7 7.4 7.5 13 15.2 12.3zm65.4 32.2c6.4-4.4 16.8-28.3 16.8-28.3s-26.6 1.6-33 6.1c-6.4 4.3-7.9 13-3.5 19.1 4.5 6.1 13.2 7.4 19.7 3.1zm55.2 13.4c7.1-3.3 21.5-25.1 21.5-25.1s-26.5-2.7-33.5.6-10.2 11.5-6.8 18.2c3.4 6.8 11.8 9.6 18.8 6.3zm-76-86.8c2.1 7.3-5.3 32.1-5.3 32.1s-19.7-17.1-21.9-24.3c-2.1-7.3 2.2-14.9 9.7-17 7.6-2.1 15.4 2 17.5 9.2zm64.4 16.6c-.2 7.6-14.9 29.3-14.9 29.3s-13.4-22.1-13.2-29.6c.3-7.6 6.6-13.6 14.5-13.5 7.2 0 13.4 5.7 13.7 12.8-.1.3-.1.6-.1 1z" fill="#7e41ff"/><path d="m217.8 347.5s-24.1-59.5-70.3-81.5c-19.4-9.2-35.3-24-45-42.8-4.6-9-8.2-18.2-11-27.7" stroke="#8d8d91" stroke-width="1.71"/><path d="m62.5 181.4c4.8 5.9 29.7 14.5 29.7 14.5s-2.7-25.6-7.4-31.5c-4.8-5.9-13.6-6.9-19.8-2.2s-7.3 13.3-2.5 19.2zm8 46.8c7.4 2.3 33.3-3.6 33.3-3.6s-16.6-19.9-23.9-22.3c-7.5-2.3-15.4 1.4-17.9 8.6-2.5 6.6.9 14.2 7.7 17 .2 0 .4.1.8.3zm45.9 55.2c7.6-1.5 27.1-19.4 27.1-19.4s-24.9-8.9-32.5-7.4-12.6 8.8-11.2 16.1c1.6 7.5 8.9 12.2 16.6 10.7z" fill="#c2d8cb"/><path d="m7.6 258.1c6.9 3.5 33.5 1.5 33.5 1.5s-13.2-22.3-20.1-25.8c-6.8-3.4-15.4-.9-19.1 5.8-3.8 6.7-1.2 15 5.7 18.5zm26.8 39.4c7.7-.7 29.1-16.4 29.1-16.4s-23.6-11.6-31.4-10.8-13.5 7.4-12.9 14.9c.7 7.4 7.5 13 15.2 12.3zm65.4 32.2c6.4-4.4 16.8-28.3 16.8-28.3s-26.6 1.6-33 6.1c-6.4 4.3-7.9 13-3.5 19.1 4.5 6.1 13.2 7.4 19.7 3.1zm55.2 13.4c7.1-3.3 21.5-25.1 21.5-25.1s-26.5-2.7-33.5.6-10.2 11.5-6.8 18.2c3.4 6.8 11.8 9.6 18.8 6.3zm-76-86.8c2.1 7.3-5.3 32.1-5.3 32.1s-19.7-17.1-21.9-24.3c-2.1-7.3 2.2-14.9 9.7-17 7.6-2.1 15.4 2 17.5 9.2zm64.4 16.6c-.2 7.6-14.9 29.3-14.9 29.3s-13.4-22.1-13.2-29.6c.3-7.6 6.6-13.6 14.5-13.5 7.2 0 13.4 5.7 13.7 12.8-.1.3-.1.6-.1 1z" fill="#a0c1ad"/><path d="m160.9 317.5c7.8-.3 30.1-14.7 30.1-14.7s-22.9-12.9-30.7-12.6-13.8 6.4-13.8 14.1c.1 7.2 6.1 13.1 13.3 13.2.4-.1.7 0 1.1 0zm-32.8-109.8c-1.1 7.5-18.2 27.5-18.2 27.5s-10.8-23.4-9.6-31 8.2-12.7 16-11.9c7.1.8 12.6 7.2 12.1 14.2-.2.6-.2.9-.3 1.2zm51.6 40.6c-3.4 6.9-25.8 21.1-25.8 21.1s-3-25.6.4-32.5 11.7-9.9 18.8-6.7c6.9 3.2 10 11.2 6.6 18.1z" fill="#c2d8cb"/><path d="m366.4 102.4h232.2v80.4h-232.2z" fill="#fff"/><path d="m366.4 94.8h231.5v11.5h-231.5z" fill="#3f3d56"/><g fill="#e3dbdc"><path d="m464.5 124.4h116.1v3.4h-116.1z"/><path d="m464.5 137.9h116.1v3.4h-116.1z"/><path d="m464.5 151.4h116.1v3.4h-116.1z"/></g><circle cx="405.4" cy="139.7" fill="#e57370" r="13.6"/><path d="m532.8 101.1h1.4v4.1h-1.4z" fill="#3f3d56"/><path d="m214.6 298.2c-1.8 6.4-19.1 21.8-19.1 21.8s-6.5-21.6-4.7-27.9c1.9-6.4 8.5-10.1 15.2-8.4 6.1 1.5 10 7.8 8.7 13.8.1.1 0 .4-.1.7z" fill="#7e41ff"/><path d="m169.5 169.9h183.3v179.2h-183.3z" fill="#ffdd57"/><g fill="#fff"><path d="m203 193.2h33.2v31.5h-33.2z"/><path d="m246.4 195.2h77.7v2.8h-77.7z"/><path d="m246.4 206.2h77.7v2.8h-77.7z"/><path d="m246.4 217.2h77.7v2.8h-77.7z"/><path d="m206 271.6h33.2v31.8h-33.2z"/><path d="m244.4 275.1h86.8v2.8h-86.8z"/></g><g transform="translate(209 273)"><path d="m27.5 26.1c.8.8.8 2.1 0 2.9-.4.4-.8.6-1.4.6s-1-.2-1.4-.6l-10.6-11-10.6 11c-.4.4-.8.6-1.4.6s-1-.2-1.4-.6c-.8-.8-.8-2.1 0-2.9l10.6-11-10.6-11c-.8-.8-.8-2.1 0-2.9s2-.8 2.8 0l10.6 11 10.6-11c.8-.8 2-.8 2.8 0s.8 2.1 0 2.9l-10.6 11z" fill="#000"/><path d="m-10-9.9h48.2v49.9h-48.2z" fill="#f44336" mask="url(#a)"/></g><path d="m244.4 286.1h86.8v2.8h-86.8z" fill="#fff"/><path d="m244.4 297.1h86.8v2.8h-86.8z" fill="#fff"/><path d="m203.4 206 2.7-2.1 9.2 12.7 23.7-19.7 2.1 2.7-26.3 22z" fill="#67a07b"/><path d="m488.9 184.1v142.7h-266.1v-20.8" stroke="#e57370" stroke-dasharray="7" stroke-linecap="round" stroke-linejoin="round" stroke-width="1.691"/><path d="m145.8 108.7v101.7h56.1" stroke="#67a07b" stroke-dasharray="7" stroke-linecap="round" stroke-linejoin="round" stroke-width="1.691"/><path d="m481.9 334.6c-13.1-4.1-26.3-10.3-29.9-25.1-3-12.3 2.9-26.7 11.6-35.4 5.5-5.4 12.7-10.3 16.4-17.3 3.1-6 .5-12.4-6.6-12.6-10.6-.4-22 10.9-32.4 7.4-7.1-2.3-8.5-12.1-12.3-17.5-2.5-3.6-5.8-6-9.8-7.7-7.8-3.2-17.6-3.3-25.4.2-9.9 4.5-13.4 14.8-20.4 22.4-.3.3-.4.5-.6.8-6 4-9.1 4.1-15-1-3.9-3.3-7.8-9.3-13.2-9.8-11.5-1.2-11.5 11.6-7.7 18.8 3.6 6.7 9.3 11.9 11.6 19.4 2.5 8.1 1.4 16-1.8 23.7-4.2 10.2-10.6 22.1-3.1 32.6 7 9.7 20.4 8.4 30.6 5.3 6.1-1.9 12-4.7 18.2-6 8.2-1.7 16.1.4 23.8 3.2 12.4 4.5 23 8.7 36.4 8.6 9.1-.1 20.7 1.3 29.6-1.4 2-.6 3-2.2 3.2-4.2v-.1c.2-2-1.5-3.8-3.2-4.3zm-89.4-42.1c-8.7 0-15.8-7.4-15.8-16.6s7.1-16.6 15.8-16.6 15.8 7.4 15.8 16.6-7.1 16.6-15.8 16.6zm35.1-1.2c-5.1 0-9.2-4.1-9.2-9.2s4.1-9.2 9.2-9.2 9.2 4.1 9.2 9.2-4.1 9.2-9.2 9.2z" fill="#241e20" fill-rule="nonzero"/></g></svg>