<svg xmlns="http://www.w3.org/2000/svg" viewBox="0 0 422.97 388.18"><defs><style>.cls-1,.cls-5,.cls-8,.cls-9{fill:#fff;}.cls-10,.cls-13,.cls-2,.cls-4,.cls-6,.cls-7{fill:none;}.cls-10,.cls-12,.cls-13,.cls-2,.cls-4,.cls-5,.cls-8,.cls-9{stroke:#241f20;}.cls-10,.cls-12,.cls-13,.cls-2,.cls-4,.cls-5,.cls-6,.cls-7,.cls-8,.cls-9{stroke-miterlimit:10;}.cls-2{stroke-width:1.27px;}.cls-12,.cls-3{fill:#241f20;}.cls-4{stroke-width:1.1px;}.cls-5{stroke-width:2.26px;}.cls-6,.cls-7{stroke:#fff;}.cls-6{stroke-width:2.75px;}.cls-7{stroke-width:1px;}.cls-8{stroke-width:4.74px;}.cls-9{stroke-width:6.55px;}.cls-10{stroke-width:2.23px;}.cls-11{fill:#ffe147;}.cls-12{stroke-width:0.22px;}.cls-13{stroke-width:4.54px;}</style></defs><title>OopsSpamHero</title><g id="Layer_2" data-name="Layer 2"><g id="Layer_1-2" data-name="Layer 1"><path class="cls-1" d="M184.68,7.64c101.85,40,316.38,216.06,208.93,295.06S39.93,462.33,5.6,265.62,102.6-24.6,184.68,7.64Z"/><rect class="cls-2" x="89.07" y="25.74" width="104.35" height="47.08" transform="matrix(0.83, -0.55, 0.55, 0.83, -3.77, 86.01)"/><rect class="cls-3" x="79.41" y="29.26" width="103.78" height="8.65" transform="translate(3.23 77.93) rotate(-33.45)"/><circle class="cls-3" cx="107.97" cy="68" r="6.41"/><rect class="cls-3" x="112.12" y="37.05" width="70.46" height="4.48" transform="matrix(0.83, -0.55, 0.55, 0.83, 2.75, 87.72)"/><rect class="cls-3" x="117.28" y="45.76" width="70.46" height="4.48" transform="translate(-1.2 92.01) rotate(-33.45)"/><rect class="cls-3" x="121.87" y="52.71" width="70.46" height="4.48" transform="matrix(0.83, -0.55, 0.55, 0.83, -4.27, 95.69)"/><rect class="cls-4" x="195.94" y="57.46" width="90.46" height="40.82" transform="translate(100.96 -133.25) rotate(38.52)"/><rect class="cls-3" x="206.46" y="61.71" width="89.97" height="7.5" transform="translate(95.47 -142.34) rotate(38.52)"/><circle class="cls-3" cx="216.81" cy="55.47" r="5.55"/><rect class="cls-3" x="220.5" y="78.28" width="61.09" height="3.89" transform="translate(104.58 -138.88) rotate(38.52)"/><rect class="cls-3" x="214.71" y="84.87" width="61.09" height="3.89" transform="translate(107.42 -133.84) rotate(38.52)"/><rect class="cls-3" x="210.21" y="90.52" width="61.09" height="3.89" transform="translate(109.96 -129.81) rotate(38.52)"/><polygon class="cls-3" points="33.44 86.52 174.42 212.19 174.42 243.34 212.02 243.34 212.02 213.39 345.06 87.57 33.44 86.52"/><rect class="cls-5" x="85.57" y="269.35" width="185.36" height="83.64" transform="translate(-36.42 23.92) rotate(-6.97)"/><rect class="cls-3" x="82.7" y="270.66" width="184.34" height="15.36" transform="translate(-32.47 23.26) rotate(-6.97)"/><circle class="cls-3" cx="110.52" cy="314.57" r="11.38"/><rect class="cls-3" x="133.29" y="296.15" width="125.17" height="7.97" transform="translate(-34.95 25.97) rotate(-6.97)"/><rect class="cls-3" x="134.59" y="314.08" width="125.17" height="7.97" transform="translate(-37.12 26.26) rotate(-6.97)"/><rect class="cls-3" x="136.38" y="328.76" width="125.17" height="7.97" transform="translate(-38.89 26.59) rotate(-6.97)"/><polyline class="cls-6" points="149.58 269.69 78.44 277.76 88.73 364.21"/><polyline class="cls-7" points="214.18 262.21 266.14 256.56 277.56 343.46 225.81 349.65"/><circle class="cls-1" cx="204.81" cy="290.85" r="39.81"/><circle class="cls-8" cx="204.69" cy="290.73" r="34.96"/><polyline class="cls-9" points="185.1 297.71 202.19 308.59 217.72 269.75"/><polyline class="cls-10" points="265.19 261.34 272.69 260.96 283.19 346.84 95.31 369.34 94.19 362.96"/><polyline class="cls-10" points="273.44 265.84 278.69 265.56 289.66 350.78 102.06 373.84 100.66 368.5"/><rect class="cls-11" x="29.18" y="123.37" width="200.76" height="48.88"/><path class="cls-3" d="M79.59,159.32c-3.35-1-6.69-2.62-7.61-6.39-.76-3.14.73-6.81,3-9,1.4-1.39,3.25-2.63,4.18-4.42.81-1.54.14-3.16-1.67-3.22-2.7-.1-5.61,2.77-8.27,1.89-1.8-.6-2.17-3.09-3.14-4.47a5.39,5.39,0,0,0-2.5-2,8.46,8.46,0,0,0-6.48.06c-2.53,1.14-3.43,3.77-5.2,5.71a1.66,1.66,0,0,0-.16.21c-1.52,1-2.33,1-3.84-.26-1-.85-2-2.36-3.37-2.5-2.92-.29-2.94,3-2,4.79s2.38,3,3,4.94a8.72,8.72,0,0,1-.44,6c-1.08,2.59-2.72,5.64-.8,8.29,1.79,2.49,5.21,2.14,7.79,1.35a48.52,48.52,0,0,1,4.65-1.52,11.06,11.06,0,0,1,6.08.81c3.17,1.15,5.88,2.21,9.29,2.18,2.32,0,5.28.34,7.54-.36a1.15,1.15,0,0,0,.82-1.07v0A1.12,1.12,0,0,0,79.59,159.32ZM56.78,148.61a4.24,4.24,0,1,1,4-4.24A4.14,4.14,0,0,1,56.78,148.61Zm9-.32a2.36,2.36,0,1,1,2.35-2.35A2.35,2.35,0,0,1,65.74,148.29Z"/><path class="cls-12" d="M93,139a11.5,11.5,0,1,1-11.5,11.53A11.47,11.47,0,0,1,93,139Zm0,21.59a10.1,10.1,0,1,0-10.09-10.06A10.07,10.07,0,0,0,93,160.63Z"/><path class="cls-12" d="M117,139a11.5,11.5,0,1,1-11.5,11.53A11.48,11.48,0,0,1,117,139Zm0,21.59a10.1,10.1,0,1,0-10.09-10.06A10.07,10.07,0,0,0,117,160.63Z"/><path class="cls-12" d="M130.52,139.77a.42.42,0,0,1,.41-.41h6.87a7.2,7.2,0,0,1,0,14.4H132v7.54a.46.46,0,0,1-.51.41h-.58a.42.42,0,0,1-.41-.41Zm7.21,12.52a5.82,5.82,0,0,0,5.78-5.81,5.73,5.73,0,0,0-5.81-5.62H132v11.43Z"/><path class="cls-12" d="M146.54,158.74l.29-.38c.23-.26.45-.35.7-.13a9.3,9.3,0,0,0,5.91,2.46c2.91,0,5.37-1.95,5.37-4.28,0-2.84-2.33-4.12-6.2-5.43-3.7-1.31-6.16-2.62-6.16-6.29,0-2.39,1.91-5.65,6.9-5.65a10.47,10.47,0,0,1,5.49,1.63.46.46,0,0,1,.13.67,2.76,2.76,0,0,0-.26.41.46.46,0,0,1-.7.16,9.45,9.45,0,0,0-4.7-1.5c-3.92,0-5.39,2.43-5.39,4.25,0,2.71,2.07,3.9,5.3,5,4.37,1.5,7.15,3,7.15,6.74,0,3.19-3.29,5.68-7,5.68a10.38,10.38,0,0,1-6.77-2.62C146.45,159.25,146.29,159.09,146.54,158.74Z"/><path class="cls-3" d="M164,172.68a.51.51,0,0,1-.49.5h-.65a.51.51,0,0,1-.5-.5V146.92a.51.51,0,0,1,.53-.5h.42a.4.4,0,0,1,.46.38l.12,1.07a7.74,7.74,0,0,1,5-1.83c4.24,0,7.37,3.55,7.37,8a7.67,7.67,0,0,1-7.72,8,7,7,0,0,1-4.55-1.56Zm4.36-12.19a6.15,6.15,0,0,0,6.23-6.46c0-3.56-2.33-6.42-5.81-6.42a6.12,6.12,0,0,0-4.74,2.14v8.94A6,6,0,0,0,168.35,160.49Z"/><path class="cls-3" d="M184.25,151.85a12.32,12.32,0,0,1,3.86.69c0-3.37-.34-5-3.36-5a11.39,11.39,0,0,0-4.59,1,.39.39,0,0,1-.57-.3l-.19-.46a.39.39,0,0,1,.23-.57,10.94,10.94,0,0,1,5.23-1.15c4.67,0,4.86,2.79,4.86,6.69v8.49a.51.51,0,0,1-.5.49h-.46c-.26,0-.38-.15-.46-.42l-.15-1.37a8,8,0,0,1-5.31,2.17,4.82,4.82,0,0,1-5-5.08C177.83,154.07,180.24,151.85,184.25,151.85ZM183,160.6a6.92,6.92,0,0,0,5.08-2.37V154a9.87,9.87,0,0,0-3.86-.8c-2.9,0-4.85,1.49-4.85,3.74A3.45,3.45,0,0,0,183,160.6Z"/><path class="cls-3" d="M192.06,146.92a.51.51,0,0,1,.5-.5H193a.41.41,0,0,1,.42.38l.19,1.65a6.65,6.65,0,0,1,5.28-2.41,5.28,5.28,0,0,1,5,2.79,7.76,7.76,0,0,1,5.74-2.79c4.17,0,6,2.71,6,7v8.19a.51.51,0,0,1-.5.49h-.76a.44.44,0,0,1-.42-.49V153c0-3.51-1.53-5.35-4.4-5.35a6.56,6.56,0,0,0-5,2.6,10,10,0,0,1,.34,2.75v8.19a.5.5,0,0,1-.49.49h-.73a.45.45,0,0,1-.46-.49V153c0-3.51-1.57-5.35-4.43-5.35a6.14,6.14,0,0,0-5,2.64v10.9a.45.45,0,0,1-.5.49h-.77a.45.45,0,0,1-.42-.49Z"/><line class="cls-13" x1="277" y1="245.03" x2="286" y2="214.65"/><line class="cls-13" x1="290.5" y1="250.93" x2="326.78" y2="207.9"/><line class="cls-13" x1="301.75" y1="263.03" x2="329.31" y2="250.93"/></g></g></svg>