<svg height="95" viewBox="0 0 392 95" width="392" xmlns="http://www.w3.org/2000/svg"><g fill="#fff" fill-rule="evenodd" transform="translate(0 -1)"><path d="m84.91 64.59c-7.57-2.33-15.1-5.89-17.17-14.41-1.74-7.06 1.65-15.35 6.66-20.31 3.15-3.13 7.31-5.92 9.42-10 1.82-3.47.31-7.12-3.77-7.27-6.05-.18-12.64 6.29-18.66 4.3-4.06-1.34-4.89-7-7.07-10.07-1.3985126-2.00616534-3.3615781-3.55155727-5.64-4.44-4.6974879-1.898513-9.957015-1.85174566-14.62.13-5.68 2.58-7.72 8.48-11.71 12.87-.1326279.1501278-.2530132.3106414-.36.48-3.43 2.31-5.25 2.36-8.65-.58-2.21-1.91-4.47-5.29-7.61-5.64-6.59-.65-6.62 6.66-4.42 10.81 2.06 3.87 5.36 6.85 6.69 11.14 1.31545551 4.5158776.96045986 9.3544683-1 13.63-2.45 5.85-6.14 12.77-1.82 18.7 4.05 5.6 11.75 4.83 17.58 3 3.51-1.07 6.87-2.69 10.48-3.42 4.73-1 9.27.21 13.71 1.83 7.13 2.6 13.26 5 20.94 4.91 5.25 0 11.92.77 17-.8 1.0667562-.3255301 1.8070596-1.2951666 1.84-2.41v-.04c-.0048068-1.1181465-.7458449-2.0994112-1.82-2.41zm-51.44-24.14c-5.1455599-.1309338-9.2130364-4.4042452-9.09-9.55-.1230364-5.1457548 3.9444401-9.4190662 9.09-9.55 5.1455599.1309338 9.2130364 4.4042452 9.09 9.55.1230364 5.1457548-3.9444401 9.4190662-9.09 9.55zm20.19-.72c-2.9286697-.0165464-5.2909778-2.4011913-5.2799624-5.3298871.0110154-2.9286957 2.3911946-5.2955032 5.319906-5.2900188 2.9287113.0054843 5.3000097 2.3811894 5.3000564 5.3099059.0027089 1.4143378-.5599931 2.7710903-1.562896 3.7683589-1.0029028.9972685-2.3628039 1.552318-3.777104 1.5416411z" fill-rule="nonzero"/><path d="m115.06 18.87c14.31292-.0054677 25.923363 11.5871488 25.939888 25.9000604.016525 14.3129117-11.567118 25.9323071-25.880013 25.9598896-14.312894.0275824-25.9412351-11.547081-25.979875-25.85995-.0292818-6.8906961 2.689597-13.5087786 7.5545854-18.3887825 4.8649886-4.8800039 11.4746606-7.6192644 18.3654146-7.6112175zm0 48.68c9.21283.0040042 17.519418-5.5463298 21.041246-14.0594367s1.564184-18.3097-4.958868-24.815548-16.32478-8.437614-24.828557-4.8933166c-8.5037766 3.5442973-14.0321548 11.8655135-14.003821 21.0783013.0079512 6.0257203 2.4092876 11.8014835 6.6757413 16.0566851 4.2664537 4.2552015 10.0485387 6.6412766 16.0742587 6.6333149zm54.21-48.68c14.31292-.0054677 25.923363 11.5871488 25.939888 25.9000604.016525 14.3129117-11.567118 25.9323071-25.880013 25.9598896-14.312894.0275824-25.941235-11.547081-25.979875-25.85995-.029282-6.8906961 2.689597-13.5087786 7.554585-18.3887825 4.864989-4.8800039 11.474661-7.6192644 18.365415-7.6112175zm0 48.68c9.21283.0040042 17.519418-5.5463298 21.041246-14.0594367s1.564184-18.3097-4.958868-24.815548-16.32478-8.437614-24.828557-4.8933166c-8.503777 3.5442973-14.032155 11.8655135-14.003821 21.0783013.005298 6.0265371 2.405784 11.8038438 6.672814 16.0596201s10.050656 6.640997 16.077186 6.6303799zm30.46-47.02c.029042-.5028266.427513-.9055815.93-.94h15.49c8.969104-.01933 16.25567 7.2358957 16.275 16.205s-7.235896 16.25567-16.205 16.275h-13.11v17c0 .5-.43.93-1.15.93h-1.3c-.498928-.0338578-.896142-.4310717-.93-.93zm16.27 28.22c7.189004-.0711638 12.983926-5.910662 13-13.1-.147673-7.0886014-5.980356-12.7338539-13.07-12.65h-12.82v25.75z" fill-rule="nonzero" stroke="#fff" stroke-width=".5"/><path d="m235.87 63.3.65-.87c.5-.57 1-.79 1.58-.28.72.64 6.05 5.54 13.33 5.54 6.55 0 12.09-4.39 12.09-9.65 0-6.41-5.25-9.29-14-12.24-8.35-2.95-13.89-5.9-13.89-14.18 0-5.4 4.32-12.75 15.55-12.75 4.38744.0497146 8.67431 1.3205395 12.38 3.67.26344.1430974.448781.3968385.504965.6913224.056185.2944838-.022715.5986395-.214965.8286776-.217302.2924163-.40806.6036521-.57.93-.124657.2988384-.386293.5188232-.702096.5903257-.315803.0715024-.64668-.0143284-.887904-.2303257-3.156504-2.0343079-6.798129-3.1906531-10.55-3.35-8.86 0-12.14 5.44-12.14 9.54 0 6.12 4.68 8.79 11.95 11.16 9.87 3.39 16.13 6.85 16.13 15.2 0 7.2-7.42 12.82-15.7 12.82-5.63166-.0718649-11.048989-2.1699262-15.26-5.91-.46-.36-.82-.72-.25-1.51z" stroke="#fff" stroke-width=".5"/><path d="m275.22 94.73c-.010682.6140798-.50592 1.1093179-1.12 1.12h-1.47c-.61408-.0106821-1.109318-.5059202-1.12-1.12v-58.09c.010384-.3095164.144101-.6020299.371375-.8123987.227273-.2103687.52923-.3211242.838625-.3076013h.94c.248047-.0249668.495475.0529231.68449.2154765.189016.1625534.303066.3955343.31551.6445235l.26 2.41c3.153514-2.6748249 7.154866-4.1421056 11.29-4.14 9.57 0 16.64 8 16.64 18.11s-7.25 18.1-17.42 18.1c-3.729365.0792621-7.364401-1.1761553-10.25-3.54zm9.78-27.49c8.36 0 14-6.38 14-14.57 0-8-5.26-14.48-13.1-14.48-4.071791-.0478817-7.954769 1.7141112-10.6 4.81v20.19c2.552076 2.6069762 6.051838 4.0682173 9.7 4.05zm35.9-19.48c2.966751.0556989 5.906171.5787873 8.71 1.55 0-7.59-.78-11.38-7.59-11.38-3.572873.0348429-7.097492.8290752-10.34 2.33-.261625.1276456-.568527.1224215-.825656-.0140545-.257128-.1364759-.433446-.3877301-.474344-.6759455l-.43-1c-.129095-.2363584-.145559-.5181081-.04487-.7678934.100688-.2497854.307946-.4413528.56487-.5221066.26-.17 4.66-2.59 11.81-2.59 10.52 0 11 6.3 11 15.09v19.09c-.002577.3058789-.127972.5978898-.347997.8103928-.220025.2125029-.516219.3276678-.822003.3196072h-1c-.6 0-.86-.34-1-.94l-.35-3.11c-3.24968 3.0741373-7.527607 4.8280873-12 4.92-6.38 0-11.29-4.4-11.29-11.47-.05-6.64 5.38-11.64 14.43-11.64zm-2.76 19.74c4.404915-.0937857 8.56742-2.0353207 11.47-5.35v-9.48c-2.752796-1.1806286-5.714741-1.7961418-8.71-1.81-6.55 0-10.95 3.36-10.95 8.45-.119704 2.2066472.704658 4.3600835 2.267287 5.9227128 1.56263 1.5626294 3.716066 2.3869912 5.922713 2.2672872z" fill-rule="nonzero"/><path d="m338.52 36.64c.00543-.6162956.503704-1.1145698 1.12-1.12h1c.493276-.0070337.908065.3684594.95.86l.43 3.7c2.924832-3.5324824 7.30497-5.5328317 11.89-5.43 5.26 0 9.14 2.25 11.3 6.3 3.203043-3.8622488 7.914401-6.1578058 12.93-6.3 9.39 0 13.44 6.12 13.44 15.78v18.44c.000382.6087888-.481593 1.1084501-1.09 1.13h-1.72c-.278596-.0118967-.539571-.1395781-.719948-.352232-.180376-.212654-.263768-.490964-.230052-.767768v-18.45c0-7.93-3.45-12.07-9.91-12.07s-10.26 4.48-11.38 5.86c.547655 2.0236287.810188 4.1137919.78 6.21v18.44c-.005431.6218183-.508182 1.124569-1.13 1.13h-1.63c-.28738.0020776-.561762-.1195851-.753167-.3339581-.191404-.214373-.281327-.5007322-.246833-.7860419v-18.45c0-7.93-3.53-12.07-10-12.07-4.483324.073517-8.654973 2.3083291-11.2 6v24.51c.046362.3171484-.062109.637301-.2917.8609539s-.552475.3236999-.8683.2690461h-1.73c-.276818-.0145824-.535164-.1434146-.713369-.3557441s-.260279-.4891038-.226631-.7642559z"/></g></svg>