<?xml version="1.0" encoding="UTF-8"?>
<svg width="236px" height="57px" viewBox="0 0 236 57" version="1.1" xmlns="http://www.w3.org/2000/svg" xmlns:xlink="http://www.w3.org/1999/xlink">
    <title>OopsImeanthis</title>
    <g id="E-mail" stroke="none" stroke-width="1" fill="none" fill-rule="evenodd">
        <g id="Newsletter" transform="translate(-189, -77)" fill="#000000" fill-rule="nonzero">
            <g id="OopsImeanthis" transform="translate(189, 77)">
                <path d="M50.9087619,38.4623994 C46.3699307,37.0531182 41.8550828,34.8998817 40.6139493,29.7466304 C39.5706776,25.4764479 41.6032586,20.4623102 44.6071614,17.4622953 C46.4958428,15.5691408 48.9901014,13.8816324 50.2552181,11.4138783 C51.3464563,9.31507755 50.4410884,7.10740533 47.9947963,7.01667907 C44.3673288,6.90780756 40.4160874,10.8211334 36.8066074,9.61749841 C34.3723069,8.80701052 33.8746544,5.38360646 32.5675669,3.52674243 C31.7290448,2.31332996 30.5520273,1.37861247 29.1859278,0.841245253 C26.3694015,-0.307054591 23.2158869,-0.278767752 20.4200478,0.919874675 C17.0144255,2.48036628 15.7912794,6.04893234 13.3989497,8.70418743 C13.3194284,8.79499096 13.2472477,8.89207631 13.1831004,8.99451145 C11.1265362,10.3916958 10.035298,10.4219379 7.99672128,8.64370326 C6.67164639,7.4884556 5.31659243,5.44409063 3.43390685,5.23239604 C-0.517334558,4.83924893 -0.535322,9.2606418 0.783757074,11.7707349 C2.01889475,14.1114723 3.99751336,15.9139006 4.79495662,18.5086715 C5.58367927,21.2400626 5.37083048,24.1666441 4.19537522,26.7526639 C2.7264008,30.2909879 0.513945445,34.4764925 3.10413708,38.0632038 C5.53244174,41.4503174 10.1492185,40.9845893 13.644778,39.877729 C15.7493087,39.2305483 17.7639022,38.2507048 19.9283911,37.8091703 C22.7644111,37.2043286 25.4865106,37.9361871 28.148652,38.9160306 C32.4236674,40.4886191 36.0991014,41.9402392 40.7038865,41.8858034 C43.8516888,41.8858034 47.8508967,42.3515315 50.8967702,41.40193 C51.5363774,41.2050359 51.9802496,40.6185593 52,39.9442615 L52,39.9200679 C51.997118,39.2437663 51.5528053,38.6502564 50.9087619,38.4623994 Z M20.0662948,23.8615206 C16.9811128,23.7823264 14.5423296,21.1976494 14.6160999,18.0852823 C14.5423296,14.9729152 16.9811128,12.3882382 20.0662948,12.309044 C23.1514768,12.3882382 25.59026,14.9729152 25.5164897,18.0852823 C25.59026,21.1976494 23.1514768,23.7823264 20.0662948,23.8615206 Z M32.1718432,23.4260346 C30.4158673,23.4160266 28.9994713,21.9736939 29.0060529,20.2022966 C29.0126806,18.4308992 30.4397918,16.9993554 32.1957926,17.0026668 C33.9517935,17.0059897 35.3736137,18.4429152 35.3736137,20.2143251 C35.375232,21.0697756 35.0378464,21.8903961 34.4365245,22.4935857 C33.8352026,23.0967753 33.0198312,23.4324924 32.1718432,23.4260346 L32.1718432,23.4260346 Z" id="Shape"></path>
                <path d="M69.4941841,11.0000105 C78.0498571,10.9967527 84.9901009,17.9263812 84.9999895,26.4820994 C85.0098569,35.0378176 78.0856329,41.9834535 69.5299751,41.9999707 C60.9743173,42.0164291 54.023375,35.0975322 54.0001377,26.5418395 C53.9827742,22.4228415 55.6080077,18.4668016 58.5160971,15.5497196 C61.4241865,12.6326375 65.3751759,10.995211 69.4941841,11.0000105 L69.4941841,11.0000105 Z M69.4941841,40.0990991 C75.001234,40.1014808 79.9665693,36.7837007 82.0717727,31.6948868 C84.1769761,26.6060729 83.0067772,20.7500394 79.1075661,16.8610891 C75.208355,12.9721388 69.349286,11.817402 64.2660792,13.9360491 C59.1828725,16.0546963 55.878236,21.0288052 55.895108,26.5358619 C55.8999258,30.13781 57.3353455,33.5903432 59.8856555,36.133942 C62.4359656,38.6775409 65.8922572,40.1038465 69.4941841,40.0990991 Z" id="Shape" stroke="#000000" stroke-width="0.5"></path>
                <path d="M101.494184,11.0000105 C110.049857,10.9967527 116.990101,17.9263812 116.999989,26.4820994 C117.009857,35.0378176 110.085633,41.9834535 101.529975,41.9999707 C92.9743173,42.0164291 86.023375,35.0975322 86.0001377,26.5418395 C85.9827742,22.4228415 87.6080077,18.4668016 90.5160971,15.5497196 C93.4241865,12.6326375 97.3751759,10.995211 101.494184,11.0000105 L101.494184,11.0000105 Z M101.494184,40.0991084 C107.001234,40.1014808 111.966569,36.7837007 114.071773,31.6948868 C116.176976,26.6060729 115.006777,20.7500394 111.107566,16.8610891 C107.208355,12.9721388 101.349286,11.817402 96.2660792,13.9360491 C91.1828725,16.0546963 87.878236,21.0288052 87.895108,26.5358619 C87.8983398,30.1382982 89.3332513,33.5917541 91.8839057,36.1356965 C94.4345602,38.6796389 97.8917731,40.1054338 101.494184,40.0991084 Z" id="Shape" stroke="#000000" stroke-width="0.5"></path>
                <path d="M120,11.5781063 C120.017766,11.2688899 120.261515,11.0212132 120.568893,11.0000236 L130.044326,11.0000236 C135.530842,10.9881602 139.988129,15.4498077 139.999977,20.9654159 C140.011777,26.4810242 135.573662,30.9619445 130.087146,30.9738315 L122.06759,30.9738315 L122.06759,41.4280905 C122.06759,41.7355687 121.804553,42 121.36412,42 L120.568893,42 C120.263692,41.9791789 120.020711,41.7349097 120,41.4280905 L120,11.5781063 Z M129.952569,28.9321763 C134.350175,28.8884136 137.895003,25.2973768 137.904836,20.8762473 C137.814503,16.5170664 134.246575,13.0454822 129.909749,13.0970487 L122.06759,13.0970487 L122.06759,28.9321763 L129.952569,28.9321763 Z" id="Shape" stroke="#000000" stroke-width="0.5"></path>
                <path d="M141.185898,37.5637416 L141.59856,37.0435873 C141.915992,36.7027965 142.233424,36.5712633 142.601645,36.8761813 C143.058747,37.2588235 146.442571,40.1884282 151.06438,40.1884282 C155.222739,40.1884282 158.739885,37.5637416 158.739885,34.4189007 C158.739885,30.5864995 155.406849,28.8646095 149.85179,27.1008679 C144.550677,25.3371263 141.033531,23.5733848 141.033531,18.6229508 C141.033531,15.3944069 143.776143,11 150.905664,11 C153.691092,11.0297233 156.41267,11.7895221 158.765279,13.1942141 C158.932528,13.2797689 159.050194,13.4314753 159.085863,13.6075409 C159.121533,13.7836064 159.071442,13.9654545 158.94939,14.1029894 C158.811432,14.2778188 158.690327,14.4639 158.587517,14.6590164 C158.508377,14.8376855 158.342274,14.9692096 158.141782,15.0119594 C157.94129,15.0547092 157.731228,15.0033928 157.578084,14.8742527 C155.574133,13.6579837 153.262197,12.9666298 150.88027,12.8713597 C145.255376,12.8713597 143.173022,16.1238187 143.173022,18.5751205 C143.173022,22.2341369 146.144185,23.8304725 150.759646,25.2474446 C157.025752,27.2742527 161,29.3429122 161,34.3351977 C161,38.6399229 156.28931,42 151.032637,42 C147.457299,41.9570335 144.018033,40.7026478 141.344614,38.4665381 C141.052577,38.2513018 140.824026,38.0360656 141.185898,37.5637416 Z" id="Path" stroke="#000000" stroke-width="0.5"></path>
                <path d="M165.367581,56.3228745 C165.360764,56.6941319 165.044722,56.9935405 164.65284,57.0000014 L163.714742,57.0000014 C163.322859,56.9935405 163.006817,56.6941319 163,56.3228745 L163,21.2031072 C163.006626,21.0159813 163.09196,20.8391349 163.236997,20.7119512 C163.382035,20.5847675 163.574732,20.5178075 163.772176,20.5259831 L164.372049,20.5259831 C164.530342,20.5108887 164.688242,20.5579791 164.808864,20.6562548 C164.929487,20.7545305 165.002269,20.895385 165.010211,21.0459177 L165.176133,22.5029436 C167.188586,20.8858111 169.742097,19.9987297 172.380983,20.0000014 C178.488194,20.0000014 183,24.8366035 183,30.9488577 C183,37.061112 178.373325,41.891667 171.883216,41.891667 C169.503277,41.9395869 167.183535,41.1805927 165.342055,39.7514711 L165.367581,56.3228745 Z M171.608807,39.7032069 C176.943842,39.7032069 180.543076,35.845916 180.543076,30.894446 C180.543076,26.0578452 177.186343,22.1401986 172.183153,22.1401986 C169.58469,22.1112505 167.10672,23.1765075 165.418634,25.0482048 L165.418634,37.254576 C167.047272,38.8306889 169.280688,39.7141189 171.608807,39.7032069 Z" id="Shape"></path>
                <path d="M192.611806,27.5862355 C194.382318,27.6185649 196.136518,27.9221817 197.8098,28.4859038 C197.8098,24.0804312 197.344308,21.880597 193.280205,21.880597 C191.147969,21.9008209 189.044531,22.3618181 187.109452,23.2330017 C186.953319,23.3070912 186.770164,23.3040589 186.616714,23.224844 C186.463263,23.1456291 186.35804,22.9997934 186.333632,22.8325041 L186.077015,22.252073 C185.999973,22.1148832 185.990147,21.9513469 186.050237,21.8063637 C186.110326,21.6613805 186.234015,21.5501888 186.387343,21.5033167 C186.542507,21.4046434 189.168359,20 193.435369,20 C199.713543,20 200,23.6567164 200,28.7587065 L200,39.8391376 C199.998462,40.0166793 199.923629,40.1861715 199.792321,40.3095149 C199.661013,40.4328582 199.484249,40.4997035 199.301762,40.4950249 L198.704977,40.4950249 C198.346907,40.4950249 198.191743,40.2976783 198.108193,39.9494196 L197.899318,38.1442786 C195.959959,39.9286037 193.406958,40.946651 190.737903,41 C186.930417,41 184.000204,38.4461028 184.000204,34.3424544 C183.970365,30.4883914 187.210906,27.5862355 192.611806,27.5862355 Z M190.964681,39.0439469 C193.593466,38.9895108 196.077586,37.8625833 197.8098,35.9386401 L197.8098,30.4361526 C196.166974,29.7508789 194.399331,29.3936159 192.611806,29.3855721 C188.702867,29.3855721 186.077015,31.3358209 186.077015,34.2902156 C186.005577,35.5710224 186.497544,36.820944 187.430097,37.7279428 C188.36265,38.6349415 189.647788,39.1134269 190.964681,39.0439469 Z" id="Shape"></path>
                <path d="M203.004601,21.1838059 C203.007978,20.8178805 203.31783,20.5220304 203.701074,20.5188062 L204.322925,20.5188062 C204.629669,20.5146299 204.887605,20.7375789 204.913683,21.029431 L205.181079,23.226305 C206.999887,21.1288945 209.72368,19.9411876 212.574884,20.0022439 C215.845818,20.0022439 218.258599,21.3381808 219.601797,23.7428673 C221.593611,21.449658 224.523372,20.0866717 227.642326,20.0022439 C233.481504,20.0022439 236,23.6359923 236,29.3716148 L236,40.3203599 C236,40.6818281 235.700521,40.9785019 235.322183,40.9912971 L234.252599,40.9912971 C234.079354,40.9842335 233.917067,40.9084227 233.804899,40.7821595 C233.692732,40.6558962 233.640875,40.4906498 233.661841,40.3262974 L233.661841,29.3716148 C233.661841,24.6631794 231.516456,22.2050554 227.499301,22.2050554 C223.482145,22.2050554 221.119112,24.8650543 220.42264,25.6844289 C220.763199,26.8859579 220.926455,28.1269918 220.907683,29.3716148 L220.907683,40.3203599 C220.904306,40.6895644 220.59167,40.9880725 220.204992,40.9912971 L219.191375,40.9912971 C219.012668,40.9925307 218.842043,40.9202935 218.723018,40.7930096 C218.603993,40.6657257 218.548074,40.4957 218.569524,40.3262974 L218.569524,29.3716148 C218.569524,24.6631794 216.374391,22.2050554 212.351017,22.2050554 C209.563059,22.2487061 206.968916,23.5756253 205.386289,25.7675539 L205.386289,40.3203599 C205.415119,40.5086667 205.347667,40.6987572 205.204895,40.8315511 C205.062124,40.9643449 204.861339,41.0237478 204.664943,40.9912971 L203.589141,40.9912971 C203.417001,40.9826389 203.256349,40.9061447 203.145532,40.7800742 C203.034715,40.6540036 202.983677,40.4896689 203.004601,40.3262974 L203.004601,21.1838059 Z" id="Path"></path>
            </g>
        </g>
    </g>
</svg>