<svg xmlns="http://www.w3.org/2000/svg" xmlns:xlink="http://www.w3.org/1999/xlink" version="1.2" viewBox="0 0 250 250" baseProfile="tiny-ps">
    <title>OOPSpam</title>
    <g id="Logo" stroke="none" stroke-width="1" fill="none" fill-rule="evenodd">
        <g id="Group">
            <rect id="Rectangle" fill="#FFFFFF" x="0" y="0" width="250" height="250"></rect>
            <path d="M192.852198,176.229484 C179.759415,172.337184 166.735816,166.390149 163.155623,152.15736 C160.146186,140.363523 166.0094,126.514952 174.674504,118.229197 C180.122623,113.000484 187.3176,108.339747 190.966975,101.524045 C194.114778,95.727357 191.50314,89.6299766 184.446528,89.3793993 C173.982679,89.0787066 162.584868,99.8869399 152.172906,96.5626146 C145.150885,94.3241243 143.715349,84.8690083 139.944905,79.7405267 C137.526091,76.389197 134.130848,73.8075964 130.190176,72.3234393 C122.065581,69.1519445 112.968904,69.23007 104.903984,72.5406062 C95.0800735,76.8505354 91.5517676,86.706575 84.6508163,94.0401367 C84.4214282,94.2909274 84.2132145,94.5590679 84.0281741,94.841984 C78.0957774,98.7008741 74.9479751,98.7843998 69.0674652,93.8730852 C65.2451338,90.6824012 61.3363243,85.0360598 55.9055005,84.4513795 C44.5076888,83.3655447 44.4558019,95.5770107 48.2608377,102.509649 C51.8237349,108.974542 57.5312885,113.952678 59.8316056,121.119188 C62.1067671,128.66303 61.4927802,136.745969 58.1020439,143.88831 C53.8646177,153.660824 47.4825349,165.220789 54.9542416,175.126944 C61.9589665,184.481829 75.2765918,183.195532 85.3599366,180.138489 C91.4306983,178.351038 97.2420257,175.644804 103.485743,174.425328 C111.66657,172.754812 119.518781,174.776136 127.198035,177.48237 C139.52981,181.82571 150.132023,185.834946 163.415057,185.6846 C172.495256,185.6846 184.031433,186.970897 192.817606,184.348188 C194.662627,183.804385 195.943028,182.184592 196,180.322246 L196,180.255426 C195.991686,178.387545 194.710015,176.748327 192.852198,176.229484 Z M104,137 C94.9456174,136.773779 87.788284,129.390571 88.0047849,120.5 C87.788284,111.609429 94.9456174,104.226221 104,104 C113.054383,104.226221 120.211716,111.609429 119.995215,120.5 C120.211716,129.390571 113.054383,136.773779 104,137 Z M138.44632,133.999744 C133.206709,133.971699 128.980361,129.929953 129,124.966094 C129.019776,120.002234 133.278096,115.990721 138.517782,116 C143.757467,116.009312 148,120.035905 148,124.9998 C148.004829,127.396968 146.998113,129.696534 145.203844,131.386809 C143.409575,133.077084 140.976609,134.01784 138.44632,133.999744 L138.44632,133.999744 Z" id="Shape" fill="#000000" fill-rule="nonzero"></path>
        </g>
    </g>
</svg>